<svg xmlns="http://www.w3.org/2000/svg" viewBox="0 0 513.4 614">
  <defs>
    <style>
      .cls-1 {
        fill: #333;
      }

      .cls-2 {
        fill: #4d4d4d;
      }
    </style>
  </defs>
  <g id="Layer_2" data-name="Layer 2">
    <g id="Layer_1-2" data-name="Layer 1">
      <g>
        <path class="cls-1" d="M513.4,256.7A256,256,0,0,1,439,437.5l-.8.7a2.3,2.3,0,0,1-.7.7l-171,171a13.7,13.7,0,0,1-19.6,0L75.2,438.2A256.7,256.7,0,0,1,437.5,74.5a2.3,2.3,0,0,1,.7.7l.8.7A256,256,0,0,1,513.4,256.7Z"/>
        <path class="cls-2" d="M277.5,243.6l-13.1,15.7c16.3,16.2,32.6,32.5,48.3,49.5,7.2,7.7,14.3,15.6,20.3,24.5a68.3,68.3,0,0,1,4.9,8.8c2.2,4.6,1.6,8.8-1.9,12.6s-7.4,4.2-11.6,2c-5.9-3.1-10.8-7.7-15.7-12.4-16.9-16.3-31.6-34.8-46.8-52.8L249.6,277l-11,13.1-1.5,1.9c-17,20.2-33.4,41-53,58.4-4.1,3.6-8.3,7.2-13.1,7.7-7.3.2-12.4-7.7-10-14.4s7.7-13.8,12.6-19.7c15.5-18.7,32.7-35.5,49.6-52.6l.5-.5L235,259.5l-17.6-21.3a18,18,0,0,0-13.9-6.9c-4.8-.3-9.6-.6-14.4-1.3-12.5-1.9-22.7-8.1-30.4-19.3-9.2-13.2-15.8-27.7-16-44.7-.2-15.1,7.9-23.7,23.9-23.3,17.7,2.1,34.5,11.2,47.3,28,6.9,9,8.7,20.1,9.2,31.5.1,1.7.1,3.3.2,5,.1,7.9,2.9,14.1,8.5,19.7s11.9,11.9,17.9,17.8l13.8-13.9.3-.3,4.6-4.5c4.7-4.7,6-9.6,4.6-16.2-2.2-10.7-2.5-21.3,4.2-30.7a58.4,58.4,0,0,1,3.9-4.8c14.3-15,28.7-30,43-45.1,2.8-2.8,10.2,0,11,4.2.4,2-1.2,2.9-2.2,4L302.3,171c-1.3,1.5-2.9,2.9-3.1,5.2s.7,5.8,3.4,7.4,5.5.8,7.7-1.7q15.4-17.1,31-33.9c1.5-1.6,2.8-5,5.3-3.7a17.6,17.6,0,0,1,7.2,7.8c1,2-1.2,3.2-2.3,4.4-10.5,11.5-21,23.1-31.6,34.6-1.3,1.5-2.9,2.9-3.2,5.2s.7,5.5,3.2,7.1,5.7,1.1,8.1-1.5l28.1-30.8,5.1-5.5c1.6-1.8,2.8-1.8,4.5,0,6.6,7.4,6.7,7.9.2,15.5q-19.3,22.7-39,45.2c-5.7,6.5-12.6,10-22.2,9.9-2.2-.3-5.6-.8-9-1.5-6-1.4-11-.3-15.2,5.3a35.1,35.1,0,0,1-3,3.6Z"/>
      </g>
    </g>
  </g>
</svg>
