<?xml version="1.0" encoding="utf-8"?>
<!-- Generator: Adobe Illustrator 23.0.5, SVG Export Plug-In . SVG Version: 6.00 Build 0)  -->
<svg version="1.1" id="Layer_1" xmlns="http://www.w3.org/2000/svg" xmlns:xlink="http://www.w3.org/1999/xlink" x="0px" y="0px"
	 viewBox="0 0 1012 360" style="enable-background:new 0 0 1012 360;" xml:space="preserve">
<style type="text/css">
	.st0{display:none;}
	.st1{display:inline;}
	.st2{fill:#E6E6E6;}
	.st3{fill:none;stroke:#E6E6E6;stroke-miterlimit:10;}
	.st4{display:inline;fill:none;stroke:#E6E6E6;stroke-miterlimit:10;}
	.st5{opacity:0.5;}
	.st6{fill:#CBCDCF;}
	.st7{fill:#D8D9D9;}
	.st8{fill:#CCCCCC;}
	.st9{fill:#C4C4C4;}
	.st10{fill:#E0E0E0;}
	.st11{fill:#F2F2F2;}
	.st12{fill:#EEEEEE;}
	.st13{fill:#808080;}
	.st14{fill:#E4E5E4;}
	.st15{fill:#B3B3B3;}
	.st16{fill:#BFBEBE;}
	.st17{opacity:0.34;fill:#E6E6E6;enable-background:new    ;}
	.st18{fill:#DCDCDC;}
</style>
<g class="st0">
	<g class="st1">
		<path class="st2" d="M506,2c24,0,47.3,4.7,69.3,14c21.2,9,40.2,21.8,56.6,38.1S661,89.5,670,110.7c9.3,21.9,14,45.3,14,69.3
			s-4.7,47.3-14,69.3c-9,21.2-21.8,40.2-38.1,56.6c-16.3,16.3-35.4,29.2-56.6,38.1c-21.9,9.3-45.3,14-69.3,14s-47.3-4.7-69.3-14
			c-21.2-9-40.2-21.8-56.6-38.1c-16.3-16.3-29.2-35.4-38.1-56.6c-9.3-21.9-14-45.3-14-69.3s4.7-47.3,14-69.3
			c9-21.2,21.8-40.2,38.1-56.6C396.5,37.8,415.5,25,436.7,16C458.7,6.7,482,2,506,2 M506,1c-98.9,0-179,80.1-179,179
			s80.1,179,179,179s179-80.1,179-179S604.9,1,506,1L506,1z"/>
	</g>
	<g class="st1">
		<path class="st2" d="M506,67c30.2,0,58.6,11.8,79.9,33.1c21.3,21.3,33.1,49.7,33.1,79.9s-11.8,58.6-33.1,79.9
			C564.6,281.2,536.2,293,506,293s-58.6-11.8-79.9-33.1C404.8,238.6,393,210.2,393,180s11.8-58.6,33.1-79.9
			C447.4,78.8,475.8,67,506,67 M506,66c-63,0-114,51-114,114s51,114,114,114s114-51,114-114S569,66,506,66L506,66z"/>
	</g>
	<g class="st1">
		<path class="st2" d="M506,107.9l36.1,9.7l26.4,26.4l9.7,36.1l-9.7,36.1l-26.4,26.4l-36.1,9.7l-36.1-9.7l-26.4-26.4l-9.7-36.1
			l9.7-36.1l26.4-26.4L506,107.9 M506,106.8l-36.6,9.8l-26.8,26.8l-9.8,36.6l9.8,36.6l26.8,26.8l36.6,9.8l36.6-9.8l26.8-26.8
			l9.8-36.6l-9.8-36.6l-26.8-26.8L506,106.8L506,106.8z"/>
	</g>
	<g class="st1">
		<line class="st3" x1="1012" y1="180" x2="0" y2="180"/>
	</g>
	<g class="st1">
		<line class="st3" x1="506" y1="0.8" x2="506" y2="359.3"/>
	</g>
	<g class="st1">
		<line class="st3" x1="811.5" y1="0.5" x2="199.5" y2="359.5"/>
	</g>
	<g class="st1">
		<line class="st3" x1="611.5" y1="359.5" x2="400.5" y2="-0.5"/>
	</g>
	<line class="st4" x1="609.5" y1="-0.5" x2="403.5" y2="359.5"/>
	<line class="st4" x1="194.5" y1="0.5" x2="817.5" y2="359.5"/>
</g>
<g class="st5">
	<path class="st6" d="M524.9,156.1v28.1h-38.2v-28.1l15.1-53.9v-22h2.4V42.7c0-4.3,0.5-7.8,1.1-7.8s1.1,3.5,1.1,7.8v37.5h2.4v21.9
		L524.9,156.1z"/>
	<polygon class="st7" points="403.5,93 422.1,93 422.1,78.3 441.8,72.2 463.6,72.2 463.6,184.1 441.8,184.1 425.5,180.2 
		403.5,180.2 	"/>
	<polygon class="st2" points="463,68 494.4,69.4 494.4,188.5 462.2,188.5 	"/>
	<g>
		<polygon class="st8" points="383.8,93 383.8,188.9 405.6,189 405.6,103.6 		"/>
		<g>
			<rect x="385.8" y="135.6" class="st8" width="3.6" height="5.1"/>
			<rect x="390.6" y="135.6" class="st8" width="3.6" height="5.1"/>
			<rect x="385.8" y="143" class="st8" width="3.6" height="5.1"/>
			<rect x="390.6" y="143" class="st8" width="3.6" height="5.1"/>
			<rect x="385.8" y="128.8" class="st8" width="3.6" height="5.1"/>
			<rect x="390.6" y="128.8" class="st8" width="3.6" height="5.1"/>
			<rect x="385.8" y="150.3" class="st8" width="3.6" height="5.1"/>
			<rect x="390.6" y="150.3" class="st8" width="3.6" height="5.1"/>
			<rect x="385.8" y="157" class="st8" width="3.6" height="5.1"/>
			<rect x="390.6" y="157" class="st8" width="3.6" height="5.1"/>
			<rect x="395.2" y="135.6" class="st8" width="3.6" height="5.1"/>
			<rect x="399.9" y="135.6" class="st8" width="3.6" height="5.1"/>
			<rect x="395.2" y="143" class="st8" width="3.6" height="5.1"/>
			<rect x="399.9" y="143" class="st8" width="3.6" height="5.1"/>
			<rect x="395.2" y="128.9" class="st8" width="3.6" height="5.1"/>
			<rect x="399.9" y="128.9" class="st8" width="3.6" height="5.1"/>
			<rect x="395.2" y="150.3" class="st8" width="3.6" height="5.1"/>
			<rect x="399.9" y="150.3" class="st8" width="3.6" height="5.1"/>
			<rect x="395.2" y="157.1" class="st8" width="3.6" height="5.1"/>
			<rect x="399.9" y="157.1" class="st8" width="3.6" height="5.1"/>
		</g>
	</g>
	<path class="st6" d="M384.1,105v9.6h-38.2V105L361,86.5V79h2.4V66.1c0-1.5,0.5-2.7,1.1-2.7s1.1,1.2,1.1,2.7V79h2.4v7.5L384.1,105z"
		/>
	<rect x="345.9" y="88.1" class="st2" width="38.2" height="98.6"/>
	<g>
		<rect x="365.5" y="101" class="st9" width="2.7" height="3.8"/>
		<rect x="369.1" y="101" class="st9" width="2.7" height="3.8"/>
		<rect x="372.5" y="101" class="st9" width="2.7" height="3.8"/>
		<rect x="375.8" y="101" class="st9" width="2.7" height="3.8"/>
		<rect x="379" y="101" class="st9" width="2.7" height="3.8"/>
	</g>
	<g>
		<rect x="365.5" y="106.4" class="st9" width="2.7" height="3.8"/>
		<rect x="369.1" y="106.4" class="st9" width="2.7" height="3.8"/>
		<rect x="372.5" y="106.4" class="st9" width="2.7" height="3.8"/>
		<rect x="375.8" y="106.4" class="st9" width="2.7" height="3.8"/>
		<rect x="379" y="106.4" class="st9" width="2.7" height="3.8"/>
	</g>
	<g>
		<rect x="348.5" y="101" class="st9" width="2.7" height="3.8"/>
		<rect x="352.1" y="101" class="st9" width="2.7" height="3.8"/>
		<rect x="355.5" y="101" class="st9" width="2.7" height="3.8"/>
		<rect x="358.8" y="101" class="st9" width="2.7" height="3.8"/>
		<rect x="361.9" y="101" class="st9" width="2.7" height="3.8"/>
	</g>
	<g>
		<rect x="348.5" y="106.4" class="st9" width="2.7" height="3.8"/>
		<rect x="352.1" y="106.4" class="st9" width="2.7" height="3.8"/>
		<rect x="355.5" y="106.4" class="st9" width="2.7" height="3.8"/>
		<rect x="358.8" y="106.4" class="st9" width="2.7" height="3.8"/>
		<rect x="361.9" y="106.4" class="st9" width="2.7" height="3.8"/>
	</g>
	<g>
		<rect x="348.5" y="111.9" class="st9" width="2.7" height="3.8"/>
		<rect x="352.1" y="111.9" class="st9" width="2.7" height="3.8"/>
		<rect x="355.5" y="111.9" class="st9" width="2.7" height="3.8"/>
		<rect x="358.8" y="111.9" class="st9" width="2.7" height="3.8"/>
		<rect x="361.9" y="111.9" class="st9" width="2.7" height="3.8"/>
	</g>
	<g>
		<rect x="348.5" y="117.3" class="st9" width="2.7" height="3.8"/>
		<rect x="352.1" y="117.3" class="st9" width="2.7" height="3.8"/>
		<rect x="355.5" y="117.3" class="st9" width="2.7" height="3.8"/>
		<rect x="358.8" y="117.3" class="st9" width="2.7" height="3.8"/>
		<rect x="361.9" y="117.3" class="st9" width="2.7" height="3.8"/>
	</g>
	<g>
		<rect x="348.5" y="122.8" class="st9" width="2.7" height="3.8"/>
		<rect x="352.1" y="122.8" class="st9" width="2.7" height="3.8"/>
		<rect x="355.5" y="122.8" class="st9" width="2.7" height="3.8"/>
		<rect x="358.8" y="122.8" class="st9" width="2.7" height="3.8"/>
		<rect x="361.9" y="122.8" class="st9" width="2.7" height="3.8"/>
	</g>
	<g>
		<rect x="365.5" y="111.9" class="st9" width="2.7" height="3.8"/>
		<rect x="369.1" y="111.9" class="st9" width="2.7" height="3.8"/>
		<rect x="372.5" y="111.9" class="st9" width="2.7" height="3.8"/>
		<rect x="375.8" y="111.9" class="st9" width="2.7" height="3.8"/>
		<rect x="379" y="111.9" class="st9" width="2.7" height="3.8"/>
	</g>
	<rect x="335.9" y="109.5" class="st2" width="24.7" height="80.4"/>
	<g>
		<rect x="365.5" y="117.3" class="st9" width="2.7" height="3.8"/>
		<rect x="369.1" y="117.3" class="st9" width="2.7" height="3.8"/>
		<rect x="372.5" y="117.3" class="st9" width="2.7" height="3.8"/>
		<rect x="375.8" y="117.3" class="st9" width="2.7" height="3.8"/>
		<rect x="379" y="117.3" class="st9" width="2.7" height="3.8"/>
	</g>
	<g>
		<rect x="365.5" y="122.8" class="st9" width="2.7" height="3.8"/>
		<rect x="369.1" y="122.8" class="st9" width="2.7" height="3.8"/>
		<rect x="372.5" y="122.8" class="st9" width="2.7" height="3.8"/>
		<rect x="375.8" y="122.8" class="st9" width="2.7" height="3.8"/>
		<rect x="379" y="122.8" class="st9" width="2.7" height="3.8"/>
	</g>
	<g>
		<rect x="365.5" y="141" class="st9" width="2.7" height="3.8"/>
		<rect x="369.1" y="141" class="st9" width="2.7" height="3.8"/>
		<rect x="372.5" y="141" class="st9" width="2.7" height="3.8"/>
		<rect x="375.8" y="141" class="st9" width="2.7" height="3.8"/>
		<rect x="379" y="141" class="st9" width="2.7" height="3.8"/>
	</g>
	<g>
		<rect x="365.5" y="146.4" class="st9" width="2.7" height="3.8"/>
		<rect x="369.1" y="146.4" class="st9" width="2.7" height="3.8"/>
		<rect x="372.5" y="146.4" class="st9" width="2.7" height="3.8"/>
		<rect x="375.8" y="146.4" class="st9" width="2.7" height="3.8"/>
		<rect x="379" y="146.4" class="st9" width="2.7" height="3.8"/>
	</g>
	<g>
		<rect x="365.5" y="151.9" class="st9" width="2.7" height="3.8"/>
		<rect x="369.1" y="151.9" class="st9" width="2.7" height="3.8"/>
		<rect x="372.5" y="151.9" class="st9" width="2.7" height="3.8"/>
		<rect x="375.8" y="151.9" class="st9" width="2.7" height="3.8"/>
		<rect x="379" y="151.9" class="st9" width="2.7" height="3.8"/>
	</g>
	<g>
		<rect x="365.5" y="157.3" class="st9" width="2.7" height="3.8"/>
		<rect x="369.1" y="157.3" class="st9" width="2.7" height="3.8"/>
		<rect x="372.5" y="157.3" class="st9" width="2.7" height="3.8"/>
		<rect x="375.8" y="157.3" class="st9" width="2.7" height="3.8"/>
		<rect x="379" y="157.3" class="st9" width="2.7" height="3.8"/>
	</g>
	<g>
		<rect x="365.5" y="162.8" class="st9" width="2.7" height="3.8"/>
		<rect x="369.1" y="162.8" class="st9" width="2.7" height="3.8"/>
		<rect x="372.5" y="162.8" class="st9" width="2.7" height="3.8"/>
		<rect x="375.8" y="162.8" class="st9" width="2.7" height="3.8"/>
		<rect x="379" y="162.8" class="st9" width="2.7" height="3.8"/>
	</g>
	<g>
		<rect x="365.5" y="168.2" class="st9" width="2.7" height="3.8"/>
		<rect x="369.1" y="168.2" class="st9" width="2.7" height="3.8"/>
		<rect x="372.5" y="168.2" class="st9" width="2.7" height="3.8"/>
		<rect x="375.8" y="168.2" class="st9" width="2.7" height="3.8"/>
		<rect x="379" y="168.2" class="st9" width="2.7" height="3.8"/>
	</g>
	<g>
		<rect x="340.5" y="125.5" class="st9" width="2.7" height="3.8"/>
		<rect x="344" y="125.5" class="st9" width="2.7" height="3.8"/>
		<rect x="347.4" y="125.5" class="st9" width="2.7" height="3.8"/>
		<rect x="350.7" y="125.5" class="st9" width="2.7" height="3.8"/>
		<rect x="353.9" y="125.5" class="st9" width="2.7" height="3.8"/>
	</g>
	<g>
		<rect x="340.5" y="130.9" class="st9" width="2.7" height="3.8"/>
		<rect x="344" y="130.9" class="st9" width="2.7" height="3.8"/>
		<rect x="347.4" y="130.9" class="st9" width="2.7" height="3.8"/>
		<rect x="350.7" y="130.9" class="st9" width="2.7" height="3.8"/>
		<rect x="353.9" y="130.9" class="st9" width="2.7" height="3.8"/>
	</g>
	<g>
		<rect x="340.5" y="136.4" class="st9" width="2.7" height="3.8"/>
		<rect x="344" y="136.4" class="st9" width="2.7" height="3.8"/>
		<rect x="347.4" y="136.4" class="st9" width="2.7" height="3.8"/>
		<rect x="350.7" y="136.4" class="st9" width="2.7" height="3.8"/>
		<rect x="353.9" y="136.4" class="st9" width="2.7" height="3.8"/>
	</g>
	<g>
		<rect x="340.5" y="160.9" class="st9" width="2.7" height="3.8"/>
		<rect x="344" y="160.9" class="st9" width="2.7" height="3.8"/>
		<rect x="347.4" y="160.9" class="st9" width="2.7" height="3.8"/>
		<rect x="350.7" y="160.9" class="st9" width="2.7" height="3.8"/>
		<rect x="353.9" y="160.9" class="st9" width="2.7" height="3.8"/>
	</g>
	<rect x="211.4" y="175.6" class="st2" width="78.9" height="43.8"/>
	<g>
		<rect x="340.5" y="152.3" class="st9" width="2.7" height="3.8"/>
		<rect x="344" y="152.3" class="st9" width="2.7" height="3.8"/>
		<rect x="347.4" y="152.3" class="st9" width="2.7" height="3.8"/>
		<rect x="350.7" y="152.3" class="st9" width="2.7" height="3.8"/>
		<rect x="353.9" y="152.3" class="st9" width="2.7" height="3.8"/>
	</g>
	<rect x="361.9" y="141" class="st9" width="2.7" height="3.8"/>
	<rect x="361.9" y="146.4" class="st9" width="2.7" height="3.8"/>
	<rect x="361.9" y="151.9" class="st9" width="2.7" height="3.8"/>
	<rect x="361.9" y="157.3" class="st9" width="2.7" height="3.8"/>
	<rect x="361.9" y="162.8" class="st9" width="2.7" height="3.8"/>
	<path class="st10" d="M79.3,287.2l1.1,7.7c-6.5,0.5-12.9,1.3-19.1,2.4c-0.1,0-0.2,0.1-0.3,0.1c-4,0.7-7.9,1.4-11.7,2.2
		c-0.9,0.2-1.8,0.4-2.6,0.6c-0.3,0.1-0.6,0.1-0.8,0.2c-0.9,0.2-1.7,0.4-2.6,0.6c-0.3,0.1-0.6,0.2-0.9,0.2c-0.7,0.2-1.3,0.3-2,0.5
		c-0.2,0.1-0.4,0.1-0.6,0.2c-0.4,0.1-0.8,0.2-1.3,0.3c-1.3,0.3-2.6,0.7-3.9,1c-0.9,0.2-1.8,0.5-2.6,0.7c-0.1,0.1-0.3,0.1-0.4,0.1
		c-0.9,0.3-1.7,0.5-2.6,0.8c-0.2,0.1-0.4,0.1-0.6,0.2c-0.9,0.2-1.7,0.5-2.6,0.7c-0.2,0.1-0.4,0.1-0.7,0.2c-0.3,0.1-0.5,0.2-0.8,0.2
		c-0.6,0.2-1.2,0.4-1.8,0.6c-0.3,0.1-0.6,0.2-0.8,0.3c-0.9,0.3-1.7,0.5-2.6,0.8c-1.5,0.5-3,1-4.4,1.4l-5-36.6h24.7l0.7,4.9h23.1
		l-0.5-3.4l21.8-0.2l1.8,13.4h-2V287.2z"/>
	<rect x="361.9" y="168.2" class="st9" width="2.7" height="3.8"/>
	<rect x="361.9" y="173.7" class="st9" width="2.7" height="3.8"/>
	<g>
		<rect x="340.5" y="166.3" class="st9" width="2.7" height="3.8"/>
		<rect x="344" y="166.3" class="st9" width="2.7" height="3.8"/>
		<rect x="347.4" y="166.3" class="st9" width="2.7" height="3.8"/>
		<rect x="350.7" y="166.3" class="st9" width="2.7" height="3.8"/>
		<rect x="353.9" y="166.3" class="st9" width="2.7" height="3.8"/>
	</g>
	<path class="st7" d="M956.5,292c-21-14.1-39.2-23.2-54.4-29c-1.4-0.5-2.8-1-4.2-1.6c-7-2.5-13.3-4.3-18.9-5.5
		c-0.8-0.2-1.5-0.3-2.3-0.5c-7.7-1.6-14-2.2-18.7-2.4c-7.1-0.2-10.8,0.6-10.8,0.6s-0.2,0.1-0.6,0.2c-1.5,0.4-5.7,1.5-11.7,2.2
		c-3.3,0.4-7.2,0.7-11.5,0.8c-5.6,0.1-12-0.3-18.8-1.4c-2.5-0.4-5-0.8-7.5-1.5c-7.3-1.7-14.9-4.2-22.6-8c-0.4-0.2-0.8-0.4-1.2-0.6
		c-4.4-2.2-8.9-4.9-13.3-8c-12.5-6.5-27.2-9.9-42.2-11.3l0.4-8.3l19.6,3.4l16.4-3.8l20.2,3.5l0.3-7.2l31.7,5.4l-0.3,7.2l18.7,3.2
		l1.8-40.9l34.2,5.9l-0.9,19.2l20.9,3.6l-0.6,13.6l19,3.3l0.8-18.4l61.7,10.6L956.5,292z"/>
	<polygon class="st11" points="588.6,92.5 594.3,92.5 597.3,87.4 600.4,93 606.2,93 606.2,100.2 611.6,100.2 611.6,118 619.8,118 
		619.8,138.3 631.4,138.3 631.4,150.3 648.4,150.2 651.1,200.1 588.6,200.1 	"/>
	<g>
		<rect x="340.5" y="171.8" class="st9" width="2.7" height="3.8"/>
		<rect x="344" y="171.8" class="st9" width="2.7" height="3.8"/>
		<rect x="347.4" y="171.8" class="st9" width="2.7" height="3.8"/>
		<rect x="350.7" y="171.8" class="st9" width="2.7" height="3.8"/>
		<rect x="353.9" y="171.8" class="st9" width="2.7" height="3.8"/>
	</g>
	<g>
		<rect x="365.5" y="173.7" class="st9" width="2.7" height="3.8"/>
		<rect x="369.1" y="173.7" class="st9" width="2.7" height="3.8"/>
		<rect x="372.5" y="173.7" class="st9" width="2.7" height="3.8"/>
		<rect x="375.8" y="173.7" class="st9" width="2.7" height="3.8"/>
		<rect x="379" y="173.7" class="st9" width="2.7" height="3.8"/>
	</g>
	<rect x="237.8" y="186.3" class="st11" width="18.1" height="30.5"/>
	<rect x="259.7" y="192.1" class="st11" width="18.1" height="30.5"/>
	<g>
		<g>
			<rect x="471.2" y="81.9" class="st9" width="2.7" height="3.8"/>
			<rect x="474.7" y="81.9" class="st9" width="2.7" height="3.8"/>
			<rect x="478.1" y="81.9" class="st9" width="2.7" height="3.8"/>
			<rect x="481.5" y="81.9" class="st9" width="2.7" height="3.8"/>
			<rect x="484.6" y="81.9" class="st9" width="2.7" height="3.8"/>
		</g>
		<g>
			<rect x="471.2" y="87.4" class="st9" width="2.7" height="3.8"/>
			<rect x="474.7" y="87.4" class="st9" width="2.7" height="3.8"/>
			<rect x="478.1" y="87.4" class="st9" width="2.7" height="3.8"/>
			<rect x="481.5" y="87.4" class="st9" width="2.7" height="3.8"/>
			<rect x="484.6" y="87.4" class="st9" width="2.7" height="3.8"/>
		</g>
		<g>
			<rect x="471.2" y="92.8" class="st9" width="2.7" height="3.8"/>
			<rect x="474.7" y="92.8" class="st9" width="2.7" height="3.8"/>
			<rect x="478.1" y="92.8" class="st9" width="2.7" height="3.8"/>
			<rect x="481.5" y="92.8" class="st9" width="2.7" height="3.8"/>
			<rect x="484.6" y="92.8" class="st9" width="2.7" height="3.8"/>
		</g>
		<g>
			<rect x="471.2" y="98.3" class="st9" width="2.7" height="3.8"/>
			<rect x="474.7" y="98.3" class="st9" width="2.7" height="3.8"/>
			<rect x="478.1" y="98.3" class="st9" width="2.7" height="3.8"/>
			<rect x="481.5" y="98.3" class="st9" width="2.7" height="3.8"/>
			<rect x="484.6" y="98.3" class="st9" width="2.7" height="3.8"/>
		</g>
		<g>
			<rect x="471.2" y="103.7" class="st9" width="2.7" height="3.8"/>
			<rect x="474.7" y="103.7" class="st9" width="2.7" height="3.8"/>
			<rect x="478.1" y="103.7" class="st9" width="2.7" height="3.8"/>
			<rect x="481.5" y="103.7" class="st9" width="2.7" height="3.8"/>
			<rect x="484.6" y="103.7" class="st9" width="2.7" height="3.8"/>
		</g>
		<g>
			<rect x="471.2" y="109.1" class="st9" width="2.7" height="3.8"/>
			<rect x="474.7" y="109.1" class="st9" width="2.7" height="3.8"/>
			<rect x="478.1" y="109.1" class="st9" width="2.7" height="3.8"/>
			<rect x="481.5" y="109.1" class="st9" width="2.7" height="3.8"/>
			<rect x="484.6" y="109.1" class="st9" width="2.7" height="3.8"/>
		</g>
		<g>
			<rect x="471.2" y="114.6" class="st9" width="2.7" height="3.8"/>
			<rect x="474.7" y="114.6" class="st9" width="2.7" height="3.8"/>
			<rect x="478.1" y="114.6" class="st9" width="2.7" height="3.8"/>
			<rect x="481.5" y="114.6" class="st9" width="2.7" height="3.8"/>
			<rect x="484.6" y="114.6" class="st9" width="2.7" height="3.8"/>
		</g>
		<g>
			<rect x="471.2" y="120" class="st9" width="2.7" height="3.8"/>
			<rect x="474.7" y="120" class="st9" width="2.7" height="3.8"/>
			<rect x="478.1" y="120" class="st9" width="2.7" height="3.8"/>
			<rect x="481.5" y="120" class="st9" width="2.7" height="3.8"/>
			<rect x="484.6" y="120" class="st9" width="2.7" height="3.8"/>
		</g>
		<g>
			<rect x="471.2" y="125.5" class="st9" width="2.7" height="3.8"/>
			<rect x="474.7" y="125.5" class="st9" width="2.7" height="3.8"/>
			<rect x="478.1" y="125.5" class="st9" width="2.7" height="3.8"/>
			<rect x="481.5" y="125.5" class="st9" width="2.7" height="3.8"/>
			<rect x="484.6" y="125.5" class="st9" width="2.7" height="3.8"/>
		</g>
		<g>
			<rect x="471.2" y="130.9" class="st9" width="2.7" height="3.8"/>
			<rect x="474.7" y="130.9" class="st9" width="2.7" height="3.8"/>
			<rect x="478.1" y="130.9" class="st9" width="2.7" height="3.8"/>
			<rect x="481.5" y="130.9" class="st9" width="2.7" height="3.8"/>
			<rect x="484.6" y="130.9" class="st9" width="2.7" height="3.8"/>
		</g>
		<g>
			<rect x="471.2" y="136.4" class="st9" width="2.7" height="3.8"/>
			<rect x="474.7" y="136.4" class="st9" width="2.7" height="3.8"/>
			<rect x="478.1" y="136.4" class="st9" width="2.7" height="3.8"/>
			<rect x="481.5" y="136.4" class="st9" width="2.7" height="3.8"/>
			<rect x="484.6" y="136.4" class="st9" width="2.7" height="3.8"/>
		</g>
		<g>
			<rect x="471.2" y="141.8" class="st9" width="2.7" height="3.8"/>
			<rect x="474.7" y="141.8" class="st9" width="2.7" height="3.8"/>
			<rect x="478.1" y="141.8" class="st9" width="2.7" height="3.8"/>
			<rect x="481.5" y="141.8" class="st9" width="2.7" height="3.8"/>
			<rect x="484.6" y="141.8" class="st9" width="2.7" height="3.8"/>
		</g>
		<g>
			<rect x="471.2" y="147.3" class="st9" width="2.7" height="3.8"/>
			<rect x="474.7" y="147.3" class="st9" width="2.7" height="3.8"/>
			<rect x="478.1" y="147.3" class="st9" width="2.7" height="3.8"/>
			<rect x="481.5" y="147.3" class="st9" width="2.7" height="3.8"/>
			<rect x="484.6" y="147.3" class="st9" width="2.7" height="3.8"/>
		</g>
		<g>
			<rect x="471.2" y="152.7" class="st9" width="2.7" height="3.8"/>
			<rect x="474.7" y="152.7" class="st9" width="2.7" height="3.8"/>
			<rect x="478.1" y="152.7" class="st9" width="2.7" height="3.8"/>
			<rect x="481.5" y="152.7" class="st9" width="2.7" height="3.8"/>
			<rect x="484.6" y="152.7" class="st9" width="2.7" height="3.8"/>
		</g>
	</g>
	<polygon class="st7" points="360.6,109.5 362.6,111.9 362.6,179.9 360.6,180.2 	"/>
	<path class="st2" d="M205.4,225.4c0,7.9-10.6,14.3-23.8,14.3c-4.6,0-8.9-0.8-12.5-2.1c-3.1,1.4-6.6,2.3-10.4,2.3
		c-11.6,0-21.1-7.8-21.1-17.4c0-5.1,2.6-9.6,6.8-12.8c0-8.6,9.9-15.6,21.9-15.6c7,0,13.2,2.3,17.2,6c10.9,2,18.8,8,18.8,15.2
		c0,0.9-0.1,1.9-0.4,2.8C204.1,220.1,205.4,222.6,205.4,225.4z"/>
	<polygon class="st11" points="513.4,88 528.1,88 528.1,96.4 544.2,96.4 544.2,114.4 548.1,114.4 548.1,208.7 513.4,208.7 	"/>
	<polygon class="st7" points="536.6,84.1 536.6,70.6 548.1,70.6 569.3,84.1 569.3,197.2 536.6,197.2 	"/>
	<rect x="472" y="171.9" class="st8" width="13.9" height="11.8"/>
	<path class="st2" d="M567,84.1h8.8V46.5V23.9c0,0,1.6-7.5,2.3,0c0,7.7,1,6.5,1,6.5v14.1l1.4,0.2v12.6h1.4V63l1.4,0.3v20.8h5.4V111
		l2.4,5.1v11.1l1.9,3.4V189h-26V84.1z"/>
	<path class="st12" d="M986.8,298.7c-65.6-15-250-32.1-262.8-48.2c-15.6-19.6-144.4-34.5-191.3-38.6
		c-39.7-14.7-100.4-19.2-158.9-9.5c-34.8,5.8-63.3,15.7-82.6,27.6c-38.2-7.8-46.9-6.9-89.2,0.1c-74.8,12.4-101.7,41.3-143.5,79.6
		l948.4,1.2c1.4-0.7,2.3-1.4,2.6-2.2C1011.1,305.6,1002.2,302.2,986.8,298.7z"/>
	<path class="st11" d="M1009.6,308.7c-0.3,0.8-1.2,1.5-2.6,2.2H115c-68.5,0-111.7,0-111.7,0s130.4-68.6,166.1-82.9
		c22.5-9.2,65.4-24.5,65.4-24.5l86.6-16.3c0,0,5.5-0.9,14.6-2.1c1.4-0.2,2.8-0.4,4.4-0.6c0.8-0.1,1.7-0.2,2.6-0.3
		c0.3,0,0.6-0.1,0.8-0.1c0.6-0.1,1.2-0.1,1.8-0.2c0.3,0,0.5-0.1,0.8-0.1c0.2,0,0.4,0,0.7-0.1c0.9-0.1,1.7-0.2,2.6-0.3
		c0.2,0,0.4,0,0.6-0.1c0.8-0.1,1.7-0.2,2.6-0.3c0.2,0,0.3,0,0.4,0c0.9-0.1,1.7-0.2,2.6-0.3c1.3-0.1,2.6-0.3,3.9-0.4
		c0.4,0,0.8-0.1,1.3-0.1c0.2,0,0.4,0,0.6-0.1c0.6-0.1,1.3-0.1,2-0.2c0.3,0,0.6,0,0.9-0.1c0.9-0.1,1.7-0.1,2.6-0.2
		c0.3,0,0.6,0,0.8-0.1c0.9-0.1,1.7-0.1,2.6-0.2c3.8-0.3,7.7-0.6,11.7-0.9c0.1,0,0.2,0,0.3,0c6.2-0.4,12.7-0.7,19.1-0.9
		c0.7,0,1.4,0,2,0c14.9-0.4,30-0.1,43.5,1.5c4.9,0.8,9.8,1.5,14.5,2.1c0.4,0,0.9,0.1,1.3,0.1c8.3,0.9,16.2,1.3,23.7,1.5
		c2.6,0.1,5.2,0.1,7.6,0.1c6.9,0,13.2-0.3,18.8-0.7c4.2-0.3,8-0.6,11.2-1c5.8-0.6,9.8-1.3,11.2-1.5c0.4-0.1,0.6-0.1,0.6-0.1
		s3.5-0.5,10.5-0.9c4.7-0.2,11-0.4,18.9-0.3c0.8,0,1.5,0,2.3,0c5.7,0.1,12.2,0.4,19.5,0.8c1.5,0.1,2.9,0.2,4.4,0.3
		c16,1.2,35.5,3.3,58.6,7.1C725,200.7,836.8,230,986.8,298.2C994.3,301.6,1001.9,305.1,1009.6,308.7z"/>
	<polygon class="st13" points="782.3,300.3 782.3,302.4 779.7,302.4 779.7,311 773.4,311 773.4,302.4 751,302.4 751,311 744.4,311 
		744.4,302.4 742.6,302.4 742.6,300.3 	"/>
	<g>
		<g>
			<rect x="569.5" y="92.5" class="st9" width="2.7" height="3.8"/>
			<rect x="573.1" y="92.5" class="st9" width="2.7" height="3.8"/>
			<rect x="576.5" y="92.5" class="st9" width="2.7" height="3.8"/>
			<rect x="579.8" y="92.5" class="st9" width="2.7" height="3.8"/>
			<rect x="583" y="92.5" class="st9" width="2.7" height="3.8"/>
		</g>
		<g>
			<rect x="569.5" y="97.9" class="st9" width="2.7" height="3.8"/>
			<rect x="573.1" y="97.9" class="st9" width="2.7" height="3.8"/>
			<rect x="576.5" y="97.9" class="st9" width="2.7" height="3.8"/>
			<rect x="579.8" y="97.9" class="st9" width="2.7" height="3.8"/>
			<rect x="583" y="97.9" class="st9" width="2.7" height="3.8"/>
		</g>
		<g>
			<rect x="569.5" y="103.3" class="st9" width="2.7" height="3.8"/>
			<rect x="573.1" y="103.3" class="st9" width="2.7" height="3.8"/>
			<rect x="576.5" y="103.3" class="st9" width="2.7" height="3.8"/>
			<rect x="579.8" y="103.3" class="st9" width="2.7" height="3.8"/>
			<rect x="583" y="103.3" class="st9" width="2.7" height="3.8"/>
		</g>
		<g>
			<rect x="569.5" y="108.8" class="st9" width="2.7" height="3.8"/>
			<rect x="573.1" y="108.8" class="st9" width="2.7" height="3.8"/>
			<rect x="576.5" y="108.8" class="st9" width="2.7" height="3.8"/>
			<rect x="579.8" y="108.8" class="st9" width="2.7" height="3.8"/>
			<rect x="583" y="108.8" class="st9" width="2.7" height="3.8"/>
		</g>
		<g>
			<rect x="569.5" y="114.2" class="st9" width="2.7" height="3.8"/>
			<rect x="573.1" y="114.2" class="st9" width="2.7" height="3.8"/>
			<rect x="576.5" y="114.2" class="st9" width="2.7" height="3.8"/>
			<rect x="579.8" y="114.2" class="st9" width="2.7" height="3.8"/>
			<rect x="583" y="114.2" class="st9" width="2.7" height="3.8"/>
		</g>
		<g>
			<rect x="569.5" y="119.7" class="st9" width="2.7" height="3.8"/>
			<rect x="573.1" y="119.7" class="st9" width="2.7" height="3.8"/>
			<rect x="576.5" y="119.7" class="st9" width="2.7" height="3.8"/>
			<rect x="579.8" y="119.7" class="st9" width="2.7" height="3.8"/>
			<rect x="583" y="119.7" class="st9" width="2.7" height="3.8"/>
		</g>
		<g>
			<rect x="569.5" y="125.1" class="st9" width="2.7" height="3.8"/>
			<rect x="573.1" y="125.1" class="st9" width="2.7" height="3.8"/>
			<rect x="576.5" y="125.1" class="st9" width="2.7" height="3.8"/>
			<rect x="579.8" y="125.1" class="st9" width="2.7" height="3.8"/>
			<rect x="583" y="125.1" class="st9" width="2.7" height="3.8"/>
		</g>
		<g>
			<rect x="569.5" y="130.6" class="st9" width="2.7" height="3.8"/>
			<rect x="573.1" y="130.6" class="st9" width="2.7" height="3.8"/>
			<rect x="576.5" y="130.6" class="st9" width="2.7" height="3.8"/>
			<rect x="579.8" y="130.6" class="st9" width="2.7" height="3.8"/>
			<rect x="583" y="130.6" class="st9" width="2.7" height="3.8"/>
		</g>
		<g>
			<rect x="569.5" y="136" class="st9" width="2.7" height="3.8"/>
			<rect x="573.1" y="136" class="st9" width="2.7" height="3.8"/>
			<rect x="576.5" y="136" class="st9" width="2.7" height="3.8"/>
			<rect x="579.8" y="136" class="st9" width="2.7" height="3.8"/>
			<rect x="583" y="136" class="st9" width="2.7" height="3.8"/>
		</g>
		<g>
			<rect x="569.5" y="141.5" class="st9" width="2.7" height="3.8"/>
			<rect x="573.1" y="141.5" class="st9" width="2.7" height="3.8"/>
			<rect x="576.5" y="141.5" class="st9" width="2.7" height="3.8"/>
			<rect x="579.8" y="141.5" class="st9" width="2.7" height="3.8"/>
			<rect x="583" y="141.5" class="st9" width="2.7" height="3.8"/>
		</g>
		<g>
			<rect x="569.5" y="146.9" class="st9" width="2.7" height="3.8"/>
			<rect x="573.1" y="146.9" class="st9" width="2.7" height="3.8"/>
			<rect x="576.5" y="146.9" class="st9" width="2.7" height="3.8"/>
			<rect x="579.8" y="146.9" class="st9" width="2.7" height="3.8"/>
			<rect x="583" y="146.9" class="st9" width="2.7" height="3.8"/>
		</g>
		<g>
			<rect x="569.5" y="152.4" class="st9" width="2.7" height="3.8"/>
			<rect x="573.1" y="152.4" class="st9" width="2.7" height="3.8"/>
			<rect x="576.5" y="152.4" class="st9" width="2.7" height="3.8"/>
			<rect x="579.8" y="152.4" class="st9" width="2.7" height="3.8"/>
			<rect x="583" y="152.4" class="st9" width="2.7" height="3.8"/>
		</g>
		<g>
			<rect x="569.5" y="157.8" class="st9" width="2.7" height="3.8"/>
			<rect x="573.1" y="157.8" class="st9" width="2.7" height="3.8"/>
			<rect x="576.5" y="157.8" class="st9" width="2.7" height="3.8"/>
			<rect x="579.8" y="157.8" class="st9" width="2.7" height="3.8"/>
			<rect x="583" y="157.8" class="st9" width="2.7" height="3.8"/>
		</g>
		<g>
			<rect x="569.5" y="163.3" class="st9" width="2.7" height="3.8"/>
			<rect x="573.1" y="163.3" class="st9" width="2.7" height="3.8"/>
			<rect x="576.5" y="163.3" class="st9" width="2.7" height="3.8"/>
			<rect x="579.8" y="163.3" class="st9" width="2.7" height="3.8"/>
			<rect x="583" y="163.3" class="st9" width="2.7" height="3.8"/>
		</g>
	</g>
	<g>
		<path class="st2" d="M532.9,263.6c-0.6,0-1.8-2.1-2.7-4.6l-3-8.7l-0.5-1.3l-4.3-12.5H520l-4.6-13.1l-12.9-15.9l-12.4-15.2
			l-0.9-1.2l-0.1-0.3l-2.1-6c2.6,0.1,5.2,0.1,7.6,0.1c6.9,0,13.2-0.3,18.8-0.7c4.2-0.3,8-0.6,11.2-1l2.7,7.9l-3.6,23l-1.4,9.3
			l4.6,13.1h-2.4l4.3,12.5l0.5,1.3l3,8.7C533.2,261.5,533.5,263.6,532.9,263.6z"/>
		<path class="st2" d="M483.5,241.2h-21.8l-21-3.7l-3-8.8h-18.5l-2-5.8l-5.5-15.8l-1.1-3.1l0,0l-0.3-1l-1.1-3l-0.5-1.3l-1.1-3
			l-0.5-1.3l-1.1-3l-0.3-1l-1.1-3l-2.7-7.8h2c14.9-0.4,30-0.1,43.5,1.5c4.9,0.8,9.8,1.5,14.5,2.1c0.4,0,0.9,0.1,1.3,0.1L483.5,241.2
			z"/>
		<path class="st2" d="M514.8,242.9l-31.1,0.8l-0.9-2.5L462,183c0.4,0,0.9,0.1,1.3,0.1c8.3,0.9,16.2,1.3,23.7,1.5
			c2.6,0.1,5.2,0.1,7.6,0.1l7.9,22.6L514.8,242.9z"/>
		<g>
			<path class="st2" d="M419,222.4l-1.9,0.6l-17.5,5.6l-0.3,0.1l-2.4-7l-2.1-6l-12.3-35.3c0.1,0,0.2,0,0.3,0
				c6.2-0.4,12.7-0.7,19.1-0.9h2L419,222.4z"/>
			<g>
				<polygon class="st2" points="395,200.2 391.4,200.2 392.5,203.2 396.1,203.2 				"/>
				<polygon class="st2" points="399.8,200.2 396.2,200.2 397.3,203.2 400.9,203.2 				"/>
				<polygon class="st2" points="393.5,195.8 389.9,195.8 391,198.8 394.6,198.8 				"/>
				<polygon class="st2" points="398.3,195.8 394.7,195.8 395.8,198.8 399.4,198.8 				"/>
				<polygon class="st2" points="396.5,204.2 392.9,204.2 393.9,207.3 397.5,207.3 				"/>
				<polygon class="st2" points="401.3,204.2 397.7,204.2 398.7,207.3 402.3,207.3 				"/>
				<polygon class="st2" points="392,191.4 388.4,191.4 389.5,194.4 393.1,194.4 				"/>
				<polygon class="st2" points="396.8,191.4 393.2,191.4 394.3,194.4 397.9,194.4 				"/>
				<polygon class="st2" points="390.6,187.3 387,187.3 388.1,190.4 391.7,190.4 				"/>
				<polygon class="st2" points="395.4,187.3 391.8,187.3 392.8,190.4 396.4,190.4 				"/>
				<polygon class="st2" points="404.4,200.2 400.8,200.2 401.8,203.2 405.4,203.2 				"/>
				<polygon class="st2" points="409.2,200.2 405.6,200.2 406.6,203.2 410.2,203.2 				"/>
				<polygon class="st2" points="402.8,195.8 399.2,195.8 400.3,198.8 403.9,198.8 				"/>
				<polygon class="st2" points="407.6,195.8 404,195.8 405.1,198.8 408.7,198.8 				"/>
				<polygon class="st2" points="405.8,204.2 402.2,204.2 403.2,207.3 406.8,207.3 				"/>
				<polygon class="st2" points="410.6,204.2 407,204.2 408,207.3 411.6,207.3 				"/>
				<polygon class="st2" points="401.3,191.4 397.7,191.4 398.8,194.4 402.4,194.4 				"/>
				<polygon class="st2" points="406.1,191.4 402.5,191.4 403.6,194.4 407.2,194.4 				"/>
				<polygon class="st2" points="399.9,187.3 396.3,187.3 397.4,190.4 401,190.4 				"/>
				<polygon class="st2" points="404.7,187.3 401.1,187.3 402.2,190.4 405.8,190.4 				"/>
			</g>
		</g>
		<path class="st2" d="M397.2,221.6l-2-5.8H357l2,5.8l18.9,11.1l1.6,4.5h2.4l2.7,7.7c0.3,0.9,1,1.6,1.6,1.6s0.8-0.7,0.5-1.6
			l-2.7-7.7h2.4l-1.6-4.5L397.2,221.6z"/>
		<path class="st2" d="M400.7,231.7h-38.2l-3.5-10.1l-0.9-2.7l0,0l-1-3l-2.3-6.5l-0.8-2.3l-0.3-1l-0.8-2.3l-0.4-1l-0.8-2.3l-2.5-7.3
			l-0.8-2.3l-1-2.8l-0.8-2.3l-0.3-1L346,184c0.3,0,0.5-0.1,0.8-0.1c0.2,0,0.4,0,0.7-0.1c0.9-0.1,1.7-0.2,2.6-0.3
			c0.2,0,0.4,0,0.6-0.1c0.8-0.1,1.7-0.2,2.6-0.3c0.2,0,0.3,0,0.4,0c0.9-0.1,1.7-0.2,2.6-0.3c1.3-0.1,2.6-0.3,3.9-0.4
			c0.4,0,0.8-0.1,1.3-0.1c0.2,0,0.4,0,0.6-0.1c0.6-0.1,1.3-0.1,2-0.2c0.3,0,0.6,0,0.9-0.1c0.9-0.1,1.7-0.1,2.6-0.2
			c0.3,0,0.6,0,0.8-0.1c0.9-0.1,1.7-0.1,2.6-0.2c3.8-0.3,7.7-0.6,11.7-0.9c0.1,0,0.2,0,0.3,0l12.3,35.3l2,5.8l2.5,7.1L400.7,231.7z"
			/>
		<g>
			<polygon class="st2" points="381.3,221.7 378.6,221.7 379.4,224 382.1,224 			"/>
			<polygon class="st2" points="384.9,221.7 382.2,221.7 383,224 385.7,224 			"/>
			<polygon class="st2" points="388.3,221.7 385.6,221.7 386.4,224 389.1,224 			"/>
			<polygon class="st2" points="391.6,221.7 388.9,221.7 389.7,224 392.4,224 			"/>
			<polygon class="st2" points="394.7,221.7 392.1,221.7 392.9,224 395.5,224 			"/>
		</g>
		<g>
			<polygon class="st2" points="380.2,218.4 377.5,218.4 378.3,220.7 381,220.7 			"/>
			<polygon class="st2" points="383.8,218.4 381.1,218.4 381.9,220.7 384.5,220.7 			"/>
			<polygon class="st2" points="387.1,218.4 384.4,218.4 385.2,220.7 387.9,220.7 			"/>
			<polygon class="st2" points="390.5,218.4 387.8,218.4 388.6,220.7 391.3,220.7 			"/>
			<polygon class="st2" points="393.6,218.4 390.9,218.4 391.7,220.7 394.4,220.7 			"/>
		</g>
		<g>
			<polygon class="st2" points="364.3,221.7 361.6,221.7 362.4,224 365.1,224 			"/>
			<polygon class="st2" points="367.9,221.7 365.2,221.7 366,224 368.7,224 			"/>
			<polygon class="st2" points="371.2,221.7 368.6,221.7 369.4,224 372,224 			"/>
			<polygon class="st2" points="374.6,221.7 371.9,221.7 372.7,224 375.4,224 			"/>
			<polygon class="st2" points="377.7,221.7 375,221.7 375.8,224 378.5,224 			"/>
		</g>
		<g>
			<polygon class="st2" points="363.2,218.4 360.5,218.4 361.3,220.7 364,220.7 			"/>
			<polygon class="st2" points="366.7,218.4 364,218.4 364.8,220.7 367.5,220.7 			"/>
			<polygon class="st2" points="370.1,218.4 367.4,218.4 368.2,220.7 370.9,220.7 			"/>
			<polygon class="st2" points="373.4,218.4 370.8,218.4 371.6,220.7 374.2,220.7 			"/>
			<polygon class="st2" points="376.6,218.4 373.9,218.4 374.7,220.7 377.4,220.7 			"/>
		</g>
		<g>
			<polygon class="st2" points="362,215.2 359.4,215.2 360.1,217.4 362.8,217.4 			"/>
			<polygon class="st2" points="365.6,215.2 362.9,215.2 363.7,217.4 366.4,217.4 			"/>
			<polygon class="st2" points="369,215.2 366.3,215.2 367.1,217.4 369.8,217.4 			"/>
			<polygon class="st2" points="372.3,215.2 369.6,215.2 370.4,217.4 373.1,217.4 			"/>
			<polygon class="st2" points="375.5,215.2 372.8,215.2 373.6,217.4 376.3,217.4 			"/>
		</g>
		<g>
			<polygon class="st2" points="360.9,211.9 358.2,211.9 359,214.2 361.7,214.2 			"/>
			<polygon class="st2" points="364.5,211.9 361.8,211.9 362.6,214.2 365.3,214.2 			"/>
			<polygon class="st2" points="367.8,211.9 365.2,211.9 366,214.2 368.6,214.2 			"/>
			<polygon class="st2" points="371.2,211.9 368.5,211.9 369.3,214.2 372,214.2 			"/>
			<polygon class="st2" points="374.3,211.9 371.6,211.9 372.4,214.2 375.1,214.2 			"/>
		</g>
		<g>
			<polygon class="st2" points="359.8,208.6 357.1,208.6 357.9,210.9 360.6,210.9 			"/>
			<polygon class="st2" points="363.3,208.6 360.7,208.6 361.4,210.9 364.1,210.9 			"/>
			<polygon class="st2" points="366.7,208.6 364,208.6 364.8,210.9 367.5,210.9 			"/>
			<polygon class="st2" points="370,208.6 367.4,208.6 368.2,210.9 370.8,210.9 			"/>
			<polygon class="st2" points="373.2,208.6 370.5,208.6 371.3,210.9 374,210.9 			"/>
		</g>
		<g>
			<polygon class="st2" points="379.1,215.2 376.4,215.2 377.2,217.4 379.8,217.4 			"/>
			<polygon class="st2" points="382.6,215.2 379.9,215.2 380.7,217.4 383.4,217.4 			"/>
			<polygon class="st2" points="386,215.2 383.3,215.2 384.1,217.4 386.8,217.4 			"/>
			<polygon class="st2" points="389.3,215.2 386.6,215.2 387.4,217.4 390.1,217.4 			"/>
			<polygon class="st2" points="392.5,215.2 389.8,215.2 390.6,217.4 393.3,217.4 			"/>
		</g>
		<path class="st2" d="M372.8,218.9H348l-11.7-33.7c1.4-0.2,2.8-0.4,4.4-0.6c0.8-0.1,1.7-0.2,2.6-0.3c0.3,0,0.6-0.1,0.8-0.1
			c0.6-0.1,1.2-0.1,1.8-0.2c0.3,0,0.5-0.1,0.8-0.1c0.2,0,0.4,0,0.7-0.1c0.9-0.1,1.7-0.2,2.6-0.3c0.2,0,0.4,0,0.6-0.1
			c0.8-0.1,1.7-0.2,2.6-0.3c0.2,0,0.3,0,0.4,0c0.9-0.1,1.7-0.2,2.6-0.3c1.3-0.1,2.6-0.3,3.9-0.4l9.1,26.2l0.8,2.3l0.3,1l0.8,2.3
			l0.3,1l0.2,0.6l0.6,1.6l0.3,1L372.8,218.9z"/>
		<g>
			<polygon class="st2" points="377.9,211.9 375.2,211.9 376,214.2 378.7,214.2 			"/>
			<polygon class="st2" points="381.5,211.9 378.8,211.9 379.6,214.2 382.3,214.2 			"/>
			<polygon class="st2" points="384.9,211.9 382.2,211.9 383,214.2 385.7,214.2 			"/>
			<polygon class="st2" points="388.2,211.9 385.5,211.9 386.3,214.2 389,214.2 			"/>
			<polygon class="st2" points="391.3,211.9 388.7,211.9 389.5,214.2 392.1,214.2 			"/>
		</g>
		<g>
			<polygon class="st2" points="376.8,208.6 374.1,208.6 374.9,210.9 377.6,210.9 			"/>
			<polygon class="st2" points="380.4,208.6 377.7,208.6 378.5,210.9 381.1,210.9 			"/>
			<polygon class="st2" points="383.7,208.6 381,208.6 381.8,210.9 384.5,210.9 			"/>
			<polygon class="st2" points="387.1,208.6 384.4,208.6 385.2,210.9 387.9,210.9 			"/>
			<polygon class="st2" points="390.2,208.6 387.5,208.6 388.3,210.9 391,210.9 			"/>
		</g>
		<g>
			<polygon class="st2" points="373,197.7 370.3,197.7 371.1,200 373.8,200 			"/>
			<polygon class="st2" points="376.6,197.7 373.9,197.7 374.7,200 377.4,200 			"/>
			<polygon class="st2" points="379.9,197.7 377.3,197.7 378,200 380.7,200 			"/>
			<polygon class="st2" points="383.3,197.7 380.6,197.7 381.4,200 384.1,200 			"/>
			<polygon class="st2" points="386.4,197.7 383.7,197.7 384.5,200 387.2,200 			"/>
		</g>
		<g>
			<polygon class="st2" points="371.9,194.5 369.2,194.5 370,196.7 372.7,196.7 			"/>
			<polygon class="st2" points="375.4,194.5 372.7,194.5 373.5,196.7 376.2,196.7 			"/>
			<polygon class="st2" points="378.8,194.5 376.1,194.5 376.9,196.7 379.6,196.7 			"/>
			<polygon class="st2" points="382.1,194.5 379.5,194.5 380.2,196.7 382.9,196.7 			"/>
			<polygon class="st2" points="385.3,194.5 382.6,194.5 383.4,196.7 386.1,196.7 			"/>
		</g>
		<g>
			<polygon class="st2" points="370.7,191.2 368,191.2 368.8,193.5 371.5,193.5 			"/>
			<polygon class="st2" points="374.3,191.2 371.6,191.2 372.4,193.5 375.1,193.5 			"/>
			<polygon class="st2" points="377.7,191.2 375,191.2 375.8,193.5 378.5,193.5 			"/>
			<polygon class="st2" points="381,191.2 378.3,191.2 379.1,193.5 381.8,193.5 			"/>
			<polygon class="st2" points="384.2,191.2 381.5,191.2 382.3,193.5 384.9,193.5 			"/>
		</g>
		<g>
			<polygon class="st2" points="369.6,187.9 366.9,187.9 367.7,190.2 370.4,190.2 			"/>
			<polygon class="st2" points="373.2,187.9 370.5,187.9 371.3,190.2 374,190.2 			"/>
			<polygon class="st2" points="376.5,187.9 373.9,187.9 374.6,190.2 377.3,190.2 			"/>
			<polygon class="st2" points="379.9,187.9 377.2,187.9 378,190.2 380.7,190.2 			"/>
			<polygon class="st2" points="383,187.9 380.3,187.9 381.1,190.2 383.8,190.2 			"/>
		</g>
		<g>
			<polygon class="st2" points="368.5,184.7 365.8,184.7 366.6,186.9 369.3,186.9 			"/>
			<polygon class="st2" points="372,184.7 369.3,184.7 370.1,186.9 372.8,186.9 			"/>
			<polygon class="st2" points="375.4,184.7 372.7,184.7 373.5,186.9 376.2,186.9 			"/>
			<polygon class="st2" points="378.7,184.7 376.1,184.7 376.8,186.9 379.5,186.9 			"/>
			<polygon class="st2" points="381.9,184.7 379.2,184.7 380,186.9 382.7,186.9 			"/>
		</g>
		<g>
			<path class="st2" d="M368.1,183.7h-2.7l-0.6-1.7c0.9-0.1,1.7-0.1,2.6-0.2L368.1,183.7z"/>
			<path class="st2" d="M371.7,183.7H369l-0.7-2c0.9-0.1,1.7-0.1,2.6-0.2L371.7,183.7z"/>
			<polygon class="st2" points="374.3,181.4 371.6,181.4 372.4,183.7 375.1,183.7 			"/>
			<polygon class="st2" points="377.6,181.4 374.9,181.4 375.7,183.7 378.4,183.7 			"/>
			<polygon class="st2" points="380.8,181.4 378.1,181.4 378.9,183.7 381.5,183.7 			"/>
		</g>
		<g>
			<polygon class="st2" points="351.1,207 348.5,207 349.3,209.3 351.9,209.3 			"/>
			<polygon class="st2" points="354.7,207 352,207 352.8,209.3 355.5,209.3 			"/>
			<polygon class="st2" points="358.1,207 355.4,207 356.2,209.3 358.9,209.3 			"/>
			<polygon class="st2" points="361.4,207 358.7,207 359.5,209.3 362.2,209.3 			"/>
			<polygon class="st2" points="364.6,207 361.9,207 362.7,209.3 365.4,209.3 			"/>
		</g>
		<g>
			<polygon class="st2" points="350,203.8 347.3,203.8 348.1,206 350.8,206 			"/>
			<polygon class="st2" points="353.6,203.8 350.9,203.8 351.7,206 354.4,206 			"/>
			<polygon class="st2" points="357,203.8 354.3,203.8 355.1,206 357.7,206 			"/>
			<polygon class="st2" points="360.3,203.8 357.6,203.8 358.4,206 361.1,206 			"/>
			<polygon class="st2" points="363.4,203.8 360.8,203.8 361.5,206 364.2,206 			"/>
		</g>
		<g>
			<polygon class="st2" points="348.9,200.5 346.2,200.5 347,202.8 349.7,202.8 			"/>
			<polygon class="st2" points="352.4,200.5 349.8,200.5 350.6,202.8 353.2,202.8 			"/>
			<polygon class="st2" points="355.8,200.5 353.1,200.5 353.9,202.8 356.6,202.8 			"/>
			<polygon class="st2" points="359.2,200.5 356.5,200.5 357.3,202.8 359.9,202.8 			"/>
			<polygon class="st2" points="362.3,200.5 359.6,200.5 360.4,202.8 363.1,202.8 			"/>
		</g>
		<g>
			<polygon class="st2" points="343.8,185.8 341.1,185.8 341.9,188.1 344.6,188.1 			"/>
			<polygon class="st2" points="347.3,185.8 344.7,185.8 345.5,188.1 348.1,188.1 			"/>
			<polygon class="st2" points="350.7,185.8 348,185.8 348.8,188.1 351.5,188.1 			"/>
			<polygon class="st2" points="354.1,185.8 351.4,185.8 352.2,188.1 354.8,188.1 			"/>
			<polygon class="st2" points="357.2,185.8 354.5,185.8 355.3,188.1 358,188.1 			"/>
		</g>
		<g>
			<polygon class="st2" points="345.6,190.9 342.9,190.9 343.7,193.2 346.4,193.2 			"/>
			<polygon class="st2" points="349.1,190.9 346.4,190.9 347.2,193.2 349.9,193.2 			"/>
			<polygon class="st2" points="352.5,190.9 349.8,190.9 350.6,193.2 353.3,193.2 			"/>
			<polygon class="st2" points="355.8,190.9 353.2,190.9 353.9,193.2 356.6,193.2 			"/>
			<polygon class="st2" points="359,190.9 356.3,190.9 357.1,193.2 359.8,193.2 			"/>
		</g>
		<polygon class="st2" points="369.4,197.7 366.7,197.7 367.5,200 370.2,200 		"/>
		<polygon class="st2" points="368.3,194.5 365.6,194.5 366.4,196.7 369.1,196.7 		"/>
		<polygon class="st2" points="367.1,191.2 364.4,191.2 365.2,193.5 367.9,193.5 		"/>
		<polygon class="st2" points="366,187.9 363.3,187.9 364.1,190.2 366.8,190.2 		"/>
		<polygon class="st2" points="364.9,184.7 362.2,184.7 363,186.9 365.7,186.9 		"/>
		<path class="st2" d="M364.5,183.7h-2.7l-0.5-1.4c0.2,0,0.4,0,0.6-0.1c0.6-0.1,1.3-0.1,2-0.2L364.5,183.7z"/>
		<g>
			<path class="st2" d="M343.4,184.8h-2.7l-0.1-0.2c0.8-0.1,1.7-0.2,2.6-0.3L343.4,184.8z"/>
			<path class="st2" d="M347,184.8h-2.7l-0.2-0.6c0.6-0.1,1.2-0.1,1.8-0.2c0.3,0,0.5-0.1,0.8-0.1L347,184.8z"/>
			<path class="st2" d="M350.4,184.8h-2.7l-0.4-1c0.9-0.1,1.7-0.2,2.6-0.3L350.4,184.8z"/>
			<path class="st2" d="M353.7,184.8H351l-0.5-1.4c0.8-0.1,1.7-0.2,2.6-0.3L353.7,184.8z"/>
			<path class="st2" d="M356.9,184.8h-2.7l-0.6-1.7c0.9-0.1,1.7-0.2,2.6-0.3L356.9,184.8z"/>
		</g>
		<path class="st2" d="M637.5,201.6h-11.6l4.2,12.1H622l3.7,10.7h-5.5l1.5,4.3h-5.8L614,232l-4.1-3h-5.7l-16.6-47.9
			c1.5,0.1,2.9,0.2,4.4,0.3c16,1.2,35.5,3.3,58.6,7.1l1.5,5.9H635L637.5,201.6z"/>
		<g>
			<g>
				<polygon class="st2" points="490.9,233.1 488.2,233.1 489,235.4 491.7,235.4 				"/>
				<polygon class="st2" points="494.5,233.1 491.8,233.1 492.6,235.4 495.3,235.4 				"/>
				<polygon class="st2" points="497.9,233.1 495.2,233.1 496,235.4 498.7,235.4 				"/>
				<polygon class="st2" points="501.2,233.1 498.5,233.1 499.3,235.4 502,235.4 				"/>
				<polygon class="st2" points="504.4,233.1 501.7,233.1 502.5,235.4 505.1,235.4 				"/>
			</g>
			<g>
				<polygon class="st2" points="489.8,229.9 487.1,229.9 487.9,232.1 490.6,232.1 				"/>
				<polygon class="st2" points="493.4,229.9 490.7,229.9 491.5,232.1 494.1,232.1 				"/>
				<polygon class="st2" points="496.7,229.9 494.1,229.9 494.8,232.1 497.5,232.1 				"/>
				<polygon class="st2" points="500.1,229.9 497.4,229.9 498.2,232.1 500.9,232.1 				"/>
				<polygon class="st2" points="503.2,229.9 500.5,229.9 501.3,232.1 504,232.1 				"/>
			</g>
			<g>
				<polygon class="st2" points="488.7,226.6 486,226.6 486.8,228.9 489.5,228.9 				"/>
				<polygon class="st2" points="492.2,226.6 489.5,226.6 490.3,228.9 493,228.9 				"/>
				<polygon class="st2" points="495.6,226.6 492.9,226.6 493.7,228.9 496.4,228.9 				"/>
				<polygon class="st2" points="498.9,226.6 496.3,226.6 497,228.9 499.7,228.9 				"/>
				<polygon class="st2" points="502.1,226.6 499.4,226.6 500.2,228.9 502.9,228.9 				"/>
			</g>
			<g>
				<polygon class="st2" points="487.5,223.3 484.8,223.3 485.6,225.6 488.3,225.6 				"/>
				<polygon class="st2" points="491.1,223.3 488.4,223.3 489.2,225.6 491.9,225.6 				"/>
				<polygon class="st2" points="494.5,223.3 491.8,223.3 492.6,225.6 495.3,225.6 				"/>
				<polygon class="st2" points="497.8,223.3 495.1,223.3 495.9,225.6 498.6,225.6 				"/>
				<polygon class="st2" points="501,223.3 498.3,223.3 499.1,225.6 501.7,225.6 				"/>
			</g>
			<g>
				<polygon class="st2" points="486.4,220.1 483.7,220.1 484.5,222.3 487.2,222.3 				"/>
				<polygon class="st2" points="490,220.1 487.3,220.1 488.1,222.3 490.8,222.3 				"/>
				<polygon class="st2" points="493.3,220.1 490.7,220.1 491.4,222.3 494.1,222.3 				"/>
				<polygon class="st2" points="496.7,220.1 494,220.1 494.8,222.3 497.5,222.3 				"/>
				<polygon class="st2" points="499.8,220.1 497.1,220.1 497.9,222.3 500.6,222.3 				"/>
			</g>
			<g>
				<polygon class="st2" points="485.3,216.8 482.6,216.8 483.4,219.1 486.1,219.1 				"/>
				<polygon class="st2" points="488.8,216.8 486.1,216.8 486.9,219.1 489.6,219.1 				"/>
				<polygon class="st2" points="492.2,216.8 489.5,216.8 490.3,219.1 493,219.1 				"/>
				<polygon class="st2" points="495.5,216.8 492.9,216.8 493.6,219.1 496.3,219.1 				"/>
				<polygon class="st2" points="498.7,216.8 496,216.8 496.8,219.1 499.5,219.1 				"/>
			</g>
			<g>
				<polygon class="st2" points="484.1,213.5 481.4,213.5 482.2,215.8 484.9,215.8 				"/>
				<polygon class="st2" points="487.7,213.5 485,213.5 485.8,215.8 488.5,215.8 				"/>
				<polygon class="st2" points="491.1,213.5 488.4,213.5 489.2,215.8 491.9,215.8 				"/>
				<polygon class="st2" points="494.4,213.5 491.7,213.5 492.5,215.8 495.2,215.8 				"/>
				<polygon class="st2" points="497.6,213.5 494.9,213.5 495.7,215.8 498.3,215.8 				"/>
			</g>
			<g>
				<polygon class="st2" points="483,210.3 480.3,210.3 481.1,212.6 483.8,212.6 				"/>
				<polygon class="st2" points="486.6,210.3 483.9,210.3 484.7,212.6 487.4,212.6 				"/>
				<polygon class="st2" points="489.9,210.3 487.3,210.3 488,212.6 490.7,212.6 				"/>
				<polygon class="st2" points="493.3,210.3 490.6,210.3 491.4,212.6 494.1,212.6 				"/>
				<polygon class="st2" points="496.4,210.3 493.7,210.3 494.5,212.6 497.2,212.6 				"/>
			</g>
			<g>
				<polygon class="st2" points="481.9,207 479.2,207 480,209.3 482.7,209.3 				"/>
				<polygon class="st2" points="485.4,207 482.7,207 483.5,209.3 486.2,209.3 				"/>
				<polygon class="st2" points="488.8,207 486.1,207 486.9,209.3 489.6,209.3 				"/>
				<polygon class="st2" points="492.1,207 489.5,207 490.2,209.3 492.9,209.3 				"/>
				<polygon class="st2" points="495.3,207 492.6,207 493.4,209.3 496.1,209.3 				"/>
			</g>
			<g>
				<polygon class="st2" points="480.7,203.8 478,203.8 478.8,206 481.5,206 				"/>
				<polygon class="st2" points="484.3,203.8 481.6,203.8 482.4,206 485.1,206 				"/>
				<polygon class="st2" points="487.7,203.8 485,203.8 485.8,206 488.5,206 				"/>
				<polygon class="st2" points="491,203.8 488.3,203.8 489.1,206 491.8,206 				"/>
				<polygon class="st2" points="494.2,203.8 491.5,203.8 492.3,206 494.9,206 				"/>
			</g>
			<g>
				<polygon class="st2" points="479.6,200.5 476.9,200.5 477.7,202.8 480.4,202.8 				"/>
				<polygon class="st2" points="483.2,200.5 480.5,200.5 481.3,202.8 484,202.8 				"/>
				<polygon class="st2" points="486.5,200.5 483.9,200.5 484.6,202.8 487.3,202.8 				"/>
				<polygon class="st2" points="489.9,200.5 487.2,200.5 488,202.8 490.7,202.8 				"/>
				<polygon class="st2" points="493,200.5 490.3,200.5 491.1,202.8 493.8,202.8 				"/>
			</g>
			<g>
				<polygon class="st2" points="478.5,197.2 475.8,197.2 476.6,199.5 479.3,199.5 				"/>
				<polygon class="st2" points="482,197.2 479.3,197.2 480.1,199.5 482.8,199.5 				"/>
				<polygon class="st2" points="485.4,197.2 482.7,197.2 483.5,199.5 486.2,199.5 				"/>
				<polygon class="st2" points="488.7,197.2 486.1,197.2 486.8,199.5 489.5,199.5 				"/>
				<polygon class="st2" points="491.9,197.2 489.2,197.2 490,199.5 492.7,199.5 				"/>
			</g>
			<g>
				<polygon class="st2" points="477.3,194 474.6,194 475.4,196.2 478.1,196.2 				"/>
				<polygon class="st2" points="480.9,194 478.2,194 479,196.2 481.7,196.2 				"/>
				<polygon class="st2" points="484.3,194 481.6,194 482.4,196.2 485.1,196.2 				"/>
				<polygon class="st2" points="487.6,194 484.9,194 485.7,196.2 488.4,196.2 				"/>
				<polygon class="st2" points="490.8,194 488.1,194 488.9,196.2 491.5,196.2 				"/>
			</g>
			<g>
				<polygon class="st2" points="476.2,190.7 473.5,190.7 474.3,193 477,193 				"/>
				<polygon class="st2" points="479.8,190.7 477.1,190.7 477.9,193 480.6,193 				"/>
				<polygon class="st2" points="483.1,190.7 480.5,190.7 481.2,193 483.9,193 				"/>
				<polygon class="st2" points="486.5,190.7 483.8,190.7 484.6,193 487.3,193 				"/>
				<polygon class="st2" points="489.6,190.7 486.9,190.7 487.7,193 490.4,193 				"/>
			</g>
		</g>
		<path class="st2" d="M374.2,217.4L374.2,217.4l-1,1l-0.4,0.4l-0.1-0.4l-0.3-1l-0.6-1.6l-0.2-0.6l-0.3-1l-0.8-2.3l-0.3-1l-0.8-2.3
			l-9.1-26.2c0.4,0,0.8-0.1,1.3-0.1c0.2,0,0.4,0,0.6-0.1l0.5,1.5l0.4,1l0.8,2.3l0.3,1l0.8,2.3l0.3,1l0.8,2.3l0.3,1l0.8,2.3l0.3,1
			l0.8,2.3l3,8.7l0.8,2.3l0.3,1l0.8,2.3l0.3,1l0.2,0.6L374.2,217.4z"/>
		<path class="st2" d="M555.3,215.9l3.8,10.8H543l1.8,5H530l-6.2-17.8L513.4,184c4.2-0.3,8-0.6,11.2-1c5.8-0.6,9.8-1.3,11.2-1.5
			c0.4-0.1,0.6-0.1,0.6-0.1s3.5-0.5,10.5-0.9l12.3,35.3L555.3,215.9L555.3,215.9z"/>
		<path class="st2" d="M586.7,234.1l-18.4,8h-11.4l-2.8-8l-2.6-7.4l-15.7-45.2c0.4-0.1,0.6-0.1,0.6-0.1s3.5-0.5,10.5-0.9
			c4.7-0.2,11-0.4,18.9-0.3c0.8,0,1.5,0,2.3,0L586.7,234.1L586.7,234.1z"/>
		<path class="st2" d="M605.7,270.2l-4.7-13.5l-7.8-22.6h-8.8l-18.6-53.7c0.8,0,1.5,0,2.3,0c5.7,0.1,12.2,0.4,19.5,0.8
			c1.5,0.1,2.9,0.2,4.4,0.3l8.6,24.7l-1.2,2l2.3,6.7l-1.3,3.1l3.9,11.1l1.7,5h-5.4l4.3,12.5l-1.3,0.2l1.2,3.5h-1.4l2.6,7.6l-1.3,0.1
			l2.9,8.5c-0.1-0.1-1.2-0.4,0.3,3.9C608.9,274.6,605.7,270.2,605.7,270.2z"/>
		<g>
			<g>
				<polygon class="st2" points="587.1,226.8 584.4,226.8 585.2,229.1 587.9,229.1 				"/>
				<polygon class="st2" points="590.6,226.8 588,226.8 588.8,229.1 591.4,229.1 				"/>
				<polygon class="st2" points="594,226.8 591.3,226.8 592.1,229.1 594.8,229.1 				"/>
				<polygon class="st2" points="597.4,226.8 594.7,226.8 595.5,229.1 598.2,229.1 				"/>
				<polygon class="st2" points="600.5,226.8 597.8,226.8 598.6,229.1 601.3,229.1 				"/>
			</g>
			<g>
				<polygon class="st2" points="586,223.5 583.3,223.5 584.1,225.8 586.7,225.8 				"/>
				<polygon class="st2" points="589.5,223.5 586.8,223.5 587.6,225.8 590.3,225.8 				"/>
				<polygon class="st2" points="592.9,223.5 590.2,223.5 591,225.8 593.7,225.8 				"/>
				<polygon class="st2" points="596.2,223.5 593.5,223.5 594.3,225.8 597,225.8 				"/>
				<polygon class="st2" points="599.4,223.5 596.7,223.5 597.5,225.8 600.2,225.8 				"/>
			</g>
			<g>
				<polygon class="st2" points="584.8,220.3 582.1,220.3 582.9,222.6 585.6,222.6 				"/>
				<polygon class="st2" points="588.4,220.3 585.7,220.3 586.5,222.6 589.2,222.6 				"/>
				<polygon class="st2" points="591.8,220.3 589.1,220.3 589.9,222.6 592.6,222.6 				"/>
				<polygon class="st2" points="595.1,220.3 592.4,220.3 593.2,222.6 595.9,222.6 				"/>
				<polygon class="st2" points="598.2,220.3 595.6,220.3 596.3,222.6 599,222.6 				"/>
			</g>
			<g>
				<polygon class="st2" points="583.7,217 581,217 581.8,219.3 584.5,219.3 				"/>
				<polygon class="st2" points="587.2,217 584.6,217 585.4,219.3 588,219.3 				"/>
				<polygon class="st2" points="590.6,217 587.9,217 588.7,219.3 591.4,219.3 				"/>
				<polygon class="st2" points="594,217 591.3,217 592.1,219.3 594.8,219.3 				"/>
				<polygon class="st2" points="597.1,217 594.4,217 595.2,219.3 597.9,219.3 				"/>
			</g>
			<g>
				<polygon class="st2" points="582.6,213.8 579.9,213.8 580.7,216 583.3,216 				"/>
				<polygon class="st2" points="586.1,213.8 583.4,213.8 584.2,216 586.9,216 				"/>
				<polygon class="st2" points="589.5,213.8 586.8,213.8 587.6,216 590.3,216 				"/>
				<polygon class="st2" points="592.8,213.8 590.1,213.8 590.9,216 593.6,216 				"/>
				<polygon class="st2" points="596,213.8 593.3,213.8 594.1,216 596.8,216 				"/>
			</g>
			<g>
				<polygon class="st2" points="581.4,210.5 578.7,210.5 579.5,212.8 582.2,212.8 				"/>
				<polygon class="st2" points="585,210.5 582.3,210.5 583.1,212.8 585.8,212.8 				"/>
				<polygon class="st2" points="588.4,210.5 585.7,210.5 586.5,212.8 589.2,212.8 				"/>
				<polygon class="st2" points="591.7,210.5 589,210.5 589.8,212.8 592.5,212.8 				"/>
				<polygon class="st2" points="594.8,210.5 592.2,210.5 592.9,212.8 595.6,212.8 				"/>
			</g>
			<g>
				<polygon class="st2" points="580.3,207.2 577.6,207.2 578.4,209.5 581.1,209.5 				"/>
				<polygon class="st2" points="583.8,207.2 581.2,207.2 582,209.5 584.6,209.5 				"/>
				<polygon class="st2" points="587.2,207.2 584.5,207.2 585.3,209.5 588,209.5 				"/>
				<polygon class="st2" points="590.6,207.2 587.9,207.2 588.7,209.5 591.4,209.5 				"/>
				<polygon class="st2" points="593.7,207.2 591,207.2 591.8,209.5 594.5,209.5 				"/>
			</g>
			<g>
				<polygon class="st2" points="579.2,204 576.5,204 577.3,206.2 579.9,206.2 				"/>
				<polygon class="st2" points="582.7,204 580,204 580.8,206.2 583.5,206.2 				"/>
				<polygon class="st2" points="586.1,204 583.4,204 584.2,206.2 586.9,206.2 				"/>
				<polygon class="st2" points="589.4,204 586.7,204 587.5,206.2 590.2,206.2 				"/>
				<polygon class="st2" points="592.6,204 589.9,204 590.7,206.2 593.4,206.2 				"/>
			</g>
			<g>
				<polygon class="st2" points="578,200.7 575.3,200.7 576.1,203 578.8,203 				"/>
				<polygon class="st2" points="581.6,200.7 578.9,200.7 579.7,203 582.4,203 				"/>
				<polygon class="st2" points="585,200.7 582.3,200.7 583.1,203 585.8,203 				"/>
				<polygon class="st2" points="588.3,200.7 585.6,200.7 586.4,203 589.1,203 				"/>
				<polygon class="st2" points="591.4,200.7 588.8,200.7 589.5,203 592.2,203 				"/>
			</g>
			<g>
				<polygon class="st2" points="576.9,197.4 574.2,197.4 575,199.7 577.7,199.7 				"/>
				<polygon class="st2" points="580.4,197.4 577.8,197.4 578.6,199.7 581.2,199.7 				"/>
				<polygon class="st2" points="583.8,197.4 581.1,197.4 581.9,199.7 584.6,199.7 				"/>
				<polygon class="st2" points="587.2,197.4 584.5,197.4 585.3,199.7 588,199.7 				"/>
				<polygon class="st2" points="590.3,197.4 587.6,197.4 588.4,199.7 591.1,199.7 				"/>
			</g>
			<g>
				<polygon class="st2" points="575.8,194.2 573.1,194.2 573.9,196.4 576.5,196.4 				"/>
				<polygon class="st2" points="579.3,194.2 576.6,194.2 577.4,196.4 580.1,196.4 				"/>
				<polygon class="st2" points="582.7,194.2 580,194.2 580.8,196.4 583.5,196.4 				"/>
				<polygon class="st2" points="586,194.2 583.3,194.2 584.1,196.4 586.8,196.4 				"/>
				<polygon class="st2" points="589.2,194.2 586.5,194.2 587.3,196.4 590,196.4 				"/>
			</g>
			<g>
				<polygon class="st2" points="574.6,190.9 571.9,190.9 572.7,193.2 575.4,193.2 				"/>
				<polygon class="st2" points="578.2,190.9 575.5,190.9 576.3,193.2 579,193.2 				"/>
				<polygon class="st2" points="581.6,190.9 578.9,190.9 579.7,193.2 582.4,193.2 				"/>
				<polygon class="st2" points="584.9,190.9 582.2,190.9 583,193.2 585.7,193.2 				"/>
				<polygon class="st2" points="588,190.9 585.4,190.9 586.1,193.2 588.8,193.2 				"/>
			</g>
			<g>
				<polygon class="st2" points="573.5,187.6 570.8,187.6 571.6,189.9 574.3,189.9 				"/>
				<polygon class="st2" points="577,187.6 574.4,187.6 575.2,189.9 577.8,189.9 				"/>
				<polygon class="st2" points="580.4,187.6 577.7,187.6 578.5,189.9 581.2,189.9 				"/>
				<polygon class="st2" points="583.8,187.6 581.1,187.6 581.9,189.9 584.6,189.9 				"/>
				<polygon class="st2" points="586.9,187.6 584.2,187.6 585,189.9 587.7,189.9 				"/>
			</g>
			<g>
				<polygon class="st2" points="572.4,184.4 569.7,184.4 570.5,186.7 573.1,186.7 				"/>
				<polygon class="st2" points="575.9,184.4 573.2,184.4 574,186.7 576.7,186.7 				"/>
				<polygon class="st2" points="579.3,184.4 576.6,184.4 577.4,186.7 580.1,186.7 				"/>
				<polygon class="st2" points="582.6,184.4 579.9,184.4 580.7,186.7 583.4,186.7 				"/>
				<polygon class="st2" points="585.8,184.4 583.1,184.4 583.9,186.7 586.6,186.7 				"/>
			</g>
		</g>
		<path class="st2" d="M513.7,249.6L513.7,249.6c0.1,0.4,0.4,0.6,0.5,0.6h28c0.2,0,0.2-0.3,0.1-0.6l0,0c-0.1-0.4-0.4-0.6-0.5-0.6
			h-28C513.6,248.9,513.6,249.2,513.7,249.6z"/>
	</g>
	<rect x="681.7" y="261" class="st7" width="4.7" height="50"/>
	<g>
		<polygon class="st11" points="689.8,317.6 685.4,317.6 681.1,308.2 685.5,308.2 		"/>
		<path class="st2" d="M709.7,305.6h-52.9c-1.3,0-2,1.1-1.6,2.5l0.3,1.2c0.4,1.4,1.7,2.5,3,2.5h52.9c1.3,0,2-1.1,1.6-2.5l-0.3-1.2
			C712.3,306.8,711,305.6,709.7,305.6z"/>
		<g>
			<path class="st11" d="M688.4,317.6h39.8c1.5,0,2.3,0.6,1.1,0.8l-16.3,2.8l-20.6,3.5c-0.4,0.1-0.9,0.1-1.4,0l-23.9-3.5l-18.9-2.8
				c-1.5-0.2-1.3-0.8,0.3-0.8H688.4z"/>
			<g>
				<polygon class="st11" points="670.3,317.6 688.1,324.3 686.1,324 664.4,317.6 				"/>
				<polygon class="st11" points="690.9,324.7 689.2,324.4 674.9,317.6 684,317.6 				"/>
				<path class="st11" d="M729.5,318.4c-0.1,0-0.2,0.1-0.3,0.1l-0.6,0.1L729.5,318.4z"/>
				<path class="st11" d="M692.2,324.7c-0.1,0-0.3,0-0.5,0l0.3-7.1h8.4L692.2,324.7z"/>
				<polygon class="st11" points="696.9,323.9 717.1,317.6 725.2,317.6 704.1,322.7 				"/>
				<polygon class="st11" points="694.8,324.3 692.9,324.6 705,317.6 711.3,317.6 				"/>
				<polygon class="st11" points="683.1,323.5 675.8,322.5 651.1,317.6 658.6,317.6 				"/>
			</g>
		</g>
	</g>
	<path class="st8" d="M710.3,311h-52.5c-2.4,0-4.3-2-4.3-4.3v-10.5c0-2.4,2-4.3,4.3-4.3h52.5c2.4,0,4.3,2,4.3,4.3v10.5
		C714.6,309,712.7,311,710.3,311z"/>
	<g>
		<path class="st8" d="M684.8,261h42.3c1.6,0,2.2-3.3,0.7-4.5l-18.7-14.6l-23.7-18.6c-0.5-0.4-1-0.4-1.4,0l-23.7,18.6l-18.7,14.6
			c-1.5,1.1-0.9,4.5,0.7,4.5H684.8z"/>
		<g>
			<polygon class="st14" points="665.6,261 681.2,225.5 679.2,227.1 659.3,261 			"/>
			<polygon class="st14" points="684,223.3 682.3,224.7 670.5,261 680.2,261 			"/>
			<path class="st14" d="M728.2,256.9c-0.1-0.1-0.2-0.3-0.4-0.4l-0.7-0.6L728.2,256.9z"/>
			<path class="st14" d="M685.4,223.2c-0.2-0.1-0.3-0.2-0.5-0.2l3.9,37.9h8.9L685.4,223.2z"/>
			<polygon class="st14" points="690.8,227.4 715.4,261 724,261 699.1,233.9 			"/>
			<polygon class="st14" points="688.3,225.5 686.1,223.8 702.5,261 709.2,261 			"/>
			<polygon class="st14" points="676.3,229.4 669,235.1 645.2,261 653.1,261 			"/>
		</g>
	</g>
	<path class="st15" d="M828.6,231c-0.1,0-0.2,0-0.3,0.1c-0.1-0.2-0.2-0.3-0.3-0.5C828.2,230.7,828.4,230.8,828.6,231z"/>
	<g>
		<path class="st8" d="M817.1,265.7c0,1.2-0.3,2.4-1,3.4c-2.3,3.9-8.5,6.7-15.7,6.7c-1.3,0-2.5-0.1-3.7-0.3l0,0
			c-0.5,0.2-0.9,0.4-0.9,0.4v2.8l0.1,23l1,6.3v2.2c0,0-0.1,0.6-0.6,0.7s-5.7-0.1-5.7-0.1v-2.5c0,0,0-2.8,0-3.2
			c0-0.4,0.4-3.2,0.4-3.2s0-2.9,0-3.1s0.3-4.4,0.1-4.7c-0.2-0.3,0-4.8,0-5.7c0-0.6-0.9-6.2-1.8-9.7c-0.4-1.7-0.8-2.9-1.1-2.9
			c-0.2,0-0.5-0.2-0.9-0.3c-1,0.2-2,0.3-3.1,0.3c-7.1,0-13-4.1-14.5-9.6c-0.2-0.9-0.3-1.7-0.3-2.6c0-3.6,1.8-6.8,4.8-9
			c0-6.1,6.9-11,15.4-11c4.9,0,9.3,1.6,12.1,4.2c7.6,1.4,13.2,5.7,13.2,10.7c0,0.7-0.1,1.3-0.3,1.9
			C816.2,262,817.1,263.8,817.1,265.7z"/>
		<path class="st16" d="M816.1,269.1c-2.3,3.9-8.5,6.7-15.7,6.7c-1.3,0-2.5-0.1-3.7-0.3l0,0c-0.5,0.2-0.9,0.4-0.9,0.4v2.8
			c-1.1,0.1-7.3-2.8-7.6-2.9c-0.2,0-0.5-0.2-0.9-0.3c-1,0.2-2,0.3-3.1,0.3c-7.1,0-13-4.1-14.5-9.6c0.8-1,0.9-3.2,3.4-2.8
			c2.5,0.3,11.3-7.4,19.2-4s14.2-1.3,16.6,2.6C812.4,262.6,816.6,263.4,816.1,269.1z"/>
		<path class="st9" d="M809.9,260.7c0-3.4-4.5-6.1-10.1-6.1c-1.1,0-2.1,0.1-3,0.3c-1.5-2.2-5.1-3.8-9.4-3.8
			c-5.6,0-10.1,2.7-10.1,6.1c0,0.5,0.1,1,0.3,1.4c-4.6,0.6-8.1,3-8.1,5.9c0,2.1,1.7,3.9,4.3,5c1.7,2,5.1,3.3,9,3.3
			c2.3,0,4.5-0.5,6.2-1.3c1.9,1.3,4.5,2.1,7.3,2.1c5.8,0,10.6-3.4,10.6-7.6c0-0.3,0-0.7-0.1-1C808.7,264,809.9,262.4,809.9,260.7z
			 M790.4,263c-0.1-0.1-0.1-0.2-0.2-0.3c0.1,0.1,0.3,0.2,0.4,0.3C790.5,263,790.5,263,790.4,263z"/>
		<path class="st9" d="M816.6,256.8c0-3.4-4.5-6.1-10.1-6.1c-1.1,0-2.1,0.1-3,0.3c-1.5-2.2-5.1-3.8-9.4-3.8
			c-5.6,0-10.1,2.7-10.1,6.1c0,0.5,0.1,1,0.3,1.4c-4.6,0.6-8.1,3-8.1,5.9c0,2.1,1.7,3.9,4.3,5c1.7,2,5.1,3.3,9,3.3
			c2.3,0,4.5-0.5,6.2-1.3c1.9,1.3,4.5,2.1,7.3,2.1c5.8,0,10.6-3.4,10.6-7.6c0-0.3,0-0.7-0.1-1C815.4,260.1,816.6,258.5,816.6,256.8z
			 M797.1,259.1c-0.1-0.1-0.1-0.2-0.2-0.3c0.1,0.1,0.3,0.2,0.4,0.3C797.2,259.1,797.2,259.1,797.1,259.1z"/>
	</g>
	<path class="st2" d="M312.6,231.6c0,2-0.6,4-1.7,5.8c-4,6.6-14.5,11.4-26.9,11.4c-2.2,0-4.3-0.1-6.3-0.4l0,0
		c-0.8,0.3-1.5,0.7-1.5,0.7v4.8l0.1,39.3L278,304v3.8c0,0-0.2,1-1,1.1s-9.7-0.2-9.7-0.2v-4.2c0,0,0-4.8,0-5.5s0.7-5.5,0.7-5.5
		s0-4.9,0-5.2c0-0.3,0.4-7.6,0.1-8.1s0-8.3,0-9.7c0-1-1.6-10.5-3.1-16.5c-0.7-2.8-1.4-4.9-1.9-5c-0.4,0-0.9-0.3-1.5-0.5
		c-1.7,0.3-3.5,0.5-5.3,0.5c-12.1,0-22.3-7-24.8-16.4c-0.4-1.5-0.6-3-0.6-4.5c0-6.1,3.1-11.6,8.2-15.4c0.1-10.4,11.9-18.8,26.4-18.8
		c8.4,0,15.9,2.8,20.7,7.2c13.1,2.4,22.6,9.7,22.6,18.3c0,1.1-0.2,2.2-0.5,3.3C311.1,225.3,312.6,228.3,312.6,231.6z"/>
	<path class="st16" d="M310.9,237.5c-4,6.6-14.5,11.4-26.9,11.4c-2.2,0-4.3-0.1-6.3-0.4l0,0c-0.8,0.3-1.5,0.7-1.5,0.7v4.8
		c-1.9,0.1-12.5-4.9-13-4.9c-0.4,0-0.9-0.3-1.5-0.5c-1.7,0.3-3.5,0.5-5.3,0.5c-12.1,0-22.3-7-24.8-16.4c1.3-1.8,1.6-5.4,5.9-4.8
		c4.3,0.6,19.3-12.7,32.8-6.9s24.2-2.2,28.4,4.4C304.5,226.4,311.8,227.7,310.9,237.5z"/>
	<path class="st9" d="M300.3,223.2c0-5.7-7.7-10.4-17.3-10.4c-1.8,0-3.5,0.2-5.2,0.5c-2.6-3.8-8.8-6.5-16-6.5
		c-9.5,0-17.3,4.6-17.3,10.4c0,0.8,0.2,1.6,0.5,2.4c-7.9,1-13.9,5.2-13.9,10.2c0,3.5,2.9,6.6,7.3,8.5c2.9,3.4,8.7,5.7,15.4,5.7
		c4,0,7.7-0.8,10.7-2.2c3.3,2.2,7.7,3.6,12.5,3.6c10,0,18.1-5.8,18.1-13c0-0.6,0-1.2-0.2-1.7C298.3,228.7,300.3,226.1,300.3,223.2z
		 M267,227.1c-0.1-0.2-0.2-0.4-0.3-0.5c0.2,0.2,0.5,0.3,0.7,0.5C267.2,227,267.1,227,267,227.1z"/>
	<path class="st10" d="M202,215.8c-2.7,0.5-50.9,19.2-53.2,21.6c0.5,1.1,4,3.8,7.5,3.2c0.8,1.9,9,0.4,18.3-3.4
		c5.4-2.2,9.9-4.7,12.7-6.8c8.2-3.9,13.7-7.7,13-9.3c-0.1-0.2-0.3-0.4-0.6-0.5C201.2,219.4,202.2,216.4,202,215.8z"/>
	<path class="st15" d="M828.6,231c-0.1,0-0.2,0-0.3,0.1c-0.1-0.2-0.2-0.3-0.3-0.5C828.2,230.7,828.4,230.8,828.6,231z"/>
	<path class="st15" d="M828.6,231c-0.1,0-0.2,0-0.3,0.1c-0.1-0.2-0.2-0.3-0.3-0.5C828.2,230.7,828.4,230.8,828.6,231z"/>
	<path class="st15" d="M828.6,231c-0.1,0-0.2,0-0.3,0.1c-0.1-0.2-0.2-0.3-0.3-0.5C828.2,230.7,828.4,230.8,828.6,231z"/>
	<path class="st6" d="M491,58.3L491,58.3c0-0.6,0.5-1.1,1.1-1.1h26.4c0.6,0,1.1,0.5,1.1,1.1l0,0c0,0.6-0.5,1.1-1.1,1.1H492
		C491.4,59.4,491,58.9,491,58.3z"/>
	<path class="st7" d="M641.5,293.7v17.1c0,0.1,0,0.1,0,0.2h-9.9c-0.3,0-0.6,0-0.9,0.1v-12.3c0-1.6,0.9-2.9,2.1-3.7v-1.3
		c0-2.4,1.9-4.3,4.3-4.3c1.2,0,2.3,0.5,3,1.3C641,291.4,641.5,292.5,641.5,293.7z"/>
	<polygon class="st13" points="784.6,313.4 784.1,312.9 781.6,312.9 779.8,311 773.4,311 775.2,312.9 752.8,312.9 751.1,311 
		744.5,311 746.3,312.9 744.5,312.9 744.9,313.4 	"/>
	<path class="st11" d="M845.4,329.5c-0.1,0-0.2,0-0.3,0s-0.1,0.1-0.2,0.1C845.1,329.6,845.2,329.6,845.4,329.5z"/>
	<g>
		<path class="st11" d="M826.5,321.3c-0.2-0.3-0.8-0.5-1.7-0.8c-3.1-0.9-9.9-1.5-17.1-1.5c-1.3,0-2.5,0-3.6,0.1l0,0
			c-0.5,0-1-0.1-1-0.1l-0.6-0.6l-4.7-5.2l-0.3-1.4l-0.5-0.5c0,0-0.2-0.1-0.7-0.2c-0.5,0-5.7,0-5.7,0l0.5,0.6c0,0,0.6,0.6,0.7,0.7
			c0.1,0.1,1.1,0.7,1.1,0.7l0.6,0.7c0,0,1.2,1,1.1,1.1c-0.1,0.1,1,1.1,1.2,1.3c0.1,0.1,0.4,1.4,0.2,2.2c-0.1,0.4-0.2,0.7-0.5,0.7
			c-0.2,0-0.5,0-0.8,0.1c-1,0-2.1-0.1-3.2-0.1c-7.1,0-12.2,0.9-12.5,2.2c0,0.2,0,0.4,0.2,0.6c0.7,0.8,3.2,1.5,6.6,2.1
			c1.3,1.4,9.2,2.5,17.7,2.5c4.9,0,8.9-0.4,11.2-1c7.4-0.3,12-1.3,11-2.4c-0.1-0.2-0.4-0.3-0.7-0.4
			C826.3,322.1,826.9,321.7,826.5,321.3z"/>
		<path class="st11" d="M824.8,320.5c-3.1-0.9-9.9-1.5-17.1-1.5c-1.3,0-2.5,0-3.6,0.1l0,0c-0.5,0-1-0.1-1-0.1l-0.6-0.6
			c-1.1,0-6.7,0.6-7,0.7c-0.2,0-0.5,0-0.8,0.1c-1,0-2.1-0.1-3.2-0.1c-7.1,0-12.2,0.9-12.5,2.2c1,0.2,1.6,0.7,4,0.6
			c2.5-0.1,12.8,1.7,20.1,0.9c7.2-0.8,14.4,0.3,16.1-0.6C822.4,322,826.5,321.8,824.8,320.5z"/>
		<path class="st11" d="M820.3,322.4c0.7,0.8-3.3,1.4-8.9,1.4c-1.1,0-2.1,0-3.1-0.1c-1,0.5-4.3,0.9-8.6,0.9
			c-5.6,0-10.7-0.6-11.4-1.4c-0.1-0.1-0.1-0.2,0-0.3c-4.7-0.1-8.7-0.7-9.3-1.4c-0.4-0.5,0.9-0.9,3.3-1.1c1.3-0.4,4.4-0.8,8.3-0.8
			c2.3,0,4.6,0.1,6.5,0.3c1.6-0.3,4-0.5,6.9-0.5c5.8,0,11.3,0.8,12.2,1.7c0.1,0.1,0.1,0.2,0.1,0.2
			C818.4,321.7,819.9,322,820.3,322.4z M800.3,321.9c-0.1,0-0.1,0-0.1,0.1c0.1,0,0.2,0,0.3-0.1C800.5,321.9,800.4,321.9,800.3,321.9
			z"/>
		<path class="st11" d="M827.8,323.3c0.7,0.8-3.3,1.4-8.9,1.4c-1.1,0-2.1,0-3.1-0.1c-1,0.5-4.3,0.9-8.6,0.9
			c-5.6,0-10.7-0.6-11.4-1.4c-0.1-0.1-0.1-0.2,0-0.3c-4.7-0.1-8.7-0.7-9.3-1.4c-0.4-0.5,0.9-0.9,3.3-1.1c1.3-0.4,4.4-0.8,8.3-0.8
			c2.3,0,4.6,0.1,6.5,0.3c1.6-0.3,4-0.5,6.9-0.5c5.8,0,11.3,0.8,12.2,1.7c0.1,0.1,0.1,0.2,0.1,0.2
			C826,322.6,827.5,322.9,827.8,323.3z M807.9,322.8c-0.1,0-0.1,0-0.1,0.1c0.1,0,0.2,0,0.3-0.1C808,322.8,807.9,322.8,807.9,322.8z"
			/>
	</g>
	<g>
		<path class="st11" d="M328.7,326.1c-0.4-0.5-1.4-0.9-2.9-1.3c-5.3-1.5-16.9-2.6-29.2-2.6c-2.2,0-4.3,0-6.2,0.1l0,0
			c-0.9-0.1-1.7-0.2-1.7-0.2l-1-1.1l-8.1-9l-0.5-2.5l-0.8-0.9c0,0-0.4-0.2-1.2-0.3c-0.8,0-9.7,0-9.7,0l0.9,1c0,0,1,1.1,1.2,1.3
			s1.8,1.3,1.8,1.3s1.1,1.1,1.1,1.2s2,1.7,1.8,1.8c-0.2,0.1,1.7,1.9,2,2.2c0.2,0.2,0.6,2.4,0.4,3.8c-0.1,0.6-0.4,1.1-0.8,1.1
			s-0.9,0.1-1.3,0.1c-1.8-0.1-3.6-0.1-5.4-0.1c-12.1,0-20.8,1.6-21.3,3.7c-0.1,0.3,0,0.7,0.3,1c1.3,1.4,5.5,2.6,11.4,3.5
			c2.2,2.4,15.8,4.3,30.3,4.3c8.4,0,15.3-0.6,19.2-1.6c12.6-0.5,20.6-2.2,18.7-4.2c-0.2-0.3-0.6-0.5-1.2-0.8
			C328.5,327.6,329.4,326.9,328.7,326.1z"/>
		<path class="st11" d="M325.8,324.8c-5.3-1.5-16.9-2.6-29.2-2.6c-2.2,0-4.3,0-6.2,0.1l0,0c-0.9-0.1-1.7-0.2-1.7-0.2l-1-1.1
			c-1.9,0-11.5,1.1-12,1.1c-0.4,0-0.9,0.1-1.3,0.1c-1.8-0.1-3.6-0.1-5.4-0.1c-12.1,0-20.8,1.6-21.3,3.7c1.7,0.4,2.7,1.2,6.9,1.1
			s21.9,2.9,34.3,1.6s24.7,0.5,27.5-1C321.7,327.3,328.8,327,325.8,324.8z"/>
		<path class="st11" d="M318.2,328c1.2,1.3-5.6,2.4-15.1,2.4c-1.8,0-3.6,0-5.3-0.1c-1.8,0.9-7.4,1.5-14.7,1.5
			c-9.5,0-18.3-1.1-19.4-2.4c-0.2-0.2-0.2-0.4,0-0.5c-8.1-0.2-14.9-1.2-16-2.3c-0.7-0.8,1.5-1.5,5.6-1.9c2.2-0.8,7.5-1.3,14.2-1.3
			c4,0,7.9,0.2,11.1,0.5c2.8-0.5,6.9-0.8,11.8-0.8c10,0,19.3,1.3,20.8,3c0.1,0.1,0.2,0.3,0.2,0.4C315,326.8,317.6,327.4,318.2,328z
			 M284.1,327.1c-0.1,0-0.2,0.1-0.2,0.1c0.2,0,0.4-0.1,0.6-0.1C284.3,327.2,284.2,327.2,284.1,327.1z"/>
		<path class="st11" d="M331,329.6c1.2,1.3-5.6,2.4-15.1,2.4c-1.8,0-3.6,0-5.3-0.1c-1.8,0.9-7.4,1.5-14.7,1.5
			c-9.5,0-18.3-1.1-19.4-2.4c-0.2-0.2-0.2-0.4,0-0.5c-8.1-0.2-14.9-1.2-16-2.3c-0.7-0.8,1.5-1.5,5.6-1.9c2.2-0.8,7.5-1.3,14.2-1.3
			c4,0,7.9,0.2,11.1,0.5c2.8-0.5,6.9-0.8,11.8-0.8c10,0,19.3,1.3,20.8,3c0.1,0.1,0.2,0.3,0.2,0.4C327.9,328.3,330.4,328.9,331,329.6
			z M296.9,328.7c-0.1,0-0.2,0.1-0.2,0.1c0.2,0,0.4-0.1,0.6-0.1C297.1,328.7,297,328.7,296.9,328.7z"/>
	</g>
	<path class="st11" d="M845.4,329.5c-0.1,0-0.2,0-0.3,0s-0.1,0.1-0.2,0.1C845.1,329.6,845.2,329.6,845.4,329.5z"/>
	<path class="st11" d="M845.4,329.5c-0.1,0-0.2,0-0.3,0s-0.1,0.1-0.2,0.1C845.1,329.6,845.2,329.6,845.4,329.5z"/>
	<path class="st11" d="M845.4,329.5c-0.1,0-0.2,0-0.3,0s-0.1,0.1-0.2,0.1C845.1,329.6,845.2,329.6,845.4,329.5z"/>
	<path class="st17" d="M645.1,314.9l-3.5-3.9l0,0h-9.9c-0.3,0-0.6,0-0.9,0l2.6,2.8c0.3,0.4,1.5,0.7,2.9,0.8l0.3,0.3
		c0.5,0.5,2.8,1,5.2,1c1.2,0,2.2-0.1,2.8-0.3C645.1,315.5,645.3,315.2,645.1,314.9z"/>
	<path class="st18" d="M310.9,237.5c-4,6.6-14.5,11.4-26.9,11.4c-2.2,0-4.3-0.1-6.3-0.4l0,0c-0.8,0.3-1.5,0.7-1.5,0.7v4.8
		c-1.9,0.1-12.5-4.9-13-4.9c-0.4,0-0.9-0.3-1.5-0.5c-1.7,0.3-3.5,0.5-5.3,0.5c-12.1,0-22.3-7-24.8-16.4c1.3-1.8,1.6-5.4,5.9-4.8
		c4.3,0.6,19.3-12.7,32.8-6.9s24.2-2.2,28.4,4.4C304.5,226.4,311.8,227.7,310.9,237.5z"/>
	<path class="st10" d="M300.3,223.2c0-5.7-7.7-10.4-17.3-10.4c-1.8,0-3.5,0.2-5.2,0.5c-2.6-3.8-8.8-6.5-16-6.5
		c-9.5,0-17.3,4.6-17.3,10.4c0,0.8,0.2,1.6,0.5,2.4c-7.9,1-13.9,5.2-13.9,10.2c0,3.5,2.9,6.6,7.3,8.5c2.9,3.4,8.7,5.7,15.4,5.7
		c4,0,7.7-0.8,10.7-2.2c3.3,2.2,7.7,3.6,12.5,3.6c10,0,18.1-5.8,18.1-13c0-0.6,0-1.2-0.2-1.7C298.3,228.7,300.3,226.1,300.3,223.2z
		 M267,227.1c-0.1-0.2-0.2-0.4-0.3-0.5c0.2,0.2,0.5,0.3,0.7,0.5C267.2,227,267.1,227,267,227.1z"/>
	<g>
		<path class="st9" d="M294.3,307.4c0-0.9-1.3-1.7-2.8-1.7c-0.3,0-0.6,0-0.9,0.1c-0.4-0.6-1.4-1.1-2.6-1.1c-1.1,0-2.1,0.4-2.6,1
			c-0.2,0-0.3,0-0.5,0.1c-0.4-0.6-1.4-1.1-2.6-1.1c-1.1,0-2.1,0.4-2.6,1c-0.2,0-0.3,0-0.5,0c-0.3,0-0.6,0-0.8,0.1
			c-0.4-0.6-1.4-1.1-2.6-1.1c-1.6,0-2.8,0.8-2.8,1.7c0,0.1,0,0.3,0.1,0.4c-0.3,0-0.6,0.1-0.8,0.2c-0.3-0.7-1.4-1.3-2.7-1.3
			c-0.3,0-0.6,0-0.9,0.1c-0.4-0.6-1.4-1.1-2.6-1.1s-2.1,0.4-2.6,1c-0.2,0-0.3,0-0.5,0c-0.3,0-0.6,0-0.8,0.1
			c-0.4-0.6-1.4-1.1-2.6-1.1c-1.6,0-2.8,0.8-2.8,1.7c0,0.1,0,0.3,0.1,0.4c-1.3,0.2-2.3,0.8-2.3,1.7c0,0.6,0.5,1.1,1.2,1.4
			c0.5,0.6,1.4,0.9,2.5,0.9c0.6,0,1.3-0.1,1.7-0.4c0.5,0.4,1.3,0.6,2,0.6c0.6,0,1.2-0.1,1.7-0.4c0.3,0.1,0.7,0.1,1.1,0.1
			c0.6,0,1.3-0.1,1.7-0.4c0.5,0.4,1.2,0.6,2,0.6c1.3,0,2.5-0.7,2.8-1.5c0.2,0.1,0.4,0.3,0.6,0.4c0.5,0.6,1.4,0.9,2.5,0.9
			c0.7,0,1.3-0.1,1.7-0.4c0.5,0.4,1.3,0.6,2,0.6c0.6,0,1.2-0.1,1.6-0.4c0.3,0.1,0.7,0.1,1.1,0.1c0.7,0,1.3-0.1,1.7-0.4
			c0.5,0.4,1.2,0.6,2,0.6c0.5,0,1-0.1,1.4-0.3l0,0c0.2,0,0.3,0,0.5,0c0.6,0,1.3-0.1,1.7-0.4c0.5,0.4,1.2,0.6,2,0.6c1.6,0,3-1,3-2.1
			c0-0.1,0-0.2,0-0.3C294,308.3,294.3,307.9,294.3,307.4z M260.4,308.1C260.4,308,260.4,308,260.4,308.1
			C260.4,308,260.5,308,260.4,308.1C260.5,308.1,260.5,308.1,260.4,308.1z M267,308.1C266.9,308,266.9,308,267,308.1
			C266.9,308,267,308,267,308.1L267,308.1z M276.7,308.1C276.7,308,276.7,308,276.7,308.1C276.7,308,276.7,308,276.7,308.1
			C276.8,308.1,276.7,308.1,276.7,308.1z M283.3,308.1L283.3,308.1c-0.1,0-0.1,0-0.1-0.1C283.2,308,283.3,308,283.3,308.1z
			 M288.9,308.1C288.9,308,288.8,308,288.9,308.1C288.9,308,288.9,308,288.9,308.1L288.9,308.1z"/>
		<path class="st16" d="M291.9,310.3c-0.7,1.1-2.4,1.9-4.4,1.9c-0.4,0-0.7,0-1-0.1l0,0c-0.1,0.1-0.2,0.1-0.2,0.1s-2,0-2.1,0
			s-0.1,0-0.2-0.1c-0.3,0-0.6,0.1-0.9,0.1c-0.9,0-1.8-0.3-2.5-0.7c-0.5,0.1-1,0.2-1.5,0.2c-0.3,0-0.6,0-0.8-0.1
			c-0.1,0-0.2,0.1-0.2,0.1s-1.6,0-1.7,0c0,0-0.1,0-0.2-0.1c-0.2,0-0.5,0.1-0.7,0.1c-1.1,0-2-0.4-2.6-1.1c-0.5,0.1-1.1,0.2-1.7,0.2
			c-0.3,0-0.6,0-0.9-0.1l0,0c-0.1,0-0.2,0.1-0.2,0.1s-1.8,0-1.9,0s-0.1,0-0.2-0.1c-0.3,0-0.5,0.1-0.8,0.1c-0.8,0-1.6-0.2-2.3-0.6
			c-0.5,0.7-1.6,1.2-3,1.2c-0.3,0-0.5,0-0.7,0c-0.1,0-0.2,0.1-0.2,0.1s-1.4,0-1.5,0c0,0-0.1,0-0.2-0.1c-0.2,0-0.4,0-0.6,0
			c-1.4,0-2.5-0.8-2.8-1.9c0.2-0.2,0.2-0.6,0.7-0.6c0.5,0.1,2.2-1.4,3.8-0.8c1.5,0.7,2.8-0.3,3.3,0.5l0,0c0-0.1-0.1-0.2-0.1-0.3
			c0.2-0.3,0.2-0.8,0.9-0.7c0.6,0.1,2.8-1.9,4.8-1c2,0.8,3.6-0.3,4.2,0.6c0.6,0.1,1.3,0.3,1.6,0.8c0.7-0.3,1.6-0.5,2.4-0.1
			c1.6,0.7,2.9-0.1,3.5,0.4c1.1-0.5,2.8-1.5,4.5-0.8c2.2,0.9,4-0.4,4.6,0.7C290.9,308.5,292.1,308.7,291.9,310.3z"/>
	</g>
	<path class="st9" d="M311,304.5C311.1,304.5,311.1,304.6,311,304.5c0.1,0.1,0.1,0.1,0.1,0.1S311.1,304.5,311,304.5z"/>
	<rect x="214.7" y="181.1" class="st11" width="18.1" height="30.5"/>
</g>
</svg>
