<?xml version="1.0" encoding="utf-8"?>
<!-- Generator: Adobe Illustrator 23.0.5, SVG Export Plug-In . SVG Version: 6.00 Build 0)  -->
<svg version="1.1" id="Layer_1" xmlns="http://www.w3.org/2000/svg" xmlns:xlink="http://www.w3.org/1999/xlink" x="0px" y="0px"
	 viewBox="0 0 1012 360" style="enable-background:new 0 0 1012 360;" xml:space="preserve">
<style type="text/css">
	.st0{display:none;}
	.st1{display:inline;}
	.st2{fill:#E6E6E6;}
	.st3{fill:none;stroke:#E6E6E6;stroke-miterlimit:10;}
	.st4{display:inline;fill:none;stroke:#E6E6E6;stroke-miterlimit:10;}
	.st5{opacity:0.56;}
	.st6{fill:#CBCDCF;}
	.st7{fill:#D8D9D9;}
	.st8{fill:#CCCCCC;}
	.st9{fill:#C4C4C4;}
	.st10{fill:#E0E0E0;}
	.st11{opacity:0.47;fill:#D8D9D9;}
	.st12{fill:#F2F2F2;}
	.st13{fill:#EEEEEE;}
	.st14{fill:#E4E5E4;}
	.st15{fill:#B3B3B3;}
	.st16{fill:#BFBEBE;}
	.st17{opacity:0.34;fill:#E6E6E6;}
	.st18{fill:#DCDCDC;}
</style>
<g class="st0">
	<g class="st1">
		<path class="st2" d="M506,2c24,0,47.3,4.7,69.3,14c21.2,9,40.2,21.8,56.6,38.1S661,89.5,670,110.7c9.3,21.9,14,45.3,14,69.3
			s-4.7,47.3-14,69.3c-9,21.2-21.8,40.2-38.1,56.6c-16.3,16.3-35.4,29.2-56.6,38.1c-21.9,9.3-45.3,14-69.3,14
			c-24,0-47.3-4.7-69.3-14c-21.2-9-40.2-21.8-56.6-38.1c-16.3-16.3-29.2-35.4-38.1-56.6c-9.3-21.9-14-45.3-14-69.3s4.7-47.3,14-69.3
			c9-21.2,21.8-40.2,38.1-56.6C396.5,37.8,415.5,25,436.7,16C458.7,6.7,482,2,506,2 M506,1c-98.9,0-179,80.1-179,179
			s80.1,179,179,179s179-80.1,179-179S604.9,1,506,1L506,1z"/>
	</g>
	<g class="st1">
		<path class="st2" d="M506,67c30.2,0,58.6,11.8,79.9,33.1c21.3,21.3,33.1,49.7,33.1,79.9s-11.8,58.6-33.1,79.9
			C564.6,281.2,536.2,293,506,293c-30.2,0-58.6-11.8-79.9-33.1C404.8,238.6,393,210.2,393,180s11.8-58.6,33.1-79.9
			C447.4,78.8,475.8,67,506,67 M506,66c-63,0-114,51-114,114s51,114,114,114s114-51,114-114S569,66,506,66L506,66z"/>
	</g>
	<g class="st1">
		<path class="st2" d="M506,107.9l36.1,9.7l26.4,26.4l9.7,36.1l-9.7,36.1l-26.4,26.4l-36.1,9.7l-36.1-9.7l-26.4-26.4l-9.7-36.1
			l9.7-36.1l26.4-26.4L506,107.9 M506,106.8l-36.6,9.8l-26.8,26.8l-9.8,36.6l9.8,36.6l26.8,26.8l36.6,9.8l36.6-9.8l26.8-26.8
			l9.8-36.6l-9.8-36.6l-26.8-26.8L506,106.8L506,106.8z"/>
	</g>
	<g class="st1">
		<line class="st3" x1="1012" y1="180" x2="0" y2="180"/>
	</g>
	<g class="st1">
		<line class="st3" x1="506" y1="0.8" x2="506" y2="359.3"/>
	</g>
	<g class="st1">
		<line class="st3" x1="811.5" y1="0.5" x2="199.5" y2="359.5"/>
	</g>
	<g class="st1">
		<line class="st3" x1="611.5" y1="359.5" x2="400.5" y2="-0.5"/>
	</g>
	<line class="st4" x1="609.5" y1="-0.5" x2="403.5" y2="359.5"/>
	<line class="st4" x1="194.5" y1="0.5" x2="817.5" y2="359.5"/>
</g>
<g class="st5">
	<path class="st6" d="M522.9,156.1v28.1h-38.5v-28.1l15.2-53.9V80.2h2.4V42.7c0-4.3,0.5-7.8,1.1-7.8c0.6,0,1.1,3.5,1.1,7.8v37.5h2.4
		v21.9L522.9,156.1z"/>
	<polygon class="st7" points="400.4,93 419.1,93 419.1,78.3 439,72.2 461,72.2 461,184.1 439,184.1 422.6,180.2 400.4,180.2 	"/>
	<polygon class="st2" points="460.4,68 492.1,69.4 492.1,188.5 459.7,188.5 	"/>
	<g>
		<polygon class="st8" points="380.5,93 380.5,188.9 402.5,189 402.5,103.6 		"/>
		<g>
			<rect x="382.6" y="135.6" class="st8" width="3.6" height="5.1"/>
			<rect x="387.4" y="135.6" class="st8" width="3.6" height="5.1"/>
			<rect x="382.6" y="143" class="st8" width="3.6" height="5.1"/>
			<rect x="387.4" y="143" class="st8" width="3.6" height="5.1"/>
			<rect x="382.6" y="128.8" class="st8" width="3.6" height="5.1"/>
			<rect x="387.4" y="128.8" class="st8" width="3.6" height="5.1"/>
			<rect x="382.6" y="150.3" class="st8" width="3.6" height="5.1"/>
			<rect x="387.4" y="150.3" class="st8" width="3.6" height="5.1"/>
			<rect x="382.6" y="157" class="st8" width="3.6" height="5.1"/>
			<rect x="387.4" y="157" class="st8" width="3.6" height="5.1"/>
			<rect x="392" y="135.6" class="st8" width="3.6" height="5.1"/>
			<rect x="396.8" y="135.6" class="st8" width="3.6" height="5.1"/>
			<rect x="392" y="143" class="st8" width="3.6" height="5.1"/>
			<rect x="396.8" y="143" class="st8" width="3.6" height="5.1"/>
			<rect x="392" y="128.9" class="st8" width="3.6" height="5.1"/>
			<rect x="396.8" y="128.9" class="st8" width="3.6" height="5.1"/>
			<rect x="392" y="150.3" class="st8" width="3.6" height="5.1"/>
			<rect x="396.8" y="150.3" class="st8" width="3.6" height="5.1"/>
			<rect x="392" y="157.1" class="st8" width="3.6" height="5.1"/>
			<rect x="396.8" y="157.1" class="st8" width="3.6" height="5.1"/>
		</g>
	</g>
	<path class="st6" d="M380.8,105v9.6h-38.5V105l15.2-18.5V79h2.4V66.1c0-1.5,0.5-2.7,1.1-2.7c0.6,0,1.1,1.2,1.1,2.7V79h2.4v7.5
		L380.8,105z"/>
	<rect x="342.3" y="88.1" class="st2" width="38.5" height="98.6"/>
	<g>
		<rect x="362.1" y="101" class="st9" width="2.7" height="3.8"/>
		<rect x="365.7" y="101" class="st9" width="2.7" height="3.8"/>
		<rect x="369.1" y="101" class="st9" width="2.7" height="3.8"/>
		<rect x="372.5" y="101" class="st9" width="2.7" height="3.8"/>
		<rect x="375.6" y="101" class="st9" width="2.7" height="3.8"/>
	</g>
	<g>
		<rect x="362.1" y="106.4" class="st9" width="2.7" height="3.8"/>
		<rect x="365.7" y="106.4" class="st9" width="2.7" height="3.8"/>
		<rect x="369.1" y="106.4" class="st9" width="2.7" height="3.8"/>
		<rect x="372.5" y="106.4" class="st9" width="2.7" height="3.8"/>
		<rect x="375.6" y="106.4" class="st9" width="2.7" height="3.8"/>
	</g>
	<g>
		<rect x="344.9" y="101" class="st9" width="2.7" height="3.8"/>
		<rect x="348.5" y="101" class="st9" width="2.7" height="3.8"/>
		<rect x="351.9" y="101" class="st9" width="2.7" height="3.8"/>
		<rect x="355.3" y="101" class="st9" width="2.7" height="3.8"/>
		<rect x="358.5" y="101" class="st9" width="2.7" height="3.8"/>
	</g>
	<g>
		<rect x="344.9" y="106.4" class="st9" width="2.7" height="3.8"/>
		<rect x="348.5" y="106.4" class="st9" width="2.7" height="3.8"/>
		<rect x="351.9" y="106.4" class="st9" width="2.7" height="3.8"/>
		<rect x="355.3" y="106.4" class="st9" width="2.7" height="3.8"/>
		<rect x="358.5" y="106.4" class="st9" width="2.7" height="3.8"/>
	</g>
	<g>
		<rect x="344.9" y="111.9" class="st9" width="2.7" height="3.8"/>
		<rect x="348.5" y="111.9" class="st9" width="2.7" height="3.8"/>
		<rect x="351.9" y="111.9" class="st9" width="2.7" height="3.8"/>
		<rect x="355.3" y="111.9" class="st9" width="2.7" height="3.8"/>
		<rect x="358.5" y="111.9" class="st9" width="2.7" height="3.8"/>
	</g>
	<g>
		<rect x="344.9" y="117.3" class="st9" width="2.7" height="3.8"/>
		<rect x="348.5" y="117.3" class="st9" width="2.7" height="3.8"/>
		<rect x="351.9" y="117.3" class="st9" width="2.7" height="3.8"/>
		<rect x="355.3" y="117.3" class="st9" width="2.7" height="3.8"/>
		<rect x="358.5" y="117.3" class="st9" width="2.7" height="3.8"/>
	</g>
	<g>
		<rect x="344.9" y="122.8" class="st9" width="2.7" height="3.8"/>
		<rect x="348.5" y="122.8" class="st9" width="2.7" height="3.8"/>
		<rect x="351.9" y="122.8" class="st9" width="2.7" height="3.8"/>
		<rect x="355.3" y="122.8" class="st9" width="2.7" height="3.8"/>
		<rect x="358.5" y="122.8" class="st9" width="2.7" height="3.8"/>
	</g>
	<g>
		<rect x="362.1" y="111.9" class="st9" width="2.7" height="3.8"/>
		<rect x="365.7" y="111.9" class="st9" width="2.7" height="3.8"/>
		<rect x="369.1" y="111.9" class="st9" width="2.7" height="3.8"/>
		<rect x="372.5" y="111.9" class="st9" width="2.7" height="3.8"/>
		<rect x="375.6" y="111.9" class="st9" width="2.7" height="3.8"/>
	</g>
	<rect x="332.2" y="109.5" class="st2" width="24.9" height="80.4"/>
	<g>
		<rect x="362.1" y="117.3" class="st9" width="2.7" height="3.8"/>
		<rect x="365.7" y="117.3" class="st9" width="2.7" height="3.8"/>
		<rect x="369.1" y="117.3" class="st9" width="2.7" height="3.8"/>
		<rect x="372.5" y="117.3" class="st9" width="2.7" height="3.8"/>
		<rect x="375.6" y="117.3" class="st9" width="2.7" height="3.8"/>
	</g>
	<g>
		<rect x="362.1" y="122.8" class="st9" width="2.7" height="3.8"/>
		<rect x="365.7" y="122.8" class="st9" width="2.7" height="3.8"/>
		<rect x="369.1" y="122.8" class="st9" width="2.7" height="3.8"/>
		<rect x="372.5" y="122.8" class="st9" width="2.7" height="3.8"/>
		<rect x="375.6" y="122.8" class="st9" width="2.7" height="3.8"/>
	</g>
	<g>
		<rect x="362.1" y="141" class="st9" width="2.7" height="3.8"/>
		<rect x="365.7" y="141" class="st9" width="2.7" height="3.8"/>
		<rect x="369.1" y="141" class="st9" width="2.7" height="3.8"/>
		<rect x="372.5" y="141" class="st9" width="2.7" height="3.8"/>
		<rect x="375.6" y="141" class="st9" width="2.7" height="3.8"/>
	</g>
	<g>
		<rect x="362.1" y="146.4" class="st9" width="2.7" height="3.8"/>
		<rect x="365.7" y="146.4" class="st9" width="2.7" height="3.8"/>
		<rect x="369.1" y="146.4" class="st9" width="2.7" height="3.8"/>
		<rect x="372.5" y="146.4" class="st9" width="2.7" height="3.8"/>
		<rect x="375.6" y="146.4" class="st9" width="2.7" height="3.8"/>
	</g>
	<g>
		<rect x="362.1" y="151.9" class="st9" width="2.7" height="3.8"/>
		<rect x="365.7" y="151.9" class="st9" width="2.7" height="3.8"/>
		<rect x="369.1" y="151.9" class="st9" width="2.7" height="3.8"/>
		<rect x="372.5" y="151.9" class="st9" width="2.7" height="3.8"/>
		<rect x="375.6" y="151.9" class="st9" width="2.7" height="3.8"/>
	</g>
	<g>
		<rect x="362.1" y="157.3" class="st9" width="2.7" height="3.8"/>
		<rect x="365.7" y="157.3" class="st9" width="2.7" height="3.8"/>
		<rect x="369.1" y="157.3" class="st9" width="2.7" height="3.8"/>
		<rect x="372.5" y="157.3" class="st9" width="2.7" height="3.8"/>
		<rect x="375.6" y="157.3" class="st9" width="2.7" height="3.8"/>
	</g>
	<g>
		<rect x="362.1" y="162.8" class="st9" width="2.7" height="3.8"/>
		<rect x="365.7" y="162.8" class="st9" width="2.7" height="3.8"/>
		<rect x="369.1" y="162.8" class="st9" width="2.7" height="3.8"/>
		<rect x="372.5" y="162.8" class="st9" width="2.7" height="3.8"/>
		<rect x="375.6" y="162.8" class="st9" width="2.7" height="3.8"/>
	</g>
	<g>
		<rect x="362.1" y="168.2" class="st9" width="2.7" height="3.8"/>
		<rect x="365.7" y="168.2" class="st9" width="2.7" height="3.8"/>
		<rect x="369.1" y="168.2" class="st9" width="2.7" height="3.8"/>
		<rect x="372.5" y="168.2" class="st9" width="2.7" height="3.8"/>
		<rect x="375.6" y="168.2" class="st9" width="2.7" height="3.8"/>
	</g>
	<g>
		<rect x="336.8" y="125.5" class="st9" width="2.7" height="3.8"/>
		<rect x="340.4" y="125.5" class="st9" width="2.7" height="3.8"/>
		<rect x="343.8" y="125.5" class="st9" width="2.7" height="3.8"/>
		<rect x="347.2" y="125.5" class="st9" width="2.7" height="3.8"/>
		<rect x="350.3" y="125.5" class="st9" width="2.7" height="3.8"/>
	</g>
	<g>
		<rect x="336.8" y="130.9" class="st9" width="2.7" height="3.8"/>
		<rect x="340.4" y="130.9" class="st9" width="2.7" height="3.8"/>
		<rect x="343.8" y="130.9" class="st9" width="2.7" height="3.8"/>
		<rect x="347.2" y="130.9" class="st9" width="2.7" height="3.8"/>
		<rect x="350.3" y="130.9" class="st9" width="2.7" height="3.8"/>
	</g>
	<g>
		<rect x="336.8" y="136.4" class="st9" width="2.7" height="3.8"/>
		<rect x="340.4" y="136.4" class="st9" width="2.7" height="3.8"/>
		<rect x="343.8" y="136.4" class="st9" width="2.7" height="3.8"/>
		<rect x="347.2" y="136.4" class="st9" width="2.7" height="3.8"/>
		<rect x="350.3" y="136.4" class="st9" width="2.7" height="3.8"/>
	</g>
	<g>
		<rect x="336.8" y="160.9" class="st9" width="2.7" height="3.8"/>
		<rect x="340.4" y="160.9" class="st9" width="2.7" height="3.8"/>
		<rect x="343.8" y="160.9" class="st9" width="2.7" height="3.8"/>
		<rect x="347.2" y="160.9" class="st9" width="2.7" height="3.8"/>
		<rect x="350.3" y="160.9" class="st9" width="2.7" height="3.8"/>
	</g>
	<g>
		<rect x="336.8" y="152.3" class="st9" width="2.7" height="3.8"/>
		<rect x="340.4" y="152.3" class="st9" width="2.7" height="3.8"/>
		<rect x="343.8" y="152.3" class="st9" width="2.7" height="3.8"/>
		<rect x="347.2" y="152.3" class="st9" width="2.7" height="3.8"/>
		<rect x="350.3" y="152.3" class="st9" width="2.7" height="3.8"/>
	</g>
	<rect x="358.5" y="141" class="st9" width="2.7" height="3.8"/>
	<rect x="358.5" y="146.4" class="st9" width="2.7" height="3.8"/>
	<rect x="358.5" y="151.9" class="st9" width="2.7" height="3.8"/>
	<rect x="358.5" y="157.3" class="st9" width="2.7" height="3.8"/>
	<rect x="358.5" y="162.8" class="st9" width="2.7" height="3.8"/>
	<path class="st10" d="M73.3,287.2l1.1,7.7c-6.5,0.5-13,1.3-19.3,2.4c-0.1,0-0.2,0.1-0.3,0.1c-4,0.7-8,1.4-11.8,2.2
		c-0.9,0.2-1.8,0.4-2.6,0.6c-0.3,0.1-0.6,0.1-0.9,0.2c-0.9,0.2-1.8,0.4-2.6,0.6c-0.3,0.1-0.6,0.2-0.9,0.2c-0.7,0.2-1.3,0.3-2,0.5
		c-0.2,0.1-0.4,0.1-0.7,0.2c-0.4,0.1-0.8,0.2-1.3,0.3c-1.3,0.3-2.7,0.7-4,1c-0.9,0.2-1.8,0.5-2.6,0.7c-0.2,0.1-0.3,0.1-0.4,0.1
		c-0.9,0.3-1.8,0.5-2.6,0.8c-0.2,0.1-0.4,0.1-0.6,0.2c-0.9,0.2-1.8,0.5-2.6,0.7c-0.2,0.1-0.4,0.1-0.7,0.2c-0.3,0.1-0.5,0.2-0.8,0.2
		c-0.6,0.2-1.2,0.4-1.8,0.6c-0.3,0.1-0.6,0.2-0.8,0.3c-0.9,0.3-1.8,0.5-2.6,0.8c-1.5,0.5-3,1-4.4,1.4l-5.1-36.6H28l0.7,4.9H52
		l-0.5-3.4l22-0.2l1.9,13.4H73.3z"/>
	<rect x="358.5" y="168.2" class="st9" width="2.7" height="3.8"/>
	<rect x="358.5" y="173.7" class="st9" width="2.7" height="3.8"/>
	<g>
		<rect x="336.8" y="166.3" class="st9" width="2.7" height="3.8"/>
		<rect x="340.4" y="166.3" class="st9" width="2.7" height="3.8"/>
		<rect x="343.8" y="166.3" class="st9" width="2.7" height="3.8"/>
		<rect x="347.2" y="166.3" class="st9" width="2.7" height="3.8"/>
		<rect x="350.3" y="166.3" class="st9" width="2.7" height="3.8"/>
	</g>
	<path class="st11" d="M963.4,226l-4.5,59c-70.3-30.3-131.7-52-184.3-67.4l0.2-4.2l32,5.4l-0.3,7.2l18.9,3.2l1.8-40.9l34.5,5.9
		l-0.9,19.2l21.1,3.6l-0.6,13.6l19.2,3.3l0.8-18.4L963.4,226z"/>
	<polygon class="st12" points="587.1,92.5 592.8,92.5 595.9,87.4 599,93 604.9,93 604.9,100.2 610.4,100.2 610.4,118 618.6,118 
		618.6,138.3 630.3,138.3 630.3,150.3 647.5,150.2 650.2,200.1 587.1,200.1 	"/>
	<g>
		<rect x="336.8" y="171.8" class="st9" width="2.7" height="3.8"/>
		<rect x="340.4" y="171.8" class="st9" width="2.7" height="3.8"/>
		<rect x="343.8" y="171.8" class="st9" width="2.7" height="3.8"/>
		<rect x="347.2" y="171.8" class="st9" width="2.7" height="3.8"/>
		<rect x="350.3" y="171.8" class="st9" width="2.7" height="3.8"/>
	</g>
	<g>
		<rect x="362.1" y="173.7" class="st9" width="2.7" height="3.8"/>
		<rect x="365.7" y="173.7" class="st9" width="2.7" height="3.8"/>
		<rect x="369.1" y="173.7" class="st9" width="2.7" height="3.8"/>
		<rect x="372.5" y="173.7" class="st9" width="2.7" height="3.8"/>
		<rect x="375.6" y="173.7" class="st9" width="2.7" height="3.8"/>
	</g>
	<g>
		<g>
			<rect x="468.7" y="81.9" class="st9" width="2.7" height="3.8"/>
			<rect x="472.3" y="81.9" class="st9" width="2.7" height="3.8"/>
			<rect x="475.7" y="81.9" class="st9" width="2.7" height="3.8"/>
			<rect x="479" y="81.9" class="st9" width="2.7" height="3.8"/>
			<rect x="482.2" y="81.9" class="st9" width="2.7" height="3.8"/>
		</g>
		<g>
			<rect x="468.7" y="87.4" class="st9" width="2.7" height="3.8"/>
			<rect x="472.3" y="87.4" class="st9" width="2.7" height="3.8"/>
			<rect x="475.7" y="87.4" class="st9" width="2.7" height="3.8"/>
			<rect x="479" y="87.4" class="st9" width="2.7" height="3.8"/>
			<rect x="482.2" y="87.4" class="st9" width="2.7" height="3.8"/>
		</g>
		<g>
			<rect x="468.7" y="92.8" class="st9" width="2.7" height="3.8"/>
			<rect x="472.3" y="92.8" class="st9" width="2.7" height="3.8"/>
			<rect x="475.7" y="92.8" class="st9" width="2.7" height="3.8"/>
			<rect x="479" y="92.8" class="st9" width="2.7" height="3.8"/>
			<rect x="482.2" y="92.8" class="st9" width="2.7" height="3.8"/>
		</g>
		<g>
			<rect x="468.7" y="98.3" class="st9" width="2.7" height="3.8"/>
			<rect x="472.3" y="98.3" class="st9" width="2.7" height="3.8"/>
			<rect x="475.7" y="98.3" class="st9" width="2.7" height="3.8"/>
			<rect x="479" y="98.3" class="st9" width="2.7" height="3.8"/>
			<rect x="482.2" y="98.3" class="st9" width="2.7" height="3.8"/>
		</g>
		<g>
			<rect x="468.7" y="103.7" class="st9" width="2.7" height="3.8"/>
			<rect x="472.3" y="103.7" class="st9" width="2.7" height="3.8"/>
			<rect x="475.7" y="103.7" class="st9" width="2.7" height="3.8"/>
			<rect x="479" y="103.7" class="st9" width="2.7" height="3.8"/>
			<rect x="482.2" y="103.7" class="st9" width="2.7" height="3.8"/>
		</g>
		<g>
			<rect x="468.7" y="109.1" class="st9" width="2.7" height="3.8"/>
			<rect x="472.3" y="109.1" class="st9" width="2.7" height="3.8"/>
			<rect x="475.7" y="109.1" class="st9" width="2.7" height="3.8"/>
			<rect x="479" y="109.1" class="st9" width="2.7" height="3.8"/>
			<rect x="482.2" y="109.1" class="st9" width="2.7" height="3.8"/>
		</g>
		<g>
			<rect x="468.7" y="114.6" class="st9" width="2.7" height="3.8"/>
			<rect x="472.3" y="114.6" class="st9" width="2.7" height="3.8"/>
			<rect x="475.7" y="114.6" class="st9" width="2.7" height="3.8"/>
			<rect x="479" y="114.6" class="st9" width="2.7" height="3.8"/>
			<rect x="482.2" y="114.6" class="st9" width="2.7" height="3.8"/>
		</g>
		<g>
			<rect x="468.7" y="120" class="st9" width="2.7" height="3.8"/>
			<rect x="472.3" y="120" class="st9" width="2.7" height="3.8"/>
			<rect x="475.7" y="120" class="st9" width="2.7" height="3.8"/>
			<rect x="479" y="120" class="st9" width="2.7" height="3.8"/>
			<rect x="482.2" y="120" class="st9" width="2.7" height="3.8"/>
		</g>
		<g>
			<rect x="468.7" y="125.5" class="st9" width="2.7" height="3.8"/>
			<rect x="472.3" y="125.5" class="st9" width="2.7" height="3.8"/>
			<rect x="475.7" y="125.5" class="st9" width="2.7" height="3.8"/>
			<rect x="479" y="125.5" class="st9" width="2.7" height="3.8"/>
			<rect x="482.2" y="125.5" class="st9" width="2.7" height="3.8"/>
		</g>
		<g>
			<rect x="468.7" y="130.9" class="st9" width="2.7" height="3.8"/>
			<rect x="472.3" y="130.9" class="st9" width="2.7" height="3.8"/>
			<rect x="475.7" y="130.9" class="st9" width="2.7" height="3.8"/>
			<rect x="479" y="130.9" class="st9" width="2.7" height="3.8"/>
			<rect x="482.2" y="130.9" class="st9" width="2.7" height="3.8"/>
		</g>
		<g>
			<rect x="468.7" y="136.4" class="st9" width="2.7" height="3.8"/>
			<rect x="472.3" y="136.4" class="st9" width="2.7" height="3.8"/>
			<rect x="475.7" y="136.4" class="st9" width="2.7" height="3.8"/>
			<rect x="479" y="136.4" class="st9" width="2.7" height="3.8"/>
			<rect x="482.2" y="136.4" class="st9" width="2.7" height="3.8"/>
		</g>
		<g>
			<rect x="468.7" y="141.8" class="st9" width="2.7" height="3.8"/>
			<rect x="472.3" y="141.8" class="st9" width="2.7" height="3.8"/>
			<rect x="475.7" y="141.8" class="st9" width="2.7" height="3.8"/>
			<rect x="479" y="141.8" class="st9" width="2.7" height="3.8"/>
			<rect x="482.2" y="141.8" class="st9" width="2.7" height="3.8"/>
		</g>
		<g>
			<rect x="468.7" y="147.3" class="st9" width="2.7" height="3.8"/>
			<rect x="472.3" y="147.3" class="st9" width="2.7" height="3.8"/>
			<rect x="475.7" y="147.3" class="st9" width="2.7" height="3.8"/>
			<rect x="479" y="147.3" class="st9" width="2.7" height="3.8"/>
			<rect x="482.2" y="147.3" class="st9" width="2.7" height="3.8"/>
		</g>
		<g>
			<rect x="468.7" y="152.7" class="st9" width="2.7" height="3.8"/>
			<rect x="472.3" y="152.7" class="st9" width="2.7" height="3.8"/>
			<rect x="475.7" y="152.7" class="st9" width="2.7" height="3.8"/>
			<rect x="479" y="152.7" class="st9" width="2.7" height="3.8"/>
			<rect x="482.2" y="152.7" class="st9" width="2.7" height="3.8"/>
		</g>
	</g>
	<polygon class="st7" points="357.2,109.5 359.1,111.9 359.1,179.9 357.2,180.2 	"/>
	<polygon class="st12" points="511.2,88 526.1,88 526.1,96.4 542.4,96.4 542.4,114.4 546.2,114.4 546.2,208.7 511.2,208.7 	"/>
	<polygon class="st7" points="534.7,84.1 534.7,70.6 546.2,70.6 567.7,84.1 567.7,197.2 534.7,197.2 	"/>
	<rect x="469.5" y="171.9" class="st8" width="14.1" height="11.8"/>
	<path class="st2" d="M565.3,84.1h8.9V46.5V23.9c0,0,1.6-7.5,2.3,0c0,7.7,1,6.5,1,6.5v14.1l1.4,0.2v12.6h1.4V63l1.4,0.3v20.8h5.5
		V111l2.4,5.1v11.1l1.9,3.4V189h-26.1V84.1z"/>
	<path class="st12" d="M1010.8,310c-0.4,0.3-0.8,0.6-1.4,0.9c-0.2,0.1-0.3,0.1-0.5,0.1H1.1c-1.1,0-1.5-1.5-0.5-2
		c22.1-11.5,131.3-68,163.6-80.8c11.6-4.7,28.6-11,42.4-16c1.1-0.4,2.2-0.8,3.3-1.2c8.3-3,15.1-5.4,18.3-6.6c1-0.4,1.7-0.6,1.9-0.7
		c0.1,0,0.1,0,0.2,0l3-0.6l18.3-3.4l3.9-0.7l18.3-3.4l12.5-2.3l31.4-5.9c0,0,5.6-0.9,14.7-2.1c1.4-0.2,2.9-0.4,4.4-0.6
		c0.8-0.1,1.7-0.2,2.6-0.3c0.3,0,0.6-0.1,0.8-0.1c0.6-0.1,1.2-0.2,1.8-0.2c0.3,0,0.5-0.1,0.8-0.1c0.2,0,0.5,0,0.7-0.1
		c0.9-0.1,1.7-0.2,2.6-0.3c0.2,0,0.4,0,0.6-0.1c0.8-0.1,1.7-0.2,2.6-0.3c0.2,0,0.3,0,0.4,0c0.9-0.1,1.7-0.2,2.6-0.3
		c1.3-0.1,2.6-0.3,4-0.4c0.4,0,0.8-0.1,1.3-0.1c0.2,0,0.4,0,0.7-0.1c0.6-0.1,1.3-0.1,2-0.2c0.3,0,0.6,0,0.9-0.1
		c0.9-0.1,1.8-0.2,2.6-0.2c0.3,0,0.6,0,0.9-0.1c0.9-0.1,1.8-0.2,2.6-0.2c3.8-0.3,7.8-0.6,11.8-0.9c0.1,0,0.2,0,0.3,0
		c6.3-0.4,12.8-0.7,19.3-0.9c0.7,0,1.4,0,2.1-0.1c15.1-0.4,30.3-0.1,43.8,1.5h0.1c4.9,0.8,9.8,1.5,14.6,2.1c0.4,0,0.9,0.1,1.3,0.1
		c8.4,0.9,16.4,1.3,23.9,1.5c2.6,0.1,5.2,0.1,7.7,0.1c7,0,13.4-0.3,18.9-0.7c4.3-0.3,8.1-0.6,11.3-1c5.9-0.6,9.9-1.3,11.3-1.5
		c0.4-0.1,0.6-0.1,0.6-0.1s3.5-0.5,10.6-0.9c4.7-0.2,11.1-0.4,19-0.3c0.8,0,1.5,0,2.3,0c5.8,0.1,12.3,0.4,19.7,0.8
		c1.5,0.1,2.9,0.2,4.5,0.3c16.2,1.2,35.8,3.3,59.1,7.1c34.1,5.5,75.8,14.5,125.2,29c52.6,15.4,114,37.1,184.3,67.4
		c9.8,4.2,19.8,8.6,30,13.2c7.1,3.2,14.4,6.5,21.7,9.9C1011.3,308.5,1011.4,309.5,1010.8,310z"/>
	<path class="st13" d="M988.8,298.7c-66.2-15-252.2-32.1-265.1-48.2c-15.7-19.6-145.7-34.5-193-38.6c-40-14.7-101.3-19.2-160.3-9.5
		c-35.1,5.8-63.8,15.7-83.3,27.6c-38.5-7.8-47.3-6.9-90,0.1c-75.5,12.4-102.6,41.3-144.8,79.6l956.9,1.2c1.4-0.7,2.3-1.4,2.7-2.2
		C1013.4,305.6,1004.4,302.2,988.8,298.7z"/>
	<polygon class="st8" points="782.5,300.3 782.5,302.4 780,302.4 780,311 773.6,311 773.6,302.4 751,302.4 751,311 744.4,311 
		744.4,302.4 742.6,302.4 742.6,300.3 	"/>
	<g>
		<g>
			<rect x="567.9" y="92.5" class="st9" width="2.7" height="3.8"/>
			<rect x="571.5" y="92.5" class="st9" width="2.7" height="3.8"/>
			<rect x="574.9" y="92.5" class="st9" width="2.7" height="3.8"/>
			<rect x="578.3" y="92.5" class="st9" width="2.7" height="3.8"/>
			<rect x="581.4" y="92.5" class="st9" width="2.7" height="3.8"/>
		</g>
		<g>
			<rect x="567.9" y="97.9" class="st9" width="2.7" height="3.8"/>
			<rect x="571.5" y="97.9" class="st9" width="2.7" height="3.8"/>
			<rect x="574.9" y="97.9" class="st9" width="2.7" height="3.8"/>
			<rect x="578.3" y="97.9" class="st9" width="2.7" height="3.8"/>
			<rect x="581.4" y="97.9" class="st9" width="2.7" height="3.8"/>
		</g>
		<g>
			<rect x="567.9" y="103.3" class="st9" width="2.7" height="3.8"/>
			<rect x="571.5" y="103.3" class="st9" width="2.7" height="3.8"/>
			<rect x="574.9" y="103.3" class="st9" width="2.7" height="3.8"/>
			<rect x="578.3" y="103.3" class="st9" width="2.7" height="3.8"/>
			<rect x="581.4" y="103.3" class="st9" width="2.7" height="3.8"/>
		</g>
		<g>
			<rect x="567.9" y="108.8" class="st9" width="2.7" height="3.8"/>
			<rect x="571.5" y="108.8" class="st9" width="2.7" height="3.8"/>
			<rect x="574.9" y="108.8" class="st9" width="2.7" height="3.8"/>
			<rect x="578.3" y="108.8" class="st9" width="2.7" height="3.8"/>
			<rect x="581.4" y="108.8" class="st9" width="2.7" height="3.8"/>
		</g>
		<g>
			<rect x="567.9" y="114.2" class="st9" width="2.7" height="3.8"/>
			<rect x="571.5" y="114.2" class="st9" width="2.7" height="3.8"/>
			<rect x="574.9" y="114.2" class="st9" width="2.7" height="3.8"/>
			<rect x="578.3" y="114.2" class="st9" width="2.7" height="3.8"/>
			<rect x="581.4" y="114.2" class="st9" width="2.7" height="3.8"/>
		</g>
		<g>
			<rect x="567.9" y="119.7" class="st9" width="2.7" height="3.8"/>
			<rect x="571.5" y="119.7" class="st9" width="2.7" height="3.8"/>
			<rect x="574.9" y="119.7" class="st9" width="2.7" height="3.8"/>
			<rect x="578.3" y="119.7" class="st9" width="2.7" height="3.8"/>
			<rect x="581.4" y="119.7" class="st9" width="2.7" height="3.8"/>
		</g>
		<g>
			<rect x="567.9" y="125.1" class="st9" width="2.7" height="3.8"/>
			<rect x="571.5" y="125.1" class="st9" width="2.7" height="3.8"/>
			<rect x="574.9" y="125.1" class="st9" width="2.7" height="3.8"/>
			<rect x="578.3" y="125.1" class="st9" width="2.7" height="3.8"/>
			<rect x="581.4" y="125.1" class="st9" width="2.7" height="3.8"/>
		</g>
		<g>
			<rect x="567.9" y="130.6" class="st9" width="2.7" height="3.8"/>
			<rect x="571.5" y="130.6" class="st9" width="2.7" height="3.8"/>
			<rect x="574.9" y="130.6" class="st9" width="2.7" height="3.8"/>
			<rect x="578.3" y="130.6" class="st9" width="2.7" height="3.8"/>
			<rect x="581.4" y="130.6" class="st9" width="2.7" height="3.8"/>
		</g>
		<g>
			<rect x="567.9" y="136" class="st9" width="2.7" height="3.8"/>
			<rect x="571.5" y="136" class="st9" width="2.7" height="3.8"/>
			<rect x="574.9" y="136" class="st9" width="2.7" height="3.8"/>
			<rect x="578.3" y="136" class="st9" width="2.7" height="3.8"/>
			<rect x="581.4" y="136" class="st9" width="2.7" height="3.8"/>
		</g>
		<g>
			<rect x="567.9" y="141.5" class="st9" width="2.7" height="3.8"/>
			<rect x="571.5" y="141.5" class="st9" width="2.7" height="3.8"/>
			<rect x="574.9" y="141.5" class="st9" width="2.7" height="3.8"/>
			<rect x="578.3" y="141.5" class="st9" width="2.7" height="3.8"/>
			<rect x="581.4" y="141.5" class="st9" width="2.7" height="3.8"/>
		</g>
		<g>
			<rect x="567.9" y="146.9" class="st9" width="2.7" height="3.8"/>
			<rect x="571.5" y="146.9" class="st9" width="2.7" height="3.8"/>
			<rect x="574.9" y="146.9" class="st9" width="2.7" height="3.8"/>
			<rect x="578.3" y="146.9" class="st9" width="2.7" height="3.8"/>
			<rect x="581.4" y="146.9" class="st9" width="2.7" height="3.8"/>
		</g>
		<g>
			<rect x="567.9" y="152.4" class="st9" width="2.7" height="3.8"/>
			<rect x="571.5" y="152.4" class="st9" width="2.7" height="3.8"/>
			<rect x="574.9" y="152.4" class="st9" width="2.7" height="3.8"/>
			<rect x="578.3" y="152.4" class="st9" width="2.7" height="3.8"/>
			<rect x="581.4" y="152.4" class="st9" width="2.7" height="3.8"/>
		</g>
		<g>
			<rect x="567.9" y="157.8" class="st9" width="2.7" height="3.8"/>
			<rect x="571.5" y="157.8" class="st9" width="2.7" height="3.8"/>
			<rect x="574.9" y="157.8" class="st9" width="2.7" height="3.8"/>
			<rect x="578.3" y="157.8" class="st9" width="2.7" height="3.8"/>
			<rect x="581.4" y="157.8" class="st9" width="2.7" height="3.8"/>
		</g>
		<g>
			<rect x="567.9" y="163.3" class="st9" width="2.7" height="3.8"/>
			<rect x="571.5" y="163.3" class="st9" width="2.7" height="3.8"/>
			<rect x="574.9" y="163.3" class="st9" width="2.7" height="3.8"/>
			<rect x="578.3" y="163.3" class="st9" width="2.7" height="3.8"/>
			<rect x="581.4" y="163.3" class="st9" width="2.7" height="3.8"/>
		</g>
	</g>
	<g>
		<path class="st2" d="M530.9,263.6c-0.6,0-1.8-2.1-2.7-4.6l-3-8.7l-0.5-1.3l-4.4-12.5h-2.4l-4.6-13.1l-13.1-15.9l-12.5-15.2
			l-0.9-1.2l-0.1-0.3l-2.1-6c2.6,0.1,5.2,0.1,7.7,0.1c7,0,13.4-0.3,18.9-0.7c4.3-0.3,8.1-0.6,11.3-1l2.8,7.9l-3.6,23l-1.5,9.3
			l4.6,13.1h-2.4l4.4,12.5l0.5,1.3l3,8.7C531.2,261.5,531.5,263.6,530.9,263.6z"/>
		<path class="st2" d="M481.1,241.2h-22l-21.2-3.7l-3.1-8.8h-18.7l-2-5.8l-5.5-15.8l-1.1-3.1h0l-0.4-1l-1.1-3l-0.5-1.3l-1.1-3
			l-0.5-1.3l-1.1-3l-0.3-1l-1.1-3l-2.7-7.8l2.1,0c15.1-0.4,30.3-0.1,43.9,1.5c4.9,0.8,9.8,1.5,14.6,2.1c0.4,0,0.9,0.1,1.3,0.1
			L481.1,241.2z"/>
		<path class="st2" d="M512.7,242.9l-31.4,0.8l-0.9-2.5l-21-58.2c0.4,0,0.9,0.1,1.3,0.1c8.4,0.9,16.4,1.3,23.9,1.5
			c2.6,0.1,5.2,0.1,7.7,0.1l7.9,22.6L512.7,242.9z"/>
		<g>
			<path class="st2" d="M416,222.4l-1.9,0.6l-17.6,5.6l-0.3,0.1l-2.4-7l-2.1-6l-12.4-35.3c0.1,0,0.2,0,0.3,0
				c6.3-0.4,12.8-0.7,19.3-0.9l2.1,0L416,222.4z"/>
			<g>
				<polygon class="st2" points="391.9,200.2 388.2,200.2 389.3,203.2 392.9,203.2 				"/>
				<polygon class="st2" points="396.7,200.2 393.1,200.2 394.1,203.2 397.8,203.2 				"/>
				<polygon class="st2" points="390.3,195.8 386.7,195.8 387.8,198.8 391.4,198.8 				"/>
				<polygon class="st2" points="395.2,195.8 391.5,195.8 392.6,198.8 396.2,198.8 				"/>
				<polygon class="st2" points="393.3,204.2 389.7,204.2 390.7,207.3 394.4,207.3 				"/>
				<polygon class="st2" points="398.1,204.2 394.5,204.2 395.6,207.3 399.2,207.3 				"/>
				<polygon class="st2" points="388.8,191.4 385.2,191.4 386.2,194.4 389.9,194.4 				"/>
				<polygon class="st2" points="393.6,191.4 390,191.4 391.1,194.4 394.7,194.4 				"/>
				<polygon class="st2" points="387.4,187.3 383.7,187.3 384.8,190.4 388.4,190.4 				"/>
				<polygon class="st2" points="392.2,187.3 388.6,187.3 389.6,190.4 393.3,190.4 				"/>
				<polygon class="st2" points="401.3,200.2 397.6,200.2 398.7,203.2 402.3,203.2 				"/>
				<polygon class="st2" points="406.1,200.2 402.5,200.2 403.5,203.2 407.2,203.2 				"/>
				<polygon class="st2" points="399.7,195.8 396.1,195.8 397.2,198.8 400.8,198.8 				"/>
				<polygon class="st2" points="404.6,195.8 400.9,195.8 402,198.8 405.6,198.8 				"/>
				<polygon class="st2" points="402.7,204.2 399.1,204.2 400.1,207.3 403.8,207.3 				"/>
				<polygon class="st2" points="407.5,204.2 403.9,204.2 405,207.3 408.6,207.3 				"/>
				<polygon class="st2" points="398.2,191.4 394.6,191.4 395.6,194.4 399.3,194.4 				"/>
				<polygon class="st2" points="403,191.4 399.4,191.4 400.5,194.4 404.1,194.4 				"/>
				<polygon class="st2" points="396.8,187.3 393.1,187.3 394.2,190.4 397.8,190.4 				"/>
				<polygon class="st2" points="401.6,187.3 398,187.3 399,190.4 402.7,190.4 				"/>
			</g>
		</g>
		<path class="st2" d="M394,221.6l-2-5.8h-38.5l2,5.8l19.1,11.1l1.6,4.5h2.4l2.7,7.7c0.3,0.9,1,1.6,1.6,1.6c0.6,0,0.8-0.7,0.5-1.6
			l-2.7-7.7h2.4l-1.6-4.5L394,221.6z"/>
		<path class="st2" d="M397.5,231.7H359l-3.5-10.1l-0.9-2.7h0l-1.1-3l-2.3-6.5l-0.8-2.3l-0.3-1l-0.8-2.3l-0.4-1l-0.8-2.3l-2.6-7.3
			l-0.8-2.3l-1-2.8l-0.8-2.3l-0.3-1l-0.3-0.8c0.3,0,0.5-0.1,0.8-0.1c0.2,0,0.4,0,0.7-0.1c0.9-0.1,1.7-0.2,2.6-0.3
			c0.2,0,0.4,0,0.6-0.1c0.8-0.1,1.7-0.2,2.6-0.3c0.2,0,0.3,0,0.4,0c0.9-0.1,1.7-0.2,2.6-0.3c1.3-0.1,2.6-0.3,4-0.4
			c0.4,0,0.8-0.1,1.3-0.1c0.2,0,0.4,0,0.7-0.1c0.6-0.1,1.3-0.1,2-0.2c0.3,0,0.6,0,0.9-0.1c0.9-0.1,1.7-0.1,2.6-0.2
			c0.3,0,0.6,0,0.9-0.1c0.9-0.1,1.8-0.1,2.6-0.2c3.8-0.3,7.8-0.6,11.8-0.9c0.1,0,0.2,0,0.3,0l12.4,35.3l2,5.8l2.5,7.1L397.5,231.7z"
			/>
		<g>
			<polygon class="st2" points="378,221.7 375.3,221.7 376.1,224 378.8,224 			"/>
			<polygon class="st2" points="381.6,221.7 378.9,221.7 379.7,224 382.4,224 			"/>
			<polygon class="st2" points="385,221.7 382.3,221.7 383.1,224 385.8,224 			"/>
			<polygon class="st2" points="388.4,221.7 385.7,221.7 386.5,224 389.2,224 			"/>
			<polygon class="st2" points="391.6,221.7 388.9,221.7 389.6,224 392.4,224 			"/>
		</g>
		<g>
			<polygon class="st2" points="376.9,218.4 374.2,218.4 375,220.7 377.7,220.7 			"/>
			<polygon class="st2" points="380.5,218.4 377.8,218.4 378.6,220.7 381.3,220.7 			"/>
			<polygon class="st2" points="383.9,218.4 381.2,218.4 382,220.7 384.7,220.7 			"/>
			<polygon class="st2" points="387.2,218.4 384.5,218.4 385.3,220.7 388,220.7 			"/>
			<polygon class="st2" points="390.4,218.4 387.7,218.4 388.5,220.7 391.2,220.7 			"/>
		</g>
		<g>
			<polygon class="st2" points="360.8,221.7 358.1,221.7 358.9,224 361.6,224 			"/>
			<polygon class="st2" points="364.4,221.7 361.7,221.7 362.5,224 365.2,224 			"/>
			<polygon class="st2" points="367.8,221.7 365.1,221.7 365.9,224 368.6,224 			"/>
			<polygon class="st2" points="371.2,221.7 368.5,221.7 369.3,224 372,224 			"/>
			<polygon class="st2" points="374.4,221.7 371.7,221.7 372.5,224 375.2,224 			"/>
		</g>
		<g>
			<polygon class="st2" points="359.7,218.4 357,218.4 357.8,220.7 360.5,220.7 			"/>
			<polygon class="st2" points="363.3,218.4 360.6,218.4 361.4,220.7 364.1,220.7 			"/>
			<polygon class="st2" points="366.7,218.4 364,218.4 364.8,220.7 367.5,220.7 			"/>
			<polygon class="st2" points="370.1,218.4 367.4,218.4 368.2,220.7 370.9,220.7 			"/>
			<polygon class="st2" points="373.2,218.4 370.5,218.4 371.3,220.7 374,220.7 			"/>
		</g>
		<g>
			<polygon class="st2" points="358.6,215.2 355.8,215.2 356.6,217.4 359.4,217.4 			"/>
			<polygon class="st2" points="362.2,215.2 359.4,215.2 360.2,217.4 363,217.4 			"/>
			<polygon class="st2" points="365.6,215.2 362.9,215.2 363.7,217.4 366.4,217.4 			"/>
			<polygon class="st2" points="368.9,215.2 366.2,215.2 367,217.4 369.7,217.4 			"/>
			<polygon class="st2" points="372.1,215.2 369.4,215.2 370.2,217.4 372.9,217.4 			"/>
		</g>
		<g>
			<polygon class="st2" points="357.4,211.9 354.7,211.9 355.5,214.2 358.2,214.2 			"/>
			<polygon class="st2" points="361,211.9 358.3,211.9 359.1,214.2 361.8,214.2 			"/>
			<polygon class="st2" points="364.4,211.9 361.7,211.9 362.5,214.2 365.2,214.2 			"/>
			<polygon class="st2" points="367.8,211.9 365.1,211.9 365.9,214.2 368.6,214.2 			"/>
			<polygon class="st2" points="371,211.9 368.2,211.9 369,214.2 371.8,214.2 			"/>
		</g>
		<g>
			<polygon class="st2" points="356.3,208.6 353.6,208.6 354.4,210.9 357.1,210.9 			"/>
			<polygon class="st2" points="359.9,208.6 357.2,208.6 358,210.9 360.7,210.9 			"/>
			<polygon class="st2" points="363.3,208.6 360.6,208.6 361.4,210.9 364.1,210.9 			"/>
			<polygon class="st2" points="366.6,208.6 363.9,208.6 364.7,210.9 367.4,210.9 			"/>
			<polygon class="st2" points="369.8,208.6 367.1,208.6 367.9,210.9 370.6,210.9 			"/>
		</g>
		<g>
			<polygon class="st2" points="375.7,215.2 373,215.2 373.8,217.4 376.5,217.4 			"/>
			<polygon class="st2" points="379.3,215.2 376.6,215.2 377.4,217.4 380.1,217.4 			"/>
			<polygon class="st2" points="382.7,215.2 380,215.2 380.8,217.4 383.5,217.4 			"/>
			<polygon class="st2" points="386.1,215.2 383.4,215.2 384.2,217.4 386.9,217.4 			"/>
			<polygon class="st2" points="389.3,215.2 386.6,215.2 387.4,217.4 390.1,217.4 			"/>
		</g>
		<path class="st2" d="M369.4,218.9h-24.9l-11.8-33.7c1.4-0.2,2.8-0.4,4.4-0.6c0.8-0.1,1.7-0.2,2.6-0.3c0.3,0,0.6-0.1,0.8-0.1
			c0.6-0.1,1.2-0.1,1.8-0.2c0.3,0,0.5-0.1,0.8-0.1c0.2,0,0.4,0,0.7-0.1c0.9-0.1,1.7-0.2,2.6-0.3c0.2,0,0.4,0,0.6-0.1
			c0.8-0.1,1.7-0.2,2.6-0.3c0.2,0,0.3,0,0.4,0c0.9-0.1,1.7-0.2,2.6-0.3c1.3-0.1,2.6-0.3,4-0.4l9.2,26.2l0.8,2.3l0.4,1l0.8,2.3l0.3,1
			l0.2,0.6l0.6,1.6l0.3,1L369.4,218.9z"/>
		<g>
			<polygon class="st2" points="374.6,211.9 371.9,211.9 372.7,214.2 375.4,214.2 			"/>
			<polygon class="st2" points="378.2,211.9 375.5,211.9 376.3,214.2 379,214.2 			"/>
			<polygon class="st2" points="381.6,211.9 378.9,211.9 379.7,214.2 382.4,214.2 			"/>
			<polygon class="st2" points="385,211.9 382.2,211.9 383,214.2 385.8,214.2 			"/>
			<polygon class="st2" points="388.1,211.9 385.4,211.9 386.2,214.2 388.9,214.2 			"/>
		</g>
		<g>
			<polygon class="st2" points="373.4,208.6 370.7,208.6 371.5,210.9 374.2,210.9 			"/>
			<polygon class="st2" points="377,208.6 374.3,208.6 375.1,210.9 377.8,210.9 			"/>
			<polygon class="st2" points="380.4,208.6 377.7,208.6 378.5,210.9 381.2,210.9 			"/>
			<polygon class="st2" points="383.8,208.6 381.1,208.6 381.9,210.9 384.6,210.9 			"/>
			<polygon class="st2" points="387,208.6 384.3,208.6 385.1,210.9 387.8,210.9 			"/>
		</g>
		<g>
			<polygon class="st2" points="369.6,197.7 366.9,197.7 367.7,200 370.4,200 			"/>
			<polygon class="st2" points="373.2,197.7 370.5,197.7 371.3,200 374,200 			"/>
			<polygon class="st2" points="376.6,197.7 373.9,197.7 374.7,200 377.4,200 			"/>
			<polygon class="st2" points="380,197.7 377.3,197.7 378.1,200 380.8,200 			"/>
			<polygon class="st2" points="383.2,197.7 380.4,197.7 381.2,200 384,200 			"/>
		</g>
		<g>
			<polygon class="st2" points="368.5,194.5 365.8,194.5 366.6,196.7 369.3,196.7 			"/>
			<polygon class="st2" points="372.1,194.5 369.4,194.5 370.2,196.7 372.9,196.7 			"/>
			<polygon class="st2" points="375.5,194.5 372.8,194.5 373.6,196.7 376.3,196.7 			"/>
			<polygon class="st2" points="378.8,194.5 376.1,194.5 376.9,196.7 379.6,196.7 			"/>
			<polygon class="st2" points="382,194.5 379.3,194.5 380.1,196.7 382.8,196.7 			"/>
		</g>
		<g>
			<polygon class="st2" points="367.3,191.2 364.6,191.2 365.4,193.5 368.1,193.5 			"/>
			<polygon class="st2" points="370.9,191.2 368.2,191.2 369,193.5 371.7,193.5 			"/>
			<polygon class="st2" points="374.3,191.2 371.6,191.2 372.4,193.5 375.1,193.5 			"/>
			<polygon class="st2" points="377.7,191.2 375,191.2 375.8,193.5 378.5,193.5 			"/>
			<polygon class="st2" points="380.9,191.2 378.2,191.2 379,193.5 381.7,193.5 			"/>
		</g>
		<g>
			<polygon class="st2" points="366.2,187.9 363.5,187.9 364.3,190.2 367,190.2 			"/>
			<polygon class="st2" points="369.8,187.9 367.1,187.9 367.9,190.2 370.6,190.2 			"/>
			<polygon class="st2" points="373.2,187.9 370.5,187.9 371.3,190.2 374,190.2 			"/>
			<polygon class="st2" points="376.6,187.9 373.8,187.9 374.6,190.2 377.3,190.2 			"/>
			<polygon class="st2" points="379.7,187.9 377,187.9 377.8,190.2 380.5,190.2 			"/>
		</g>
		<g>
			<polygon class="st2" points="365,184.7 362.3,184.7 363.1,186.9 365.8,186.9 			"/>
			<polygon class="st2" points="368.6,184.7 365.9,184.7 366.7,186.9 369.4,186.9 			"/>
			<polygon class="st2" points="372,184.7 369.3,184.7 370.1,186.9 372.8,186.9 			"/>
			<polygon class="st2" points="375.4,184.7 372.7,184.7 373.5,186.9 376.2,186.9 			"/>
			<polygon class="st2" points="378.6,184.7 375.9,184.7 376.7,186.9 379.4,186.9 			"/>
		</g>
		<g>
			<path class="st2" d="M364.7,183.7H362l-0.6-1.7c0.9-0.1,1.7-0.1,2.6-0.2L364.7,183.7z"/>
			<path class="st2" d="M368.3,183.7h-2.7l-0.7-2c0.9-0.1,1.8-0.1,2.6-0.2L368.3,183.7z"/>
			<polygon class="st2" points="370.9,181.4 368.2,181.4 369,183.7 371.7,183.7 			"/>
			<polygon class="st2" points="374.3,181.4 371.6,181.4 372.4,183.7 375.1,183.7 			"/>
			<polygon class="st2" points="377.4,181.4 374.7,181.4 375.5,183.7 378.2,183.7 			"/>
		</g>
		<g>
			<polygon class="st2" points="347.6,207 344.9,207 345.7,209.3 348.4,209.3 			"/>
			<polygon class="st2" points="351.2,207 348.5,207 349.3,209.3 352,209.3 			"/>
			<polygon class="st2" points="354.6,207 351.9,207 352.7,209.3 355.4,209.3 			"/>
			<polygon class="st2" points="357.9,207 355.2,207 356,209.3 358.7,209.3 			"/>
			<polygon class="st2" points="361.1,207 358.4,207 359.2,209.3 361.9,209.3 			"/>
		</g>
		<g>
			<polygon class="st2" points="346.4,203.8 343.7,203.8 344.5,206 347.2,206 			"/>
			<polygon class="st2" points="350,203.8 347.3,203.8 348.1,206 350.8,206 			"/>
			<polygon class="st2" points="353.4,203.8 350.7,203.8 351.5,206 354.2,206 			"/>
			<polygon class="st2" points="356.8,203.8 354.1,203.8 354.9,206 357.6,206 			"/>
			<polygon class="st2" points="360,203.8 357.3,203.8 358.1,206 360.8,206 			"/>
		</g>
		<g>
			<polygon class="st2" points="345.3,200.5 342.6,200.5 343.4,202.8 346.1,202.8 			"/>
			<polygon class="st2" points="348.9,200.5 346.2,200.5 347,202.8 349.7,202.8 			"/>
			<polygon class="st2" points="352.3,200.5 349.6,200.5 350.4,202.8 353.1,202.8 			"/>
			<polygon class="st2" points="355.7,200.5 352.9,200.5 353.7,202.8 356.5,202.8 			"/>
			<polygon class="st2" points="358.8,200.5 356.1,200.5 356.9,202.8 359.6,202.8 			"/>
		</g>
		<g>
			<polygon class="st2" points="340.1,185.8 337.4,185.8 338.2,188.1 340.9,188.1 			"/>
			<polygon class="st2" points="343.7,185.8 341,185.8 341.8,188.1 344.5,188.1 			"/>
			<polygon class="st2" points="347.1,185.8 344.4,185.8 345.2,188.1 347.9,188.1 			"/>
			<polygon class="st2" points="350.5,185.8 347.8,185.8 348.6,188.1 351.3,188.1 			"/>
			<polygon class="st2" points="353.7,185.8 351,185.8 351.8,188.1 354.5,188.1 			"/>
		</g>
		<g>
			<polygon class="st2" points="341.9,190.9 339.2,190.9 340,193.2 342.7,193.2 			"/>
			<polygon class="st2" points="345.5,190.9 342.8,190.9 343.6,193.2 346.3,193.2 			"/>
			<polygon class="st2" points="348.9,190.9 346.2,190.9 347,193.2 349.7,193.2 			"/>
			<polygon class="st2" points="352.3,190.9 349.6,190.9 350.4,193.2 353.1,193.2 			"/>
			<polygon class="st2" points="355.5,190.9 352.8,190.9 353.6,193.2 356.3,193.2 			"/>
		</g>
		<polygon class="st2" points="366,197.7 363.3,197.7 364.1,200 366.8,200 		"/>
		<polygon class="st2" points="364.8,194.5 362.1,194.5 362.9,196.7 365.6,196.7 		"/>
		<polygon class="st2" points="363.7,191.2 361,191.2 361.8,193.5 364.5,193.5 		"/>
		<polygon class="st2" points="362.6,187.9 359.8,187.9 360.6,190.2 363.4,190.2 		"/>
		<polygon class="st2" points="361.4,184.7 358.7,184.7 359.5,186.9 362.2,186.9 		"/>
		<path class="st2" d="M361.1,183.7h-2.7l-0.5-1.4c0.2,0,0.4,0,0.7-0.1c0.6-0.1,1.3-0.1,2-0.2L361.1,183.7z"/>
		<g>
			<path class="st2" d="M339.8,184.8h-2.7l-0.1-0.2c0.8-0.1,1.7-0.2,2.6-0.3L339.8,184.8z"/>
			<path class="st2" d="M343.4,184.8h-2.7l-0.2-0.6c0.6-0.1,1.2-0.1,1.8-0.2c0.3,0,0.5-0.1,0.8-0.1L343.4,184.8z"/>
			<path class="st2" d="M346.8,184.8h-2.7l-0.4-1c0.9-0.1,1.7-0.2,2.6-0.3L346.8,184.8z"/>
			<path class="st2" d="M350.2,184.8h-2.7l-0.5-1.4c0.8-0.1,1.7-0.2,2.6-0.3L350.2,184.8z"/>
			<path class="st2" d="M353.3,184.8h-2.7l-0.6-1.7c0.9-0.1,1.7-0.2,2.6-0.3L353.3,184.8z"/>
		</g>
		<path class="st2" d="M636.5,201.6h-11.7l4.2,12.1h-8.2l3.8,10.7H619l1.5,4.3h-5.8l-1.9,3.3l-4.2-3h-5.8l-16.8-47.9
			c1.5,0.1,2.9,0.2,4.5,0.3c16.2,1.2,35.8,3.3,59.1,7.1l1.5,5.9l-17.2,0L636.5,201.6z"/>
		<g>
			<g>
				<polygon class="st2" points="488.6,233.1 485.9,233.1 486.7,235.4 489.4,235.4 				"/>
				<polygon class="st2" points="492.2,233.1 489.5,233.1 490.3,235.4 493,235.4 				"/>
				<polygon class="st2" points="495.6,233.1 492.9,233.1 493.7,235.4 496.4,235.4 				"/>
				<polygon class="st2" points="499,233.1 496.3,233.1 497.1,235.4 499.8,235.4 				"/>
				<polygon class="st2" points="502.1,233.1 499.4,233.1 500.2,235.4 502.9,235.4 				"/>
			</g>
			<g>
				<polygon class="st2" points="487.5,229.9 484.7,229.9 485.5,232.1 488.2,232.1 				"/>
				<polygon class="st2" points="491,229.9 488.3,229.9 489.1,232.1 491.8,232.1 				"/>
				<polygon class="st2" points="494.5,229.9 491.7,229.9 492.5,232.1 495.3,232.1 				"/>
				<polygon class="st2" points="497.8,229.9 495.1,229.9 495.9,232.1 498.6,232.1 				"/>
				<polygon class="st2" points="501,229.9 498.3,229.9 499.1,232.1 501.8,232.1 				"/>
			</g>
			<g>
				<polygon class="st2" points="486.3,226.6 483.6,226.6 484.4,228.9 487.1,228.9 				"/>
				<polygon class="st2" points="489.9,226.6 487.2,226.6 488,228.9 490.7,228.9 				"/>
				<polygon class="st2" points="493.3,226.6 490.6,226.6 491.4,228.9 494.1,228.9 				"/>
				<polygon class="st2" points="496.7,226.6 494,226.6 494.8,228.9 497.5,228.9 				"/>
				<polygon class="st2" points="499.9,226.6 497.1,226.6 497.9,228.9 500.6,228.9 				"/>
			</g>
			<g>
				<polygon class="st2" points="485.2,223.3 482.5,223.3 483.3,225.6 486,225.6 				"/>
				<polygon class="st2" points="488.8,223.3 486.1,223.3 486.8,225.6 489.6,225.6 				"/>
				<polygon class="st2" points="492.2,223.3 489.5,223.3 490.3,225.6 493,225.6 				"/>
				<polygon class="st2" points="495.5,223.3 492.8,223.3 493.6,225.6 496.3,225.6 				"/>
				<polygon class="st2" points="498.7,223.3 496,223.3 496.8,225.6 499.5,225.6 				"/>
			</g>
			<g>
				<polygon class="st2" points="484,220.1 481.3,220.1 482.1,222.3 484.8,222.3 				"/>
				<polygon class="st2" points="487.6,220.1 484.9,220.1 485.7,222.3 488.4,222.3 				"/>
				<polygon class="st2" points="491,220.1 488.3,220.1 489.1,222.3 491.8,222.3 				"/>
				<polygon class="st2" points="494.4,220.1 491.7,220.1 492.5,222.3 495.2,222.3 				"/>
				<polygon class="st2" points="497.6,220.1 494.9,220.1 495.7,222.3 498.4,222.3 				"/>
			</g>
			<g>
				<polygon class="st2" points="482.9,216.8 480.2,216.8 481,219.1 483.7,219.1 				"/>
				<polygon class="st2" points="486.5,216.8 483.8,216.8 484.6,219.1 487.3,219.1 				"/>
				<polygon class="st2" points="489.9,216.8 487.2,216.8 488,219.1 490.7,219.1 				"/>
				<polygon class="st2" points="493.2,216.8 490.5,216.8 491.3,219.1 494,219.1 				"/>
				<polygon class="st2" points="496.4,216.8 493.7,216.8 494.5,219.1 497.2,219.1 				"/>
			</g>
			<g>
				<polygon class="st2" points="481.7,213.5 479,213.5 479.8,215.8 482.5,215.8 				"/>
				<polygon class="st2" points="485.3,213.5 482.6,213.5 483.4,215.8 486.1,215.8 				"/>
				<polygon class="st2" points="488.7,213.5 486,213.5 486.8,215.8 489.5,215.8 				"/>
				<polygon class="st2" points="492.1,213.5 489.4,213.5 490.2,215.8 492.9,215.8 				"/>
				<polygon class="st2" points="495.3,213.5 492.6,213.5 493.4,215.8 496.1,215.8 				"/>
			</g>
			<g>
				<polygon class="st2" points="480.6,210.3 477.9,210.3 478.7,212.6 481.4,212.6 				"/>
				<polygon class="st2" points="484.2,210.3 481.5,210.3 482.3,212.6 485,212.6 				"/>
				<polygon class="st2" points="487.6,210.3 484.9,210.3 485.7,212.6 488.4,212.6 				"/>
				<polygon class="st2" points="491,210.3 488.3,210.3 489,212.6 491.8,212.6 				"/>
				<polygon class="st2" points="494.1,210.3 491.4,210.3 492.2,212.6 494.9,212.6 				"/>
			</g>
			<g>
				<polygon class="st2" points="479.4,207 476.7,207 477.5,209.3 480.2,209.3 				"/>
				<polygon class="st2" points="483,207 480.3,207 481.1,209.3 483.8,209.3 				"/>
				<polygon class="st2" points="486.5,207 483.7,207 484.5,209.3 487.3,209.3 				"/>
				<polygon class="st2" points="489.8,207 487.1,207 487.9,209.3 490.6,209.3 				"/>
				<polygon class="st2" points="493,207 490.3,207 491.1,209.3 493.8,209.3 				"/>
			</g>
			<g>
				<polygon class="st2" points="478.3,203.8 475.6,203.8 476.4,206 479.1,206 				"/>
				<polygon class="st2" points="481.9,203.8 479.2,203.8 480,206 482.7,206 				"/>
				<polygon class="st2" points="485.3,203.8 482.6,203.8 483.4,206 486.1,206 				"/>
				<polygon class="st2" points="488.7,203.8 486,203.8 486.8,206 489.5,206 				"/>
				<polygon class="st2" points="491.8,203.8 489.1,203.8 489.9,206 492.6,206 				"/>
			</g>
			<g>
				<polygon class="st2" points="477.2,200.5 474.5,200.5 475.2,202.8 478,202.8 				"/>
				<polygon class="st2" points="480.8,200.5 478,200.5 478.8,202.8 481.6,202.8 				"/>
				<polygon class="st2" points="484.2,200.5 481.5,200.5 482.3,202.8 485,202.8 				"/>
				<polygon class="st2" points="487.5,200.5 484.8,200.5 485.6,202.8 488.3,202.8 				"/>
				<polygon class="st2" points="490.7,200.5 488,200.5 488.8,202.8 491.5,202.8 				"/>
			</g>
			<g>
				<polygon class="st2" points="476,197.2 473.3,197.2 474.1,199.5 476.8,199.5 				"/>
				<polygon class="st2" points="479.6,197.2 476.9,197.2 477.7,199.5 480.4,199.5 				"/>
				<polygon class="st2" points="483,197.2 480.3,197.2 481.1,199.5 483.8,199.5 				"/>
				<polygon class="st2" points="486.4,197.2 483.7,197.2 484.5,199.5 487.2,199.5 				"/>
				<polygon class="st2" points="489.6,197.2 486.9,197.2 487.7,199.5 490.4,199.5 				"/>
			</g>
			<g>
				<polygon class="st2" points="474.9,194 472.2,194 473,196.2 475.7,196.2 				"/>
				<polygon class="st2" points="478.5,194 475.8,194 476.6,196.2 479.3,196.2 				"/>
				<polygon class="st2" points="481.9,194 479.2,194 480,196.2 482.7,196.2 				"/>
				<polygon class="st2" points="485.2,194 482.5,194 483.3,196.2 486,196.2 				"/>
				<polygon class="st2" points="488.4,194 485.7,194 486.5,196.2 489.2,196.2 				"/>
			</g>
			<g>
				<polygon class="st2" points="473.7,190.7 471,190.7 471.8,193 474.5,193 				"/>
				<polygon class="st2" points="477.3,190.7 474.6,190.7 475.4,193 478.1,193 				"/>
				<polygon class="st2" points="480.7,190.7 478,190.7 478.8,193 481.5,193 				"/>
				<polygon class="st2" points="484.1,190.7 481.4,190.7 482.2,193 484.9,193 				"/>
				<polygon class="st2" points="487.3,190.7 484.6,190.7 485.4,193 488.1,193 				"/>
			</g>
		</g>
		<path class="st2" d="M370.9,217.4L370.9,217.4l-1,1l-0.4,0.4l-0.2-0.4l-0.3-1l-0.6-1.6l-0.2-0.6l-0.3-1l-0.8-2.3l-0.4-1l-0.8-2.3
			l-9.2-26.2c0.4,0,0.8-0.1,1.3-0.1c0.2,0,0.4,0,0.7-0.1l0.5,1.5l0.4,1l0.8,2.3l0.3,1l0.8,2.3l0.3,1l0.8,2.3l0.4,1l0.8,2.3l0.3,1
			l0.8,2.3l3,8.7l0.8,2.3l0.3,1l0.8,2.3l0.3,1l0.2,0.6L370.9,217.4z"/>
		<path class="st2" d="M553.5,215.9l3.8,10.8h-16.2l1.8,5H528l-6.2-17.8l-10.5-29.9c4.3-0.3,8.1-0.6,11.3-1
			c5.9-0.6,9.9-1.3,11.3-1.5c0.4-0.1,0.6-0.1,0.6-0.1s3.5-0.5,10.6-0.9l12.4,35.3H553.5z"/>
		<path class="st2" d="M585.2,234.1l-18.6,8h-11.5l-2.8-8l-2.6-7.4l-15.8-45.2c0.4-0.1,0.6-0.1,0.6-0.1s3.5-0.5,10.6-0.9
			c4.7-0.2,11.1-0.4,19-0.3c0.8,0,1.5,0,2.3,0L585.2,234.1L585.2,234.1z"/>
		<path class="st2" d="M604.4,270.2l-4.7-13.5l-7.9-22.6h-8.9l-18.8-53.7c0.8,0,1.5,0,2.3,0c5.8,0.1,12.3,0.4,19.7,0.8
			c1.5,0.1,2.9,0.2,4.5,0.3l8.7,24.7l-1.2,2l2.3,6.7l-1.3,3.1l3.9,11.1l1.7,5h-5.5l4.4,12.5l-1.3,0.2l1.2,3.5h-1.4l2.7,7.6l-1.3,0.1
			l3,8.5c-0.1-0.1-1.2-0.4,0.3,3.9C607.6,274.6,604.4,270.2,604.4,270.2z"/>
		<g>
			<g>
				<polygon class="st2" points="585.6,226.8 582.9,226.8 583.7,229.1 586.4,229.1 				"/>
				<polygon class="st2" points="589.2,226.8 586.5,226.8 587.3,229.1 590,229.1 				"/>
				<polygon class="st2" points="592.6,226.8 589.9,226.8 590.7,229.1 593.4,229.1 				"/>
				<polygon class="st2" points="596,226.8 593.3,226.8 594.1,229.1 596.8,229.1 				"/>
				<polygon class="st2" points="599.1,226.8 596.4,226.8 597.2,229.1 599.9,229.1 				"/>
			</g>
			<g>
				<polygon class="st2" points="584.5,223.5 581.8,223.5 582.6,225.8 585.3,225.8 				"/>
				<polygon class="st2" points="588.1,223.5 585.3,223.5 586.1,225.8 588.9,225.8 				"/>
				<polygon class="st2" points="591.5,223.5 588.8,223.5 589.6,225.8 592.3,225.8 				"/>
				<polygon class="st2" points="594.8,223.5 592.1,223.5 592.9,225.8 595.6,225.8 				"/>
				<polygon class="st2" points="598,223.5 595.3,223.5 596.1,225.8 598.8,225.8 				"/>
			</g>
			<g>
				<polygon class="st2" points="583.3,220.3 580.6,220.3 581.4,222.6 584.1,222.6 				"/>
				<polygon class="st2" points="586.9,220.3 584.2,220.3 585,222.6 587.7,222.6 				"/>
				<polygon class="st2" points="590.3,220.3 587.6,220.3 588.4,222.6 591.1,222.6 				"/>
				<polygon class="st2" points="593.7,220.3 591,220.3 591.8,222.6 594.5,222.6 				"/>
				<polygon class="st2" points="596.9,220.3 594.2,220.3 595,222.6 597.7,222.6 				"/>
			</g>
			<g>
				<polygon class="st2" points="582.2,217 579.5,217 580.3,219.3 583,219.3 				"/>
				<polygon class="st2" points="585.8,217 583.1,217 583.9,219.3 586.6,219.3 				"/>
				<polygon class="st2" points="589.2,217 586.5,217 587.3,219.3 590,219.3 				"/>
				<polygon class="st2" points="592.5,217 589.8,217 590.6,219.3 593.3,219.3 				"/>
				<polygon class="st2" points="595.7,217 593,217 593.8,219.3 596.5,219.3 				"/>
			</g>
			<g>
				<polygon class="st2" points="581,213.8 578.3,213.8 579.1,216 581.8,216 				"/>
				<polygon class="st2" points="584.6,213.8 581.9,213.8 582.7,216 585.4,216 				"/>
				<polygon class="st2" points="588,213.8 585.3,213.8 586.1,216 588.8,216 				"/>
				<polygon class="st2" points="591.4,213.8 588.7,213.8 589.5,216 592.2,216 				"/>
				<polygon class="st2" points="594.6,213.8 591.9,213.8 592.7,216 595.4,216 				"/>
			</g>
			<g>
				<polygon class="st2" points="579.9,210.5 577.2,210.5 578,212.8 580.7,212.8 				"/>
				<polygon class="st2" points="583.5,210.5 580.8,210.5 581.6,212.8 584.3,212.8 				"/>
				<polygon class="st2" points="586.9,210.5 584.2,210.5 585,212.8 587.7,212.8 				"/>
				<polygon class="st2" points="590.3,210.5 587.5,210.5 588.3,212.8 591.1,212.8 				"/>
				<polygon class="st2" points="593.4,210.5 590.7,210.5 591.5,212.8 594.2,212.8 				"/>
			</g>
			<g>
				<polygon class="st2" points="578.7,207.2 576,207.2 576.8,209.5 579.5,209.5 				"/>
				<polygon class="st2" points="582.3,207.2 579.6,207.2 580.4,209.5 583.1,209.5 				"/>
				<polygon class="st2" points="585.8,207.2 583,207.2 583.8,209.5 586.5,209.5 				"/>
				<polygon class="st2" points="589.1,207.2 586.4,207.2 587.2,209.5 589.9,209.5 				"/>
				<polygon class="st2" points="592.3,207.2 589.6,207.2 590.4,209.5 593.1,209.5 				"/>
			</g>
			<g>
				<polygon class="st2" points="577.6,204 574.9,204 575.7,206.2 578.4,206.2 				"/>
				<polygon class="st2" points="581.2,204 578.5,204 579.3,206.2 582,206.2 				"/>
				<polygon class="st2" points="584.6,204 581.9,204 582.7,206.2 585.4,206.2 				"/>
				<polygon class="st2" points="588,204 585.3,204 586.1,206.2 588.8,206.2 				"/>
				<polygon class="st2" points="591.1,204 588.4,204 589.2,206.2 591.9,206.2 				"/>
			</g>
			<g>
				<polygon class="st2" points="576.5,200.7 573.7,200.7 574.5,203 577.3,203 				"/>
				<polygon class="st2" points="580.1,200.7 577.3,200.7 578.1,203 580.9,203 				"/>
				<polygon class="st2" points="583.5,200.7 580.8,200.7 581.6,203 584.3,203 				"/>
				<polygon class="st2" points="586.8,200.7 584.1,200.7 584.9,203 587.6,203 				"/>
				<polygon class="st2" points="590,200.7 587.3,200.7 588.1,203 590.8,203 				"/>
			</g>
			<g>
				<polygon class="st2" points="575.3,197.4 572.6,197.4 573.4,199.7 576.1,199.7 				"/>
				<polygon class="st2" points="578.9,197.4 576.2,197.4 577,199.7 579.7,199.7 				"/>
				<polygon class="st2" points="582.3,197.4 579.6,197.4 580.4,199.7 583.1,199.7 				"/>
				<polygon class="st2" points="585.7,197.4 583,197.4 583.8,199.7 586.5,199.7 				"/>
				<polygon class="st2" points="588.9,197.4 586.2,197.4 586.9,199.7 589.7,199.7 				"/>
			</g>
			<g>
				<polygon class="st2" points="574.2,194.2 571.5,194.2 572.3,196.4 575,196.4 				"/>
				<polygon class="st2" points="577.8,194.2 575.1,194.2 575.9,196.4 578.6,196.4 				"/>
				<polygon class="st2" points="581.2,194.2 578.5,194.2 579.3,196.4 582,196.4 				"/>
				<polygon class="st2" points="584.5,194.2 581.8,194.2 582.6,196.4 585.3,196.4 				"/>
				<polygon class="st2" points="587.7,194.2 585,194.2 585.8,196.4 588.5,196.4 				"/>
			</g>
			<g>
				<polygon class="st2" points="573,190.9 570.3,190.9 571.1,193.2 573.8,193.2 				"/>
				<polygon class="st2" points="576.6,190.9 573.9,190.9 574.7,193.2 577.4,193.2 				"/>
				<polygon class="st2" points="580,190.9 577.3,190.9 578.1,193.2 580.8,193.2 				"/>
				<polygon class="st2" points="583.4,190.9 580.7,190.9 581.5,193.2 584.2,193.2 				"/>
				<polygon class="st2" points="586.6,190.9 583.9,190.9 584.7,193.2 587.4,193.2 				"/>
			</g>
			<g>
				<polygon class="st2" points="571.9,187.6 569.2,187.6 570,189.9 572.7,189.9 				"/>
				<polygon class="st2" points="575.5,187.6 572.8,187.6 573.6,189.9 576.3,189.9 				"/>
				<polygon class="st2" points="578.9,187.6 576.2,187.6 577,189.9 579.7,189.9 				"/>
				<polygon class="st2" points="582.3,187.6 579.5,187.6 580.3,189.9 583.1,189.9 				"/>
				<polygon class="st2" points="585.4,187.6 582.7,187.6 583.5,189.9 586.2,189.9 				"/>
			</g>
			<g>
				<polygon class="st2" points="570.7,184.4 568,184.4 568.8,186.7 571.5,186.7 				"/>
				<polygon class="st2" points="574.3,184.4 571.6,184.4 572.4,186.7 575.1,186.7 				"/>
				<polygon class="st2" points="577.7,184.4 575,184.4 575.8,186.7 578.5,186.7 				"/>
				<polygon class="st2" points="581.1,184.4 578.4,184.4 579.2,186.7 581.9,186.7 				"/>
				<polygon class="st2" points="584.3,184.4 581.6,184.4 582.4,186.7 585.1,186.7 				"/>
			</g>
		</g>
		<path class="st2" d="M511.6,249.6L511.6,249.6c0.1,0.4,0.4,0.6,0.5,0.6h28.3c0.2,0,0.2-0.3,0.1-0.6l0,0c-0.1-0.4-0.4-0.6-0.5-0.6
			h-28.3C511.5,248.9,511.5,249.2,511.6,249.6z"/>
	</g>
	<rect x="647.6" y="261" class="st7" width="74.7" height="50"/>
	<path class="st12" d="M705.6,292.6h-41.4c-5.6,0-10.1-4.6-10.1-10.1l0,0c0-5.6,4.6-10.1,10.1-10.1h41.4c5.6,0,10.1,4.6,10.1,10.1
		l0,0C715.8,288,711.2,292.6,705.6,292.6z"/>
	<path class="st8" d="M684.2,259.8h42.7c1.7,0,2.2-3.3,0.7-4.5l-18.8-14.6l-23.9-18.6c-0.5-0.4-1-0.4-1.4,0l-23.9,18.6l-18.8,14.6
		c-1.5,1.1-0.9,4.5,0.7,4.5H684.2z"/>
	<g>
		<polygon class="st14" points="664.8,259.8 680.5,224.4 678.6,225.9 658.5,259.8 		"/>
		<polygon class="st14" points="683.4,222.2 681.7,223.5 669.8,259.8 679.5,259.8 		"/>
		<path class="st14" d="M728,255.7c-0.1-0.1-0.2-0.3-0.4-0.4l-0.7-0.6L728,255.7z"/>
		<path class="st14" d="M684.7,222.1c-0.2-0.1-0.3-0.2-0.5-0.2l3.9,37.9h9L684.7,222.1z"/>
		<polygon class="st14" points="690.2,226.3 715,259.8 723.7,259.8 698.6,232.8 		"/>
		<polygon class="st14" points="687.8,224.4 685.5,222.7 702.1,259.8 708.8,259.8 		"/>
		<polygon class="st14" points="675.6,228.2 668.3,233.9 644.2,259.8 652.2,259.8 		"/>
	</g>
	<path class="st15" d="M829.2,231c-0.1,0-0.2,0-0.3,0.1c-0.1-0.2-0.2-0.3-0.3-0.5C828.9,230.7,829.1,230.8,829.2,231z"/>
	<g>
		<path class="st8" d="M817.6,263.6c0,1.2-0.3,2.4-1,3.4c-2.3,3.9-8.6,6.7-15.9,6.7c-1.3,0-2.5-0.1-3.7-0.3c0,0,0,0,0,0
			c-0.5,0.2-0.9,0.4-0.9,0.4l0,2.8l0.1,23l1,6.3v2.2c0,0-0.1,0.6-0.6,0.7c-0.5,0.1-5.7-0.1-5.7-0.1v-2.5c0,0,0-2.8,0-3.2
			c0-0.4,0.4-3.2,0.4-3.2s0-2.9,0-3.1c0-0.2,0.3-4.4,0.1-4.7c-0.2-0.3,0-4.8,0-5.7c0-0.6-0.9-6.2-1.8-9.7c-0.4-1.7-0.8-2.9-1.1-2.9
			c-0.2,0-0.5-0.2-0.9-0.3c-1,0.2-2.1,0.3-3.1,0.3c-7.2,0-13.1-4.1-14.6-9.6c-0.2-0.9-0.3-1.7-0.3-2.6c0-3.6,1.9-6.8,4.8-9
			c0-6.1,7-11,15.6-11c4.9,0,9.4,1.6,12.2,4.2c7.7,1.4,13.3,5.7,13.3,10.7c0,0.7-0.1,1.3-0.3,1.9
			C816.7,259.9,817.6,261.7,817.6,263.6z"/>
		<path class="st16" d="M816.6,267c-2.3,3.9-8.6,6.7-15.9,6.7c-1.3,0-2.5-0.1-3.7-0.3c0,0,0,0,0,0c-0.5,0.2-0.9,0.4-0.9,0.4l0,2.8
			c-1.1,0.1-7.4-2.8-7.7-2.9c-0.2,0-0.5-0.2-0.9-0.3c-1,0.2-2.1,0.3-3.1,0.3c-7.2,0-13.1-4.1-14.6-9.6c0.8-1,0.9-3.2,3.5-2.8
			c2.5,0.3,11.4-7.4,19.4-4c8,3.4,14.3-1.3,16.8,2.6C812.9,260.6,817.2,261.3,816.6,267z"/>
		<path class="st9" d="M810.4,258.7c0-3.4-4.6-6.1-10.2-6.1c-1.1,0-2.1,0.1-3.1,0.3c-1.5-2.2-5.2-3.8-9.5-3.8
			c-5.6,0-10.2,2.7-10.2,6.1c0,0.5,0.1,1,0.3,1.4c-4.7,0.6-8.2,3-8.2,5.9c0,2.1,1.7,3.9,4.3,5c1.7,2,5.1,3.3,9.1,3.3
			c2.4,0,4.6-0.5,6.3-1.3c1.9,1.3,4.5,2.1,7.4,2.1c5.9,0,10.7-3.4,10.7-7.6c0-0.3,0-0.7-0.1-1C809.2,261.9,810.4,260.4,810.4,258.7z
			 M790.7,260.9c-0.1-0.1-0.1-0.2-0.2-0.3c0.1,0.1,0.3,0.2,0.4,0.3C790.8,260.9,790.8,260.9,790.7,260.9z"/>
		<path class="st9" d="M817.2,254.7c0-3.4-4.6-6.1-10.2-6.1c-1.1,0-2.1,0.1-3.1,0.3c-1.5-2.2-5.2-3.8-9.5-3.8
			c-5.6,0-10.2,2.7-10.2,6.1c0,0.5,0.1,1,0.3,1.4c-4.7,0.6-8.2,3-8.2,5.9c0,2.1,1.7,3.9,4.3,5c1.7,2,5.1,3.3,9.1,3.3
			c2.4,0,4.6-0.5,6.3-1.3c1.9,1.3,4.5,2.1,7.4,2.1c5.9,0,10.7-3.4,10.7-7.6c0-0.3,0-0.7-0.1-1C816,258,817.2,256.4,817.2,254.7z
			 M797.5,257c-0.1-0.1-0.1-0.2-0.2-0.3c0.1,0.1,0.3,0.2,0.4,0.3C797.6,257,797.6,257,797.5,257z"/>
	</g>
	<path class="st2" d="M308.7,231.6c0,2-0.6,4-1.7,5.8c-4,6.6-14.6,11.4-27.1,11.4c-2.2,0-4.3-0.1-6.4-0.4c0,0,0,0,0,0
		c-0.8,0.3-1.5,0.7-1.5,0.7l0,4.8l0.1,39.3l1.7,10.8v3.8c0,0-0.2,1-1,1.1c-0.8,0.1-9.8-0.2-9.8-0.2v-4.2c0,0,0-4.8,0-5.5
		c0-0.7,0.7-5.5,0.7-5.5s0-4.9,0-5.2c0-0.3,0.4-7.6,0.1-8.1c-0.3-0.5,0-8.3,0-9.7c0-1-1.6-10.5-3.1-16.5c-0.7-2.8-1.4-4.9-1.9-5
		c-0.4,0-0.9-0.3-1.5-0.5c-1.7,0.3-3.5,0.5-5.3,0.5c-12.2,0-22.5-7-25-16.4c-0.4-1.5-0.6-3-0.6-4.5c0-6.1,3.2-11.6,8.2-15.4
		c0.1-10.4,12-18.8,26.6-18.8c8.5,0,16,2.8,20.9,7.2c13.2,2.4,22.8,9.7,22.8,18.3c0,1.1-0.2,2.2-0.5,3.3
		C307.1,225.3,308.7,228.3,308.7,231.6z"/>
	<path class="st16" d="M307,237.5c-4,6.6-14.6,11.4-27.1,11.4c-2.2,0-4.3-0.1-6.4-0.4c0,0,0,0,0,0c-0.8,0.3-1.5,0.7-1.5,0.7l0,4.8
		c-1.9,0.1-12.6-4.9-13.1-4.9c-0.4,0-0.9-0.3-1.5-0.5c-1.7,0.3-3.5,0.5-5.3,0.5c-12.2,0-22.5-7-25-16.4c1.3-1.8,1.6-5.4,5.9-4.8
		s19.5-12.7,33.1-6.9c13.7,5.7,24.4-2.2,28.7,4.4C300.5,226.4,307.9,227.7,307,237.5z"/>
	<path class="st9" d="M296.3,223.2c0-5.7-7.8-10.4-17.5-10.4c-1.8,0-3.6,0.2-5.2,0.5c-2.6-3.8-8.9-6.5-16.2-6.5
		c-9.6,0-17.4,4.6-17.4,10.4c0,0.8,0.2,1.6,0.5,2.4c-8,1-14,5.2-14,10.2c0,3.5,2.9,6.6,7.4,8.5c2.9,3.4,8.8,5.7,15.6,5.7
		c4.1,0,7.8-0.8,10.7-2.2c3.3,2.2,7.7,3.6,12.6,3.6c10.1,0,18.2-5.8,18.2-13c0-0.6,0-1.2-0.2-1.7
		C294.2,228.7,296.3,226.1,296.3,223.2z M262.6,227.1c-0.1-0.2-0.2-0.4-0.3-0.5c0.2,0.2,0.5,0.3,0.7,0.5
		C262.9,227,262.8,227,262.6,227.1z"/>
	<path class="st15" d="M829.2,231c-0.1,0-0.2,0-0.3,0.1c-0.1-0.2-0.2-0.3-0.3-0.5C828.9,230.7,829.1,230.8,829.2,231z"/>
	<path class="st15" d="M829.2,231c-0.1,0-0.2,0-0.3,0.1c-0.1-0.2-0.2-0.3-0.3-0.5C828.9,230.7,829.1,230.8,829.2,231z"/>
	<path class="st15" d="M829.2,231c-0.1,0-0.2,0-0.3,0.1c-0.1-0.2-0.2-0.3-0.3-0.5C828.9,230.7,829.1,230.8,829.2,231z"/>
	<path class="st6" d="M488.6,58.3L488.6,58.3c0-0.6,0.5-1.1,1.1-1.1h26.7c0.6,0,1.1,0.5,1.1,1.1v0c0,0.6-0.5,1.1-1.1,1.1h-26.7
		C489.1,59.4,488.6,58.9,488.6,58.3z"/>
	<path class="st7" d="M640.5,293.7v17.1c0,0.1,0,0.1,0,0.2h-9.9c-0.3,0-0.6,0-0.9,0.1v-12.3c0-1.6,0.9-2.9,2.1-3.7v-1.3
		c0-2.4,2-4.3,4.4-4.3c1.2,0,2.3,0.5,3.1,1.3C640,291.4,640.5,292.5,640.5,293.7z"/>
	<polygon class="st2" points="784.6,313.4 784.2,312.9 781.6,312.9 779.8,311 773.4,311 775.2,312.9 752.6,312.9 750.8,311 
		744.2,311 746,312.9 744.2,312.9 744.7,313.4 	"/>
	<polygon class="st12" points="732.7,322.4 658.1,322.4 647.6,311 722.2,311 	"/>
	<path class="st12" d="M695.1,322.2h42.7c1.7,0,2.9,0.8,1.7,1l-15.8,3.3l-20,4.2c-0.4,0.1-0.9,0.1-1.4,0l-27.8-4.2l-21.9-3.3
		c-1.7-0.3-1.9-1-0.2-1H695.1z"/>
	<path class="st12" d="M846.2,329.5c-0.1,0-0.2,0-0.3,0c-0.1,0-0.1,0.1-0.2,0.1C845.9,329.6,846,329.6,846.2,329.5z"/>
	<g>
		<path class="st12" d="M827.7,322.1c-0.3-0.3-0.8-0.5-1.7-0.8c-3.2-0.9-10-1.5-17.3-1.5c-1.3,0-2.5,0-3.7,0.1c0,0,0,0,0,0
			c-0.5,0-1-0.1-1-0.1l-0.6-0.6l-4.8-5.2l-0.3-1.4l-0.5-0.5c0,0-0.2-0.1-0.7-0.2c-0.5,0-5.7,0-5.7,0l0.5,0.6c0,0,0.6,0.6,0.7,0.7
			s1.1,0.7,1.1,0.7s0.6,0.7,0.6,0.7c0,0,1.2,1,1.1,1.1c-0.1,0.1,1,1.1,1.2,1.3c0.1,0.1,0.4,1.4,0.2,2.2c-0.1,0.4-0.2,0.7-0.5,0.7
			c-0.2,0-0.5,0-0.8,0.1c-1,0-2.1-0.1-3.2-0.1c-7.2,0-12.3,0.9-12.6,2.2c0,0.2,0,0.4,0.2,0.6c0.7,0.8,3.3,1.5,6.7,2.1
			c1.3,1.4,9.3,2.5,17.9,2.5c4.9,0,9-0.4,11.3-1c7.4-0.3,12.1-1.3,11.1-2.4c-0.1-0.2-0.4-0.3-0.7-0.4
			C827.6,322.9,828.1,322.5,827.7,322.1z"/>
		<path class="st12" d="M826,321.3c-3.2-0.9-10-1.5-17.3-1.5c-1.3,0-2.5,0-3.7,0.1c0,0,0,0,0,0c-0.5,0-1-0.1-1-0.1l-0.6-0.6
			c-1.1,0-6.8,0.6-7.1,0.7c-0.2,0-0.5,0-0.8,0.1c-1,0-2.1-0.1-3.2-0.1c-7.2,0-12.3,0.9-12.6,2.2c1,0.2,1.6,0.7,4.1,0.6
			c2.5-0.1,12.9,1.7,20.2,0.9c7.3-0.8,14.6,0.3,16.2-0.6C823.6,322.8,827.8,322.6,826,321.3z"/>
		<path class="st12" d="M821.5,323.2c0.7,0.8-3.3,1.4-8.9,1.4c-1.1,0-2.1,0-3.1-0.1c-1.1,0.5-4.4,0.9-8.7,0.9
			c-5.6,0-10.8-0.6-11.5-1.4c-0.1-0.1-0.1-0.2,0-0.3c-4.8-0.1-8.8-0.7-9.4-1.4c-0.4-0.5,0.9-0.9,3.3-1.1c1.3-0.4,4.4-0.8,8.4-0.8
			c2.4,0,4.7,0.1,6.6,0.3c1.6-0.3,4.1-0.5,6.9-0.5c5.9,0,11.4,0.8,12.3,1.7c0.1,0.1,0.1,0.2,0.1,0.2
			C819.6,322.5,821.2,322.8,821.5,323.2z M801.4,322.7c-0.1,0-0.1,0-0.1,0.1c0.1,0,0.2,0,0.3-0.1
			C801.5,322.7,801.4,322.7,801.4,322.7z"/>
		<path class="st12" d="M829.1,324.1c0.7,0.8-3.3,1.4-8.9,1.4c-1.1,0-2.1,0-3.1-0.1c-1.1,0.5-4.4,0.9-8.7,0.9
			c-5.6,0-10.8-0.6-11.5-1.4c-0.1-0.1-0.1-0.2,0-0.3c-4.8-0.1-8.8-0.7-9.4-1.4c-0.4-0.5,0.9-0.9,3.3-1.1c1.3-0.4,4.4-0.8,8.4-0.8
			c2.4,0,4.7,0.1,6.6,0.3c1.6-0.3,4.1-0.5,6.9-0.5c5.9,0,11.4,0.8,12.3,1.7c0.1,0.1,0.1,0.2,0.1,0.2
			C827.2,323.4,828.8,323.7,829.1,324.1z M809,323.6c-0.1,0-0.1,0-0.1,0.1c0.1,0,0.2,0,0.3-0.1C809.1,323.6,809,323.6,809,323.6z"/>
	</g>
	<g>
		<path class="st12" d="M324.9,326.1c-0.4-0.5-1.4-0.9-2.9-1.3c-5.4-1.5-17-2.6-29.5-2.6c-2.2,0-4.3,0-6.3,0.1c0,0,0,0,0,0
			c-0.9-0.1-1.7-0.2-1.7-0.2l-1-1.1l-8.2-9l-0.5-2.5l-0.8-0.9c0,0-0.4-0.2-1.3-0.3c-0.9,0-9.8,0-9.8,0l0.9,1c0,0,1,1.1,1.2,1.3
			c0.2,0.2,1.9,1.3,1.9,1.3s1.1,1.1,1.1,1.2c0,0.1,2,1.7,1.8,1.8c-0.2,0.1,1.7,1.9,2,2.2c0.2,0.2,0.6,2.4,0.4,3.8
			c-0.1,0.6-0.4,1.1-0.8,1.1c-0.4,0-0.9,0.1-1.4,0.1c-1.8-0.1-3.6-0.1-5.4-0.1c-12.2,0-21,1.6-21.5,3.7c-0.1,0.3,0,0.7,0.4,1
			c1.3,1.4,5.6,2.6,11.5,3.5c2.2,2.4,15.9,4.3,30.6,4.3c8.5,0,15.4-0.6,19.4-1.6c12.7-0.5,20.7-2.2,18.9-4.2
			c-0.2-0.3-0.6-0.5-1.2-0.8C324.7,327.6,325.6,326.9,324.9,326.1z"/>
		<path class="st12" d="M322,324.8c-5.4-1.5-17-2.6-29.5-2.6c-2.2,0-4.3,0-6.3,0.1c0,0,0,0,0,0c-0.9-0.1-1.7-0.2-1.7-0.2l-1-1.1
			c-1.9,0-11.6,1.1-12.1,1.1c-0.4,0-0.9,0.1-1.4,0.1c-1.8-0.1-3.6-0.1-5.4-0.1c-12.2,0-21,1.6-21.5,3.7c1.7,0.4,2.7,1.2,7,1.1
			c4.2-0.1,22.1,2.9,34.6,1.6c12.5-1.3,24.9,0.5,27.8-1C317.9,327.3,325,327,322,324.8z"/>
		<path class="st12" d="M314.3,328c1.2,1.3-5.6,2.4-15.3,2.4c-1.8,0-3.6,0-5.3-0.1c-1.8,0.9-7.5,1.5-14.8,1.5
			c-9.6,0-18.4-1.1-19.6-2.4c-0.2-0.2-0.2-0.4,0-0.5c-8.2-0.2-15.1-1.2-16.1-2.3c-0.7-0.8,1.5-1.5,5.6-1.9c2.2-0.8,7.6-1.3,14.4-1.3
			c4.1,0,8,0.2,11.2,0.5c2.8-0.5,7-0.8,11.9-0.8c10.1,0,19.5,1.3,21,3c0.1,0.1,0.2,0.3,0.2,0.4C311.1,326.8,313.7,327.4,314.3,328z
			 M279.9,327.1c-0.1,0-0.2,0.1-0.2,0.1c0.2,0,0.4-0.1,0.6-0.1C280.1,327.2,280,327.2,279.9,327.1z"/>
		<path class="st12" d="M327.3,329.6c1.2,1.3-5.6,2.4-15.3,2.4c-1.8,0-3.6,0-5.3-0.1c-1.8,0.9-7.5,1.5-14.8,1.5
			c-9.6,0-18.4-1.1-19.6-2.4c-0.2-0.2-0.2-0.4,0-0.5c-8.2-0.2-15.1-1.2-16.1-2.3c-0.7-0.8,1.5-1.5,5.6-1.9c2.2-0.8,7.6-1.3,14.4-1.3
			c4.1,0,8,0.2,11.2,0.5c2.8-0.5,7-0.8,11.9-0.8c10.1,0,19.5,1.3,21,3c0.1,0.1,0.2,0.3,0.2,0.4C324.1,328.3,326.7,328.9,327.3,329.6
			z M292.9,328.7c-0.1,0-0.2,0.1-0.2,0.1c0.2,0,0.4-0.1,0.6-0.1C293.1,328.7,293,328.7,292.9,328.7z"/>
	</g>
	<path class="st12" d="M846.2,329.5c-0.1,0-0.2,0-0.3,0c-0.1,0-0.1,0.1-0.2,0.1C845.9,329.6,846,329.6,846.2,329.5z"/>
	<path class="st12" d="M846.2,329.5c-0.1,0-0.2,0-0.3,0c-0.1,0-0.1,0.1-0.2,0.1C845.9,329.6,846,329.6,846.2,329.5z"/>
	<path class="st12" d="M846.2,329.5c-0.1,0-0.2,0-0.3,0c-0.1,0-0.1,0.1-0.2,0.1C845.9,329.6,846,329.6,846.2,329.5z"/>
	<path class="st17" d="M644.1,314.9l-3.6-3.9c0,0,0,0,0,0h-9.9c-0.3,0-0.6,0-0.9,0l2.6,2.8c0.3,0.4,1.5,0.7,2.9,0.8l0.3,0.3
		c0.5,0.5,2.9,1,5.3,1c1.2,0,2.2-0.1,2.8-0.3C644.1,315.5,644.4,315.2,644.1,314.9z"/>
	<path class="st18" d="M307,237.5c-4,6.6-14.6,11.4-27.1,11.4c-2.2,0-4.3-0.1-6.4-0.4c0,0,0,0,0,0c-0.8,0.3-1.5,0.7-1.5,0.7l0,4.8
		c-1.9,0.1-12.6-4.9-13.1-4.9c-0.4,0-0.9-0.3-1.5-0.5c-1.7,0.3-3.5,0.5-5.3,0.5c-12.2,0-22.5-7-25-16.4c1.3-1.8,1.6-5.4,5.9-4.8
		s19.5-12.7,33.1-6.9c13.7,5.7,24.4-2.2,28.7,4.4C300.5,226.4,307.9,227.7,307,237.5z"/>
	<path class="st10" d="M296.3,223.2c0-5.7-7.8-10.4-17.5-10.4c-1.8,0-3.6,0.2-5.2,0.5c-2.6-3.8-8.9-6.5-16.2-6.5
		c-9.6,0-17.4,4.6-17.4,10.4c0,0.8,0.2,1.6,0.5,2.4c-8,1-14,5.2-14,10.2c0,3.5,2.9,6.6,7.4,8.5c2.9,3.4,8.8,5.7,15.6,5.7
		c4.1,0,7.8-0.8,10.7-2.2c3.3,2.2,7.7,3.6,12.6,3.6c10.1,0,18.2-5.8,18.2-13c0-0.6,0-1.2-0.2-1.7
		C294.2,228.7,296.3,226.1,296.3,223.2z M262.6,227.1c-0.1-0.2-0.2-0.4-0.3-0.5c0.2,0.2,0.5,0.3,0.7,0.5
		C262.9,227,262.8,227,262.6,227.1z"/>
	<g>
		<path class="st9" d="M290.2,307.4c0-0.9-1.3-1.7-2.8-1.7c-0.3,0-0.6,0-0.9,0.1c-0.4-0.6-1.4-1.1-2.6-1.1c-1.2,0-2.1,0.4-2.6,1
			c-0.2,0-0.3,0-0.5,0.1c-0.4-0.6-1.4-1.1-2.6-1.1c-1.2,0-2.2,0.4-2.6,1c-0.2,0-0.3,0-0.5,0c-0.3,0-0.6,0-0.8,0.1
			c-0.4-0.6-1.4-1.1-2.6-1.1c-1.6,0-2.8,0.8-2.8,1.7c0,0.1,0,0.3,0.1,0.4c-0.3,0-0.6,0.1-0.8,0.2c-0.3-0.7-1.4-1.3-2.8-1.3
			c-0.3,0-0.6,0-0.9,0.1c-0.4-0.6-1.4-1.1-2.6-1.1c-1.2,0-2.2,0.4-2.6,1c-0.2,0-0.3,0-0.5,0c-0.3,0-0.6,0-0.8,0.1
			c-0.4-0.6-1.4-1.1-2.6-1.1c-1.6,0-2.8,0.8-2.8,1.7c0,0.1,0,0.3,0.1,0.4c-1.3,0.2-2.3,0.8-2.3,1.7c0,0.6,0.5,1.1,1.2,1.4
			c0.5,0.6,1.4,0.9,2.5,0.9c0.7,0,1.3-0.1,1.7-0.4c0.5,0.4,1.3,0.6,2.1,0.6c0.6,0,1.2-0.1,1.7-0.4c0.3,0.1,0.7,0.1,1.1,0.1
			c0.7,0,1.3-0.1,1.8-0.4c0.5,0.4,1.3,0.6,2.1,0.6c1.4,0,2.5-0.7,2.9-1.5c0.2,0.1,0.4,0.3,0.6,0.4c0.5,0.6,1.4,0.9,2.5,0.9
			c0.7,0,1.3-0.1,1.7-0.4c0.5,0.4,1.3,0.6,2.1,0.6c0.6,0,1.2-0.1,1.7-0.4c0.3,0.1,0.7,0.1,1.1,0.1c0.7,0,1.3-0.1,1.8-0.4
			c0.5,0.4,1.3,0.6,2.1,0.6c0.5,0,1-0.1,1.4-0.3h0c0.2,0,0.3,0,0.5,0c0.7,0,1.3-0.1,1.8-0.4c0.5,0.4,1.3,0.6,2.1,0.6
			c1.6,0,3-1,3-2.1c0-0.1,0-0.2,0-0.3C289.9,308.3,290.2,307.9,290.2,307.4z M256.1,308.1C256,308,256,308,256.1,308.1
			C256,308,256.1,308,256.1,308.1C256.1,308.1,256.1,308.1,256.1,308.1z M262.6,308.1C262.6,308,262.6,308,262.6,308.1
			C262.6,308,262.7,308,262.6,308.1C262.7,308.1,262.6,308.1,262.6,308.1z M272.5,308.1C272.5,308,272.4,308,272.5,308.1
			C272.5,308,272.5,308,272.5,308.1C272.5,308.1,272.5,308.1,272.5,308.1z M279.1,308.1C279.1,308.1,279.1,308.1,279.1,308.1
			c-0.1,0-0.1,0-0.1-0.1C279,308,279.1,308,279.1,308.1z M284.8,308.1C284.7,308,284.7,308,284.8,308.1
			C284.7,308,284.8,308,284.8,308.1C284.8,308.1,284.8,308.1,284.8,308.1z"/>
		<path class="st16" d="M287.8,310.3c-0.7,1.1-2.4,1.9-4.4,1.9c-0.4,0-0.7,0-1-0.1c0,0,0,0,0,0c-0.1,0.1-0.2,0.1-0.2,0.1
			s-2.1,0-2.1,0c-0.1,0-0.2,0-0.2-0.1c-0.3,0-0.6,0.1-0.9,0.1c-0.9,0-1.8-0.3-2.5-0.7c-0.5,0.1-1,0.2-1.5,0.2c-0.3,0-0.6,0-0.8-0.1
			c-0.1,0-0.2,0.1-0.2,0.1s-1.6,0-1.7,0c-0.1,0-0.1,0-0.2-0.1c-0.2,0-0.5,0.1-0.7,0.1c-1.1,0-2-0.4-2.7-1.1
			c-0.5,0.1-1.1,0.2-1.7,0.2c-0.3,0-0.6,0-0.9-0.1c0,0,0,0,0,0c-0.1,0-0.2,0.1-0.2,0.1s-1.8,0-1.9,0c-0.1,0-0.1,0-0.2-0.1
			c-0.3,0-0.5,0.1-0.8,0.1c-0.9,0-1.6-0.2-2.3-0.6c-0.5,0.7-1.7,1.2-3,1.2c-0.3,0-0.5,0-0.7,0c-0.1,0-0.2,0.1-0.2,0.1s-1.4,0-1.5,0
			c-0.1,0-0.1,0-0.2-0.1c-0.2,0-0.4,0-0.6,0c-1.4,0-2.6-0.8-2.9-1.9c0.2-0.2,0.2-0.6,0.7-0.6c0.5,0.1,2.2-1.4,3.8-0.8
			c1.6,0.7,2.8-0.3,3.3,0.5c0,0,0,0,0,0c0-0.1-0.1-0.2-0.1-0.3c0.2-0.3,0.2-0.8,0.9-0.7c0.6,0.1,2.9-1.9,4.9-1
			c2,0.8,3.6-0.3,4.2,0.6c0.6,0.1,1.3,0.3,1.6,0.8c0.7-0.3,1.6-0.5,2.5-0.1c1.6,0.7,2.9-0.1,3.6,0.4c1.1-0.5,2.9-1.5,4.5-0.8
			c2.2,0.9,4-0.4,4.7,0.7C286.8,308.5,288,308.7,287.8,310.3z"/>
	</g>
	<path class="st9" d="M307.1,304.5C307.1,304.5,307.1,304.6,307.1,304.5c0.1,0.1,0.1,0.1,0.1,0.1
		C307.2,304.6,307.1,304.5,307.1,304.5z"/>
	<g>
		<path class="st2" d="M286.2,175.6v17.5l-12.5,2.3l-18.3,3.4l-3.9,0.7l-18.3,3.4l-3,0.6c0,0-0.1,0-0.2,0c-0.2,0.1-0.9,0.3-1.9,0.7
			c-3.2,1.1-10,3.6-18.3,6.6c-1.1,0.4-2.2,0.8-3.3,1.2v-36.5H286.2z"/>
		<polygon class="st12" points="251.5,186.3 251.5,199.6 233.2,203 233.2,186.3 		"/>
		<polygon class="st12" points="273.7,192.1 273.7,195.5 255.4,198.9 255.4,192.1 		"/>
		<path class="st12" d="M228.2,181.1v23.2c-3.2,1.1-10,3.6-18.3,6.6v-29.8H228.2z"/>
	</g>
</g>
</svg>
