<?xml version="1.0" encoding="utf-8"?>
<!-- Generator: Adobe Illustrator 23.0.5, SVG Export Plug-In . SVG Version: 6.00 Build 0)  -->
<svg version="1.1" id="Layer_1" xmlns="http://www.w3.org/2000/svg" xmlns:xlink="http://www.w3.org/1999/xlink" x="0px" y="0px"
	 viewBox="0 0 50 25" style="enable-background:new 0 0 50 25;" xml:space="preserve">
<style type="text/css">
	.st0{fill:#E9153F;}
	.st1{opacity:4.000000e-02;}
	.st2{fill:#181818;}
</style>
<polygon class="st0" points="50,0 50,24.1 35.7,24.6 24.9,25 24.3,25 0,24.1 0,0 "/>
<g class="st1">
	<path class="st2" d="M42.7,0.3c-0.2,0.2-0.2,0.4,0,0.5H43c0.1-0.1,0.2-0.3,0.1-0.4L43,0.3H42.7z"/>
	<path class="st2" d="M30,0.5c-0.2,0.1-0.3,0.2-0.4,0.4s-0.1,0.5,0,0.7s0.3,0.3,0.5,0.3c0.4-0.1,0.7-0.3,0.9-0.6V1
		c0-0.2,0-0.3-0.1-0.4C30.6,0.4,30.3,0.4,30,0.5z"/>
	<path class="st2" d="M33.2,1.1c-0.1,0.1-0.1,0.2,0,0.4s0.1,0.2,0.2,0.2s0.3-0.1,0.3-0.2S33.4,1,33.2,1.1z"/>
	<path class="st2" d="M38.7,1.8c-0.1,0.1-0.1,0.3,0,0.4c0.1,0.1,0.3,0.2,0.4,0.1l0.1-0.1l0,0c0.1-0.1,0.1-0.2-0.1-0.3
		S38.8,1.7,38.7,1.8z"/>
	<path class="st2" d="M47.3,1.9h-0.2C47,2.1,46.9,2.3,47,2.4c0.2,0.3,0.5,0.4,0.8,0.2l0,0c0.1,0,0.1-0.1,0.1-0.2
		C47.9,2.1,47.6,1.9,47.3,1.9z"/>
	<path class="st2" d="M42.5,2.2c-0.2,0.1-0.3,0.3-0.3,0.5c0.1,0.1,0.3,0.2,0.4,0.1S43,2.6,43,2.3l0,0C42.9,2.1,42.7,2.1,42.5,2.2z"
		/>
	<path class="st2" d="M22,2.4c-0.1,0.1-0.2,0.3-0.1,0.4s0.7,0.1,0.7-0.2C22.5,2.4,22.3,2.3,22,2.4C22.1,2.4,22,2.4,22,2.4z"/>
	<path class="st2" d="M33,2.8c-0.1,0.1-0.1,0.1-0.1,0.2s0,0.1,0.2,0.1s0.3,0,0.2-0.3s0-0.2-0.1-0.2S33.1,2.6,33,2.8z"/>
	<path class="st2" d="M25.6,3c0,0.1,0,0.2-0.1,0.2c-0.1,0.1-0.1,0.2-0.1,0.3c0,0.3,0.4,0.3,0.7,0s0.2-0.3,0.1-0.4L25.6,3L25.6,3z"/>
	<path class="st2" d="M39.1,3.2c-0.3,0.1-0.6,0.3-0.6,0.7s0.4,0.7,0.8,0.6h0.1c0.2-0.1,0.5-0.3,0.5-0.6s0.1-0.5-0.2-0.6L39.1,3.2z"
		/>
	<path class="st2" d="M18.7,3.7l-0.5,0.5c-0.1,0.3-0.1,0.7,0.2,0.9c0.4,0.2,0.9,0,1.1-0.3c0.2-0.4,0.1-0.8-0.1-1.1
		C19.2,3.6,18.9,3.6,18.7,3.7z"/>
	<path class="st2" d="M30.9,4c-0.2,0-0.4,0.2-0.4,0.4c0,0.3,0.4,0.5,0.7,0.5l0.3-0.4C31.6,4.1,31.3,3.9,30.9,4z"/>
	<path class="st2" d="M35.2,3.8H35c-0.1,0.2,0.3,0.5,0.5,0.3c0.1-0.1,0.1-0.3,0-0.4L35.2,3.8z"/>
	<path class="st2" d="M48.5,3.9c-0.1,0.1-0.2,0.2-0.1,0.3l0,0c0.1,0.1,0.3,0.1,0.4,0l0,0c0.1-0.1,0.1-0.1,0.1-0.2S48.7,3.8,48.5,3.9
		z"/>
	<path class="st2" d="M21.8,4.5c-0.1,0.1-0.2,0.2-0.2,0.4h0.1c0.3,0,0.4-0.1,0.4-0.3c0-0.1-0.1-0.2-0.1-0.3L21.8,4.5z"/>
	<path class="st2" d="M43.6,4.5c-0.3,0-0.4,0.2-0.3,0.5s0.1,0.2,0.3,0.2s0.2,0,0.3-0.2c0.1-0.1,0.1-0.3,0-0.4
		C43.9,4.5,43.7,4.4,43.6,4.5L43.6,4.5z"/>
	<path class="st2" d="M41,4.7c-0.2,0-0.3,0.4-0.2,0.5c0.2,0.1,0.4,0,0.5-0.2c0.1-0.1,0.1-0.2,0-0.3l0,0C41.2,4.6,41.2,4.6,41,4.7z"
		/>
	<path class="st2" d="M46.9,4.7c-0.1,0.1,0.2,0.4,0.4,0.3s0.1-0.1,0.1-0.2V4.6L46.9,4.7L46.9,4.7z"/>
	<path class="st2" d="M24.9,5.1c-0.1,0.2-0.2,0.3-0.2,0.5h0.2c0.2,0,0.3-0.1,0.3-0.2s0-0.5-0.1-0.5L24.9,5.1z"/>
	<path class="st2" d="M36.7,5.2c-0.1,0.2,0.1,0.4,0.2,0.3s0.2-0.3,0.1-0.3S36.7,5.1,36.7,5.2z"/>
	<path class="st2" d="M14.3,5.5c-0.1,0.1-0.1,0.1-0.1,0.2v0.2c0.2,0.2,0.5,0.1,0.7-0.1V5.5H14.3z"/>
	<path class="st2" d="M41.9,5.7c-0.1,0.1-0.1,0.3,0,0.4c0.2,0.1,0.4,0,0.4-0.2S42.1,5.5,41.9,5.7z"/>
	<path class="st2" d="M38.3,7.3C38.1,7.4,38,7.6,38,7.8C38,8,38.4,8,38.6,7.7s0.1-0.2,0-0.4C38.6,7.3,38.3,7.3,38.3,7.3z"/>
	<path class="st2" d="M48.6,7.4c-0.1,0.1-0.2,0.3-0.1,0.4s0.3,0.1,0.4-0.1s0.2-0.2,0.1-0.4S48.8,7.2,48.6,7.4z"/>
	<path class="st2" d="M30.4,4.5c0,0.1-0.1,0.1-0.1,0.2c0,0.2,0.2,0.3,0.3,0.3c0.1,0,0.1,0,0.2-0.1c0.1-0.2,0.1-0.2,0-0.4H30.4z"/>
	<path class="st2" d="M27.8,4.5c-0.3,0.2-0.5,0.5-0.5,0.8c-0.1,0.2,0,0.4,0.2,0.5c0.2,0.2,0.6,0.2,0.8,0c0,0,0,0,0.1-0.1
		c0.2-0.2,0.3-0.4,0.3-0.7c0.1-0.2-0.1-0.5-0.4-0.5C28.3,4.5,27.8,4.5,27.8,4.5z"/>
	<path class="st2" d="M46.8,4.6c-0.1,0.1-0.1,0.2-0.1,0.3c0,0.2,0.1,0.4,0.3,0.5c0.1,0,0.2,0,0.3-0.1h0.2c0.1-0.2,0.2-0.4,0-0.5l0,0
		C47.3,4.5,47,4.4,46.8,4.6z"/>
	<path class="st2" d="M32.6,4.7c-0.1,0-0.2,0.2-0.2,0.3c0.2,0.2,0.4,0.3,0.7,0.2c0.1-0.1,0.2-0.3,0.1-0.4l-0.3-0.2
		C32.7,4.6,32.6,4.6,32.6,4.7z"/>
	<path class="st2" d="M34.8,4.8V5c-0.1,0.2,0.1,0.3,0.4,0.2s0.1,0,0.1-0.2S35,4.6,34.8,4.8z"/>
	<path class="st2" d="M40.2,4.7c-0.2,0.1-0.3,0.2-0.3,0.4s0,0.2,0.1,0.2s0.1,0.2,0.3,0.2l0.5-0.3C40.9,4.8,40.6,4.6,40.2,4.7z"/>
	<path class="st2" d="M43.4,4.8c-0.1,0-0.1,0.1-0.1,0.2v0.2h0.4c0.1-0.1,0.1-0.4,0-0.5L43.4,4.8z"/>
	<path class="st2" d="M18.5,4.9c-0.2,0.1-0.3,0.3-0.3,0.5h0.5c0.1-0.2,0.1-0.3,0-0.5C18.6,4.8,18.6,4.8,18.5,4.9z"/>
	<path class="st2" d="M36.6,4.9c-0.1,0.1-0.2,0.2-0.2,0.3l0.2,0.2c0,0,0.2,0,0.2-0.1h0.1V4.9H36.6z"/>
	<path class="st2" d="M22.8,5c-0.2,0.1-0.3,0.4-0.2,0.6h0.2c0.2,0.1,0.5,0.1,0.7-0.1c0.1-0.1,0.2-0.3,0.1-0.4
		C23.4,4.9,23.1,4.9,22.8,5z"/>
	<path class="st2" d="M25.1,5.4c-0.1,0.1-0.1,0.2,0,0.4s0.2,0.1,0.4,0l0,0c0.1-0.1,0.1-0.4,0-0.5L25.1,5.4z"/>
	<path class="st2" d="M29.8,5.4c-0.1,0.1-0.2,0.3-0.2,0.5h0.3c0.2,0,0.3-0.2,0.3-0.4h-0.1C30.1,5.4,30,5.3,29.8,5.4z"/>
	<path class="st2" d="M41.7,5.4c-0.2,0-0.3,0.1-0.2,0.3s0,0.2,0.1,0.2c0.2,0.1,0.4,0,0.5-0.2l0,0C42.1,5.4,41.9,5.3,41.7,5.4z"/>
	<path class="st2" d="M32.1,5.6c-0.3,0.2-0.2,0.5,0,0.4h0.4c0.1-0.2,0.1-0.3,0-0.4S32.3,5.4,32.1,5.6z"/>
	<path class="st2" d="M19.6,5.5c-0.1,0.1-0.1,0.3,0,0.4l0,0C19.7,6,19.9,6.1,20,6s0.2-0.3,0.1-0.4c0-0.1-0.1-0.1-0.1-0.1H19.6z"/>
	<path class="st2" d="M4,5.6C3.9,5.7,3.9,5.8,3.9,5.9s0,0.2,0.1,0.2s0.1,0.1,0.2,0.1s0.6-0.1,0.5-0.3S4.1,5.4,4,5.6z"/>
	<path class="st2" d="M48.6,5.6c-0.2,0.2-0.2,0.5,0,0.7l0.1,0.1c0.3,0,0.5-0.2,0.6-0.4l0,0c0-0.3-0.2-0.4-0.5-0.4
		C48.8,5.6,48.6,5.6,48.6,5.6z"/>
	<path class="st2" d="M43.8,5.6c-0.3,0.1-0.5,0.4-0.6,0.7c0,0.2,0,0.3,0.1,0.3c0.2,0.2,0.4,0.3,0.7,0.3c0.3-0.1,0.5-0.3,0.5-0.8
		s0-0.2-0.1-0.3S44.2,5.6,44,5.6H43.8z"/>
	<path class="st2" d="M16.8,5.8c-0.3,0.1-0.2,0.4,0.2,0.4s0.1,0,0.1-0.1s0-0.3-0.1-0.4L16.8,5.8z"/>
	<path class="st2" d="M12.1,5.8c-0.3,0-0.6,0.3-0.6,0.6c0,0.2,0.1,0.4,0.3,0.5c0.3,0.2,0.8,0.1,1-0.2C13,6.5,13,6.5,13,6.3l-0.2-0.5
		H12.1z"/>
	<path class="st2" d="M21.5,5.9c-0.2,0.3-0.2,0.4,0.1,0.4s0.3-0.1,0.3-0.2S21.7,5.7,21.5,5.9z"/>
	<path class="st2" d="M38.7,5.8c-0.2,0.1-0.4,0.4-0.4,0.7c0,0.1,0,0.3,0.1,0.4h0.3c0.2,0,0.4-0.2,0.5-0.4c0.2-0.4,0.1-0.7-0.2-0.8
		L38.7,5.8z"/>
	<path class="st2" d="M34.6,6c-0.2,0.1-0.2,0.2-0.1,0.4c0.1,0.3,0.4,0.4,0.6,0.3c0.1,0,0.1-0.1,0.2-0.1c0.1-0.2,0.1-0.3,0-0.5
		c-0.1-0.1-0.2-0.2-0.4-0.2L34.6,6z"/>
	<path class="st2" d="M36.6,6c-0.1,0.1-0.1,0.1-0.1,0.2c0.1,0.2,0.3,0.3,0.4,0.2s0.2,0,0.2-0.1c0.1-0.1,0.1-0.2,0-0.3l0,0L36.6,6z"
		/>
	<path class="st2" d="M18.5,6.1c0,0.1,0,0.1-0.1,0.2c0,0.1,0,0.2,0.1,0.3c0.1,0.1,0.2,0.1,0.4,0S19,6.5,19,6.4l0,0
		C18.9,6.1,18.6,6,18.5,6.1z"/>
	<path class="st2" d="M23.2,6.2c-0.1,0.1-0.2,0.3-0.1,0.4h0.2c0.5,0,0.6-0.5,0.2-0.6L23.2,6.2z"/>
	<path class="st2" d="M40.2,6.1l-0.3,0.4l0,0c0,0.2,0.2,0.3,0.5,0.2s0.2-0.3,0.1-0.4h-0.3V6.1z"/>
	<path class="st2" d="M32.8,6.3c-0.2,0.1-0.3,0.3-0.1,0.5s0.5-0.1,0.5-0.4c0-0.1,0-0.1-0.1-0.1H32.8z"/>
	<path class="st2" d="M26.7,6.5c-0.1,0.1-0.1,0.3,0,0.4C26.7,7,26.8,7.1,27,7c0.1,0,0.2-0.1,0.1-0.2l0,0c0.1-0.2,0.1-0.3,0-0.4
		L26.7,6.5z"/>
	<path class="st2" d="M7,6.6C6.8,6.7,6.7,6.9,6.6,7.1c0,0.1,0.2,0.2,0.4,0.2c0.3,0,0.5-0.2,0.5-0.5H7.4C7.4,6.4,7.2,6.4,7,6.6z"/>
	<path class="st2" d="M47.1,6.5c-0.2,0.1-0.3,0.2-0.3,0.4c0,0.3,0.2,0.5,0.4,0.6h0.3c0.4-0.1,0.5-0.4,0.4-0.6
		C47.8,6.6,47.5,6.4,47.1,6.5L47.1,6.5z"/>
	<path class="st2" d="M28.5,6.7c-0.1,0.1-0.1,0.1-0.1,0.3s0,0.3,0.1,0.4h0.6c0.2-0.1,0.2-0.2,0.2-0.3C29.2,6.8,28.8,6.6,28.5,6.7z"
		/>
	<path class="st2" d="M41.2,6.7c-0.2,0.1-0.3,0.2-0.3,0.4S40.8,7.4,41,7.4s0.3,0,0.4-0.2s0-0.3,0-0.4L41.2,6.7z"/>
	<path class="st2" d="M36.5,6.9c-0.1,0-0.2,0.2-0.1,0.3l0,0c0,0.1,0.1,0.1,0.1,0.2s0.7-0.2,0.4-0.5C36.8,6.8,36.6,6.8,36.5,6.9z"/>
	<path class="st2" d="M15.7,6.8c-0.1,0.1-0.1,0.3-0.1,0.4s0,0.2,0.1,0.2L16,7.6c0.2,0,0.3-0.1,0.3-0.3c0.1,0,0-0.2-0.1-0.4L15.7,6.8
		z"/>
	<path class="st2" d="M34.4,6.9L34.4,6.9c-0.3,0.2-0.1,0.4,0.2,0.4s0.3-0.1,0.3-0.2c0-0.2-0.2-0.4-0.4-0.4l0,0
		C34.6,6.7,34.6,6.8,34.4,6.9C34.5,6.9,34.5,6.9,34.4,6.9L34.4,6.9z"/>
	<path class="st2" d="M49,6.9c-0.2,0-0.3,0.1-0.3,0.3c0,0.2,0.2,0.3,0.4,0.2l0.3-0.3C49.4,6.9,49.2,6.8,49,6.9z"/>
	<path class="st2" d="M20.7,6.9c0,0.1-0.1,0.2-0.1,0.3l0.2,0.3h0.1l0.3-0.4c0-0.1-0.1-0.2-0.3-0.2L20.7,6.9z"/>
	<path class="st2" d="M25.6,6.9v0.2c0,0.2,0,0.2,0.2,0.2s0.3-0.2,0.1-0.4L25.6,6.9z"/>
	<path class="st2" d="M18.4,7c-0.2,0.1-0.2,0.2-0.1,0.3l0,0c0.2,0.3,0.5,0,0.4-0.3H18.4z"/>
	<path class="st2" d="M31.2,7c-0.1,0.2-0.1,0.3,0,0.3c0.1,0.1,0.1,0,0.3,0s0.3-0.3,0-0.4L31.2,7z"/>
	<path class="st2" d="M42.9,7c-0.2,0.1-0.2,0.3-0.2,0.6h0.5c0.1-0.1,0.2-0.2,0.2-0.4L43.1,7H42.9z"/>
	<path class="st2" d="M13.8,7.1c-0.1,0.2,0,0.3,0.2,0.4l0,0l0.2-0.3c0-0.1,0-0.1-0.1-0.2L13.8,7.1z"/>
	<path class="st2" d="M22.8,7.1c-0.2,0.1-0.3,0.4-0.1,0.4c0,0.1,0.1,0.2,0.3,0.1c0.1,0,0.2-0.1,0.1-0.2l0,0l0,0
		C23.1,7.1,23,7,22.8,7.1z"/>
	<path class="st2" d="M19.7,7.3l-0.3,0.3c0,0.1,0,0.1,0.1,0.1l0,0c0.1,0.2,0.2,0.2,0.4,0.2c0,0,0.1,0,0.1-0.1
		C20.3,7.6,20,7.2,19.7,7.3z"/>
	<path class="st2" d="M21.8,7.3v0.2c0,0.2,0.1,0.3,0.3,0.3l0,0c0.1,0,0.2-0.1,0.2-0.2l0,0L22,7.3H21.8z"/>
	<path class="st2" d="M10.8,7.4c-0.1,0.1-0.1,0.2,0,0.3l0,0h0.4c0.1-0.1,0.1-0.1,0-0.3C11.1,7.3,10.9,7.3,10.8,7.4z"/>
	<path class="st2" d="M3.3,7.4C3.1,7.5,2.9,7.7,2.8,7.9C2.6,8.1,2.7,8.4,2.9,8.6l0,0c0.3,0.4,0.7,0.3,1,0S4.4,7.7,4,7.4
		C3.8,7.3,3.5,7.3,3.3,7.4z"/>
	<path class="st2" d="M29.3,7.4C29.1,7.5,29,8,29.2,8h0.3c0.2-0.1,0.2-0.2,0.2-0.4c0,0,0-0.1-0.1-0.1L29.3,7.4L29.3,7.4z"/>
	<path class="st2" d="M37.8,7.5c-0.2,0.1-0.3,0.2-0.3,0.4v0.3h0.9c0-0.1,0.1-0.2,0-0.3s-0.1-0.3-0.3-0.4L37.8,7.5z"/>
	<path class="st2" d="M27.7,7.6v0.2H28V7.7c0-0.1,0-0.2-0.1-0.2L27.7,7.6z"/>
	<path class="st2" d="M5.4,7.6C5.3,7.7,5.3,7.9,5.4,8h0.4c0.1-0.1,0.1-0.3,0-0.4c0-0.1,0-0.1-0.1-0.1L5.4,7.6z"/>
	<path class="st2" d="M32.2,7.7c-0.1,0-0.1,0.1-0.1,0.2v0.2c0,0.1,0,0.2,0.2,0.3c0.1,0,0.2,0,0.3-0.2V8C32.7,7.7,32.3,7.5,32.2,7.7z
		"/>
	<path class="st2" d="M33.4,7.6c-0.1,0.1-0.2,0.1-0.2,0.3s0.3,0.4,0.5,0.3l0,0V8C33.7,7.8,33.6,7.6,33.4,7.6z"/>
	<path class="st2" d="M24.5,7.7c-0.1,0-0.2,0.2-0.2,0.3s0.2,0.4,0.5,0.2h0.1C25,8.1,25,8,24.9,7.9l0,0c0.1-0.1,0-0.2-0.1-0.3
		S24.6,7.6,24.5,7.7z"/>
	<path class="st2" d="M17.4,7.8c0,0.1,0.1,0.2,0.2,0.3h0.2c0.1-0.1,0.1-0.1,0-0.2S17.5,7.6,17.4,7.8z"/>
	<path class="st2" d="M35.9,7.8V8c0.1,0.2,0.2,0.2,0.4,0.1s0.1-0.1,0.1-0.2s-0.2-0.2-0.3-0.2L35.9,7.8z"/>
	<path class="st2" d="M15.9,7.8c-0.1,0.1-0.1,0.2-0.1,0.3v0.2h0.4c0.1,0,0.1-0.1,0.1-0.3S16.2,7.7,16,7.7l0,0L15.9,7.8z"/>
	<path class="st2" d="M18.8,7.9c-0.1,0.3,0,0.5,0.3,0.3c0.1,0,0.2,0,0.3-0.1c0-0.1,0-0.2-0.1-0.3C18.9,7.7,18.9,7.7,18.8,7.9z"/>
	<path class="st2" d="M39.8,7.8c-0.1,0.1-0.1,0.2-0.1,0.3c0,0.2,0.1,0.4,0.3,0.4h0.3l0.3-0.2C40.8,8,40.1,7.5,39.8,7.8z"/>
	<path class="st2" d="M12.8,7.9c-0.2,0.1,0,0.5,0.3,0.5s0.2-0.2,0.2-0.3c0-0.2-0.2-0.3-0.3-0.3C12.9,7.8,12.8,7.9,12.8,7.9z"/>
	<path class="st2" d="M14.3,7.9v0.3h0.3c0.1-0.1,0.1-0.2,0-0.2C14.6,7.9,14.4,7.8,14.3,7.9L14.3,7.9z"/>
	<path class="st2" d="M25.8,8c-0.1,0.1-0.1,0.2-0.1,0.3s0,0.2,0.2,0.2s0.4-0.1,0.4-0.3l0,0L26,7.9L25.8,8z"/>
	<path class="st2" d="M46.8,8.1c-0.2,0.1-0.1,0.3,0,0.4h0.5c0.1-0.1,0.2-0.2,0.1-0.4S46.9,7.9,46.8,8.1z"/>
	<path class="st2" d="M48.3,8.1c-0.1,0.1-0.1,0.2-0.1,0.3h0.2c0.1,0.1,0.2,0,0.3-0.1c0.1,0,0.1,0,0.1-0.1L48.4,8L48.3,8.1z"/>
	<path class="st2" d="M22.1,8c-0.2,0.1-0.4,0.3-0.5,0.5c-0.1,0.1-0.1,0.2-0.1,0.3c0,0.4,0.3,0.6,0.7,0.6s0.3-0.1,0.6-0.3
		S23.1,8,22.5,8H22.1z"/>
	<path class="st2" d="M35,8.1l-0.2,0.2v0.2c0.2,0.1,0.5,0.1,0.5-0.1s0-0.2,0-0.3L35,8.1z"/>
	<path class="st2" d="M41.9,8.1c-0.2,0.2-0.2,0.5-0.1,0.5c0.2,0.1,0.4-0.1,0.5-0.3l0,0C42.2,8.1,42.1,8,41.9,8.1z"/>
	<path class="st2" d="M27.2,8.2C27,8.3,27,8.5,27.1,8.7s0.5,0,0.5-0.3s-0.1-0.3-0.2-0.3L27.2,8.2z"/>
	<path class="st2" d="M43.7,8.2c-0.1,0.1-0.1,0.3,0,0.4c0,0,0.1,0.1,0.2,0.1c0.2,0,0.2-0.1,0.3-0.2s0-0.2-0.1-0.3H43.7z"/>
	<path class="st2" d="M20.3,8.4c-0.1,0.1,0,0.5,0.2,0.5s0.2-0.2,0.2-0.4s0-0.2-0.2-0.2S20.3,8.3,20.3,8.4z"/>
	<path class="st2" d="M15,8.4c-0.1,0-0.2,0.1-0.2,0.3s0,0.1,0.1,0.2h0.2c0.2,0,0.3-0.1,0.3-0.3l0,0c0-0.2-0.1-0.3-0.3-0.3l0,0
		L15,8.4z"/>
	<path class="st2" d="M18,8.4v0.4c0.2,0.2,0.6,0,0.5-0.1c0-0.2,0-0.3-0.2-0.4C18.2,8.3,18.1,8.3,18,8.4z"/>
	<path class="st2" d="M31.7,8.4v0.2c-0.1,0.1-0.1,0.2,0,0.3l0,0c0.1,0.3,0.8,0.4,0.9,0.1c0.1-0.2,0.1-0.4-0.1-0.6h-0.1h-0.6H31.7z"
		/>
	<path class="st2" d="M30.6,8.4l-0.3,0.4c0,0.1,0.1,0.2,0.3,0.3l0.3-0.2c0.1-0.1,0.1-0.3,0-0.4L30.6,8.4z"/>
	<path class="st2" d="M10.5,8.4c-0.2,0.1-0.3,0.5-0.2,0.6h0.4V8.9c0.1-0.1,0.1-0.3,0-0.4C10.6,8.4,10.6,8.4,10.5,8.4z"/>
	<path class="st2" d="M25.2,8.6c-0.1,0.1-0.1,0.3,0,0.4h0.2l0.2-0.2l0,0c0-0.1,0-0.2-0.2-0.2H25.2z"/>
	<path class="st2" d="M33.9,8.6c-0.2,0.2-0.3,0.5-0.2,0.6h0.5c0-0.1,0.1-0.2,0-0.2S34.1,8.4,33.9,8.6z"/>
	<path class="st2" d="M23.6,8.7c-0.1,0-0.1,0-0.1,0.1s0,0.1,0.1,0.1h0.1c0.3,0,0.4-0.1,0.2-0.3S23.7,8.5,23.6,8.7z"/>
	<path class="st2" d="M16.6,8.6c-0.1,0.1-0.2,0.2-0.2,0.4l0,0c0.2,0.2,0.4,0.2,0.5,0l0,0C17,8.9,17.1,8.7,17,8.6H16.6z"/>
	<path class="st2" d="M12.3,8.7c-0.6,0.2-0.2,0.9,0.3,0.8S13,9.2,13,9.1c0-0.2-0.1-0.3-0.2-0.4L12.3,8.7z"/>
	<path class="st2" d="M19.3,8.7c-0.1,0-0.1,0.1-0.1,0.2s0,0.2,0.1,0.2h0.1c0.2,0,0.3-0.2,0.2-0.4l0,0c0-0.1-0.1-0.2-0.2-0.1
		L19.3,8.7z"/>
	<path class="st2" d="M28.2,8.7c0,0.1,0,0.1-0.1,0.2c0,0.1,0,0.2,0.1,0.3c0.1,0.2,0.4,0.4,0.7,0.2c0.1,0,0.2-0.1,0.2-0.2
		c0.1-0.1,0-0.3-0.2-0.4C28.7,8.7,28.4,8.6,28.2,8.7z"/>
	<path class="st2" d="M36.1,8.9c-0.3,0.3,0,0.7,0.3,0.4c0.1-0.1,0.1-0.3,0.1-0.4C36.5,8.9,36.1,8.9,36.1,8.9z"/>
	<path class="st2" d="M26.7,8.9c-0.1,0.1-0.2,0.2-0.1,0.4l0,0c0.1,0.2,0.1,0.2,0.3,0.2s0.3-0.2,0.3-0.4S27,8.7,26.7,8.9z"/>
	<path class="st2" d="M47.4,9c-0.1,0.2-0.1,0.5,0.1,0.6h0.1c0.2,0.1,0.6-0.1,0.6-0.3S47.6,8.8,47.4,9z"/>
	<path class="st2" d="M40.2,9.1L40,9.3v0.3h0.3c0.3,0,0.3-0.1,0.3-0.4S40.4,8.9,40.2,9.1z"/>
	<path class="st2" d="M6.9,9.1C6.7,9.2,6.7,9.4,6.8,9.6l0,0C7,9.7,7.2,9.7,7.3,9.5V9.4c0-0.1,0-0.3-0.2-0.3L6.9,9.1z"/>
	<path class="st2" d="M37.9,9.1c-0.1,0.1-0.2,0.3-0.2,0.5s0.2,0.5,0.4,0.5h0.4c0.1-0.2,0.2-0.4,0.2-0.6c0-0.2-0.1-0.3-0.3-0.3
		L37.9,9.1z"/>
	<path class="st2" d="M48.9,9.2L48.9,9.2l0.2,0.2c0.1,0,0.1-0.1,0.1-0.2s0-0.2-0.1-0.2L48.9,9.2z"/>
	<path class="st2" d="M34.8,9.3c-0.2,0.3-0.2,0.5,0.1,0.5h0.3c0.1-0.1,0.1-0.2,0-0.4S35,9.2,34.8,9.3z"/>
	<path class="st2" d="M16.2,9.2c-0.4,0.1-0.7,0.5-0.7,0.9c0,0.1,0,0.1,0.1,0.2c0.2,0.2,0.4,0.3,0.6,0.2l0.7-0.2
		c0.1-0.2,0.2-0.5,0.2-0.7C16.9,9.3,16.6,9.1,16.2,9.2z"/>
	<path class="st2" d="M24.2,9.3c-0.1,0.1-0.1,0.3-0.1,0.5c0.1,0.2,0.6,0,0.6-0.3s-0.2-0.3-0.3-0.3L24.2,9.3z"/>
	<path class="st2" d="M25.7,9.3c-0.2,0.1-0.3,0.4-0.2,0.6h0.8c0.4-0.3,0.2-0.8-0.3-0.8L25.7,9.3z"/>
	<path class="st2" d="M46.3,9.4l-0.2,0.3c0,0.2,0.4,0.2,0.5,0c0.1-0.1,0.1-0.2,0.1-0.3C46.7,9.4,46.3,9.4,46.3,9.4z"/>
	<path class="st2" d="M18.1,9.4C18,9.5,18,9.6,18,9.7c0,0.1,0,0.1,0.1,0.1l0,0c0.2,0.1,0.4,0,0.3-0.3S18.2,9.3,18.1,9.4z"/>
	<path class="st2" d="M5.4,9.4c-0.1,0.1-0.1,0.4,0,0.5h0.2c0.4,0,0.5-0.4,0.3-0.5H5.4z"/>
	<path class="st2" d="M32.9,9.4c-0.2,0-0.4,0.1-0.5,0.3c-0.1,0.3-0.1,0.6,0.1,0.8c0.2,0.2,0.4,0.2,0.8,0.1c0.3-0.1,0.5-0.3,0.6-0.6
		c0-0.3-0.2-0.6-0.5-0.6C33.4,9.4,32.9,9.4,32.9,9.4z"/>
	<path class="st2" d="M42.6,9.4c-0.1,0.1-0.2,0.3-0.2,0.4c0,0.2,0,0.3,0.2,0.4c0.2,0.1,0.4,0.1,0.6,0c0.2,0,0.3-0.2,0.3-0.4l0,0
		C43.4,9.4,42.9,9.3,42.6,9.4z"/>
	<path class="st2" d="M14.4,9.6c-0.1,0.1-0.1,0.1-0.1,0.2l0.2,0.2h0.3c0.2-0.1,0.1-0.4-0.2-0.4H14.4z"/>
	<path class="st2" d="M30.5,9.5l-0.6,0.7c0.1,0.2,0.1,0.3,0.3,0.4h0.7c0.4-0.2,0.4-0.5,0-1S30.7,9.4,30.5,9.5z"/>
	<path class="st2" d="M20.7,9.6c-0.1,0.2-0.1,0.4,0,0.6h0.2c0.2,0,0.3-0.1,0.4-0.3S21.2,9.6,21,9.6H20.7z"/>
	<path class="st2" d="M13.1,9.6c-0.2,0.1-0.2,0.3,0,0.5s0.3,0.2,0.4,0.1c0.1-0.1,0.2-0.3,0.1-0.5V9.5h-0.4L13.1,9.6z"/>
	<path class="st2" d="M19.3,9.6c-0.1,0.2-0.1,0.3,0.1,0.4h0.2l0.2-0.2V9.7C19.5,9.5,19.4,9.5,19.3,9.6z"/>
	<path class="st2" d="M22.7,9.7c-0.1,0.1-0.1,0.3,0,0.4c0.2,0.2,0.6-0.3,0.4-0.5S22.9,9.5,22.7,9.7z"/>
	<path class="st2" d="M28.4,9.6c-0.2,0.1-0.3,0.2-0.3,0.3c0,0.2,0.1,0.3,0.3,0.3l0.3-0.2h0.1c0-0.1-0.1-0.3-0.2-0.3L28.4,9.6z"/>
	<path class="st2" d="M35.7,9.8c-0.1,0.1-0.1,0.3,0,0.4c0.2,0.1,0.3,0.1,0.5,0c0.1,0,0.2-0.1,0.1-0.3S35.8,9.6,35.7,9.8z"/>
	<path class="st2" d="M11.3,9.8c-0.1,0.2,0.1,0.5,0.3,0.4S12,10,11.8,9.8C11.7,9.7,11.4,9.7,11.3,9.8z"/>
	<path class="st2" d="M7.9,9.9c-0.3,0.1-0.4,0.3-0.2,0.4h0.4V10C8.1,9.9,8.1,9.8,7.9,9.9z"/>
	<path class="st2" d="M3.8,10.1c-0.2,0.1-0.3,0.3-0.2,0.5h0.1c0.2,0.2,0.5,0.3,0.7,0.1l0.2-0.4L4.4,10L3.8,10.1z"/>
	<path class="st2" d="M21.9,10.2c-0.1,0-0.1,0.1-0.1,0.2l0.3,0.2c0.2,0,0.3,0,0.3-0.2s0.1-0.2,0-0.2C22.4,10.2,21.9,10.2,21.9,10.2z
		"/>
	<path class="st2" d="M37.9,10.1c-0.1,0.1-0.1,0.2-0.1,0.3c0,0.2,0,0.3,0.2,0.3l0.3-0.2c0.1-0.1,0.1-0.2,0-0.3l0,0
		c0-0.1,0-0.2-0.2-0.3C38,9.9,37.9,10,37.9,10.1z"/>
	<path class="st2" d="M27.3,10.2c-0.2,0.2-0.1,0.5,0.1,0.4c0.2,0,0.3-0.1,0.3-0.3c0-0.1-0.1-0.1-0.1-0.2L27.3,10.2z"/>
	<path class="st2" d="M23,10.2c-0.1,0.1-0.1,0.2,0,0.3l0,0h0.4c0.1,0,0.2-0.1,0.1-0.3H23z"/>
	<path class="st2" d="M10.5,10.2c-0.1,0.1-0.1,0.3,0,0.4c0,0,0.1,0.1,0.2,0.1h0.2c0.1-0.1,0.1-0.2,0-0.3l0,0l0,0
		C10.8,10.2,10.6,10.1,10.5,10.2z"/>
	<path class="st2" d="M18.9,10.3c-0.1,0-0.2,0.2-0.1,0.3l0,0c0.1,0.3,0.5,0.3,0.5,0s-0.1-0.4-0.3-0.4L18.9,10.3z"/>
	<path class="st2" d="M6.6,10.4c-0.2,0.2,0,0.5,0.3,0.3v-0.2C6.9,10.3,6.8,10.2,6.6,10.4z"/>
	<path class="st2" d="M47,10.4L47,10.4c0.2,0.1,0.3,0.1,0.4,0l0,0c0-0.1,0-0.2-0.1-0.3C47.2,10.2,47.1,10.3,47,10.4z"/>
	<path class="st2" d="M31.6,10.4c-0.2,0-0.2,0.2-0.2,0.4h0.5c0.2-0.1,0.3-0.3,0.1-0.5L31.6,10.4z"/>
	<path class="st2" d="M39.2,10.5c-0.1,0.1-0.1,0.2,0,0.3l0,0h0.3c0.2,0,0.3-0.1,0.3-0.3s-0.1-0.3-0.3-0.3
		C39.3,10.3,39.3,10.3,39.2,10.5z"/>
	<path class="st2" d="M25.1,10.4C25,10.5,25,10.7,25,10.9h0.1c0.2,0,0.4-0.2,0.4-0.4l0,0C25.5,10.3,25.3,10.3,25.1,10.4z"/>
	<path class="st2" d="M12,10.4v0.3c0,0.1,0.1,0.1,0.1,0.2h0.5c0.1-0.1,0.1-0.1,0-0.2c0-0.2-0.2-0.4-0.4-0.4
		C12.1,10.4,12,10.4,12,10.4z"/>
	<path class="st2" d="M15,10.4c-0.2,0.1-0.3,0.2-0.3,0.4s0,0.2,0.2,0.2s0.3-0.1,0.3-0.3l0,0c0.1,0,0-0.1,0-0.2L15,10.4z"/>
	<path class="st2" d="M36.5,10.5c-0.1,0.2,0.1,0.4,0.3,0.4s0.2-0.2,0.2-0.3s0-0.2-0.2-0.2L36.5,10.5z"/>
	<path class="st2" d="M41.1,10.4C41,10.5,41,10.7,41,10.9h0.2c0.2,0,0.3-0.1,0.4-0.3s0-0.3-0.2-0.3L41.1,10.4z"/>
	<path class="st2" d="M48.2,10.4L48,10.7c0,0.3,0.2,0.4,0.4,0.2s0.1-0.1,0.1-0.2s0-0.2-0.1-0.3H48.2z"/>
	<path class="st2" d="M34.9,10.5c-0.2,0.1-0.3,0.2-0.3,0.4H35c0.1-0.1,0.1-0.1,0.1-0.2S35.1,10.4,34.9,10.5z"/>
	<path class="st2" d="M5.3,10.5c-0.1,0.1,0,0.3,0,0.4h0.4c0.1-0.1,0.1-0.2,0-0.3l0,0c0-0.1,0-0.2-0.2-0.3
		C5.4,10.3,5.3,10.4,5.3,10.5z"/>
	<path class="st2" d="M43.1,10.5c-0.1,0.2,0,0.4,0.1,0.5h0.5c0-0.1,0.1-0.1,0-0.2S43.2,10.4,43.1,10.5z"/>
	<path class="st2" d="M16.4,10.6c-0.2,0.1-0.1,0.3,0.1,0.4h0.2c0-0.1,0.1-0.2,0-0.4H16.4z"/>
	<path class="st2" d="M33.7,10.8c-0.1,0.1-0.2,0.2-0.1,0.3s0.2,0.2,0.3,0.1c0.2,0,0.3-0.2,0.2-0.4C34,10.7,33.8,10.7,33.7,10.8z"/>
	<path class="st2" d="M21,10.8c-0.4,0.1-0.3,0.8,0.1,0.9l0.4-0.2c0.2-0.1,0.2-0.3,0.1-0.5S21.2,10.7,21,10.8z"/>
	<path class="st2" d="M27,10.9c-0.1,0-0.2,0.1-0.2,0.2l0,0c-0.1,0.1-0.1,0.2,0,0.2h0.4c0.1-0.1,0.1-0.3,0.1-0.4H27z"/>
	<path class="st2" d="M35.8,10.9c-0.2,0.1-0.3,0.4-0.1,0.4h0.4c0.1-0.1,0.1-0.3,0-0.4H35.8z"/>
	<path class="st2" d="M7.5,10.8C7.2,11,7,11.3,7.1,11.7c0,0.2,0.2,0.4,0.4,0.5c0.2,0.1,0.4,0,0.7-0.1c0.3-0.2,0.4-0.6,0.3-0.9
		C8.5,10.9,8,10.7,7.5,10.8z"/>
	<path class="st2" d="M11.6,11c-0.2,0.2-0.2,0.5,0.1,0.4s0.2-0.1,0.2-0.3L11.6,11L11.6,11z"/>
	<path class="st2" d="M17.7,11c-0.5,0.2-0.4,0.9,0.2,0.8s0.5-0.1,0.5-0.4h0.1v-0.3l-0.4-0.2L17.7,11z"/>
	<path class="st2" d="M32.9,11c-0.1,0.1-0.1,0.4,0,0.5H33c0.2,0,0.3-0.2,0.3-0.4V11H32.9z"/>
	<path class="st2" d="M28.5,11c-0.2,0.1-0.3,0.2-0.3,0.4v0.2c0.1,0.1,0.3,0.1,0.5-0.1c0.1,0,0.2,0,0.3-0.1s0-0.2-0.1-0.3
		C28.8,11,28.6,10.9,28.5,11z"/>
	<path class="st2" d="M23.5,11.1c-0.1,0.1-0.2,0.2-0.2,0.4c-0.1,0.1,0,0.1,0,0.2c0.1,0.1,0.3,0.1,0.4,0s0.2-0.3,0.2-0.4
		C23.9,11,23.7,11,23.5,11.1z"/>
	<path class="st2" d="M37.9,11.1c-0.1,0.1-0.1,0.2-0.1,0.4s0,0.2,0,0.3h0.3l0.3-0.2c0.1-0.1,0.2-0.3,0.1-0.5c0-0.1-0.1-0.2-0.3-0.2
		L37.9,11.1z"/>
	<path class="st2" d="M30.2,11.1c-0.1,0.1-0.1,0.1-0.1,0.3s0,0.2,0.1,0.2s0.5,0,0.5-0.3s0-0.1-0.1-0.2H30.2z"/>
	<path class="st2" d="M0.2,11.1L0,11.4c0,0.3,0.2,0.4,0.6,0.3c0.2,0,0.3-0.1,0.3-0.3l0,0c0-0.1-0.1-0.2-0.2-0.2L0.2,11.1z"/>
	<path class="st2" d="M19.3,11.3l-0.2,0.3h0.1c0.2,0.1,0.4,0,0.5-0.1v-0.2C19.8,11,19.6,11,19.3,11.3z"/>
	<path class="st2" d="M42.6,11.1c-0.4,0.2-0.4,0.7-0.1,0.8c0.3,0.1,0.7,0,0.8-0.3l0,0c0-0.2,0-0.3-0.1-0.4h-0.6L42.6,11.1z"/>
	<path class="st2" d="M13.3,11.2c-0.1,0-0.2,0-0.3,0.1s0,0.2,0.1,0.3l0,0c0.1,0.2,0.3,0.2,0.5,0.1c0.1,0,0.2,0,0.3-0.1
		s0-0.2-0.1-0.3l0,0c0-0.1-0.1-0.1-0.2-0.2L13.3,11.2z"/>
	<path class="st2" d="M25.3,11.2c-0.2,0.1-0.2,0.3-0.2,0.5c0,0.1,0,0.1,0.1,0.1l0,0h0.2c0.3,0,0.5-0.4,0.3-0.6H25.3z"/>
	<path class="st2" d="M46.2,11.3c-0.1,0.1-0.1,0.2,0,0.3l0,0h0.2c0.3,0,0.4-0.2,0.2-0.4S46.3,11.2,46.2,11.3z"/>
	<path class="st2" d="M49.4,11.3c-0.1,0-0.2,0.1-0.2,0.2l0,0c0,0.2,0.1,0.3,0.3,0.3l0,0c0.1-0.1,0.2-0.2,0.3-0.3
		c0-0.2-0.1-0.3-0.3-0.3C49.5,11.3,49.5,11.3,49.4,11.3z"/>
	<path class="st2" d="M6.1,11.4c-0.1,0.1-0.1,0.2,0,0.3s0.2,0.1,0.3,0c0.1-0.1,0.1-0.3,0-0.4L6.1,11.4L6.1,11.4z"/>
	<path class="st2" d="M40,11.4c-0.1,0-0.1,0.1-0.1,0.2s0.1,0.2,0.3,0.2s0.3-0.1,0.3-0.2c0-0.2-0.2-0.3-0.3-0.3
		C40.1,11.3,40,11.4,40,11.4z"/>
	<path class="st2" d="M22.4,11.4c-0.2,0.1-0.2,0.2-0.2,0.3s0.2,0.3,0.3,0.2s0.4-0.4,0.3-0.5H22.4z"/>
	<path class="st2" d="M31.6,11.4c-0.1,0-0.2,0-0.3,0.1s0,0.2,0.1,0.3l0,0c0.1,0.1,0.6,0.1,0.6-0.1S31.8,11.3,31.6,11.4z"/>
	<path class="st2" d="M34.9,11.4c-0.1,0.1-0.1,0.2,0,0.3l0,0c0.2,0.2,0.5,0.1,0.5-0.1S35.1,11.3,34.9,11.4z"/>
	<path class="st2" d="M15.5,11.6c-0.1,0-0.2,0.1-0.2,0.3s0.1,0.3,0.3,0.3l0,0c0.2-0.1,0.4-0.2,0.4-0.5s0-0.1,0-0.2
		S15.6,11.4,15.5,11.6z"/>
	<path class="st2" d="M4.6,11.6c-0.2,0.2-0.3,0.4-0.1,0.5h0.4c0.1-0.2,0.1-0.3,0-0.5C4.9,11.4,4.7,11.4,4.6,11.6z"/>
	<path class="st2" d="M35.8,11.5c-0.1,0.1-0.2,0.3-0.1,0.4s0.5,0.2,0.6,0.1c0.1-0.1,0.1-0.4,0-0.5H35.8z"/>
	<path class="st2" d="M47.9,11.5c-0.1,0-0.1,0.1-0.2,0.2c-0.1,0.2-0.1,0.3,0,0.5c0.2,0.2,0.9,0.2,1,0c0.1-0.3,0-0.5-0.2-0.7H47.9z"
		/>
	<path class="st2" d="M2.8,11.5c-0.1,0.1-0.1,0.3,0,0.4l0,0l0.4-0.2c0-0.1-0.2-0.3-0.2-0.3H2.8V11.5z"/>
	<path class="st2" d="M14.5,11.5c-0.1,0.1-0.1,0.2-0.1,0.3s0,0.2,0.1,0.2s0.6-0.1,0.4-0.4L14.5,11.5z"/>
	<path class="st2" d="M26.7,11.7l-0.6,0.4c-0.2,0.2,0.1,0.4,0.6,0.4h0.4c0.1,0,0.1-0.1,0.1-0.3s0-0.4-0.1-0.4L26.7,11.7z"/>
	<path class="st2" d="M12.4,11.8v0.3h0.4c0.1-0.1,0.1-0.2,0.1-0.3s-0.1-0.2-0.3-0.2L12.4,11.8z"/>
	<path class="st2" d="M39.1,11.8c-0.2,0.2-0.3,0.4-0.1,0.4c0.2,0.1,0.4,0,0.5-0.1s0.1-0.2,0-0.3l0,0C39.4,11.7,39.2,11.7,39.1,11.8z
		"/>
	<path class="st2" d="M33.8,11.8L33.8,11.8l0.2,0.3c0.2,0,0.3-0.2,0.2-0.4l0,0L33.8,11.8z"/>
	<path class="st2" d="M20.3,11.9c-0.1,0.1-0.1,0.3-0.1,0.4c0.1,0.2,0.2,0.3,0.4,0.2c0.2-0.1,0.3-0.2,0.2-0.4c0-0.2-0.1-0.3-0.3-0.3
		L20.3,11.9z"/>
	<path class="st2" d="M24.1,11.7c-0.3,0.2-0.5,0.5-0.5,0.9c0,0.3,0.2,0.5,0.4,0.6h0.4c0.4-0.2,0.6-0.6,0.7-1
		C25.1,11.9,24.5,11.6,24.1,11.7z"/>
	<path class="st2" d="M16.8,12c-0.1,0-0.1,0.1-0.1,0.2s0,0.3,0.2,0.3s0.4-0.1,0.5-0.3c0-0.1,0-0.2-0.1-0.3s-0.3-0.1-0.4,0
		C16.8,11.9,16.8,12,16.8,12z"/>
	<path class="st2" d="M5.2,11.9c-0.1,0.2-0.1,0.3,0,0.5h0.5c0.1-0.1,0.1-0.2,0-0.3l0,0C5.6,12,5.4,11.9,5.2,11.9z"/>
	<path class="st2" d="M11.4,12c-0.1,0.1-0.1,0.3-0.1,0.4c0.2,0.2,0.6-0.1,0.6-0.3s-0.1-0.2-0.3-0.2L11.4,12z"/>
	<path class="st2" d="M31.4,12c-0.2,0.2-0.2,0.5,0,0.6c0.2,0,0.3-0.1,0.4-0.2C31.9,12.1,31.7,11.8,31.4,12z"/>
	<path class="st2" d="M18.5,12.1c-0.1,0-0.2,0.1-0.2,0.3v0.2h0.2l0.3-0.3c0.1-0.1,0.1-0.1,0-0.2s0-0.2-0.2-0.2L18.5,12.1z"/>
	<path class="st2" d="M30.2,12.1c-0.2,0-0.3,0.2-0.3,0.4s0,0.2,0.1,0.2s0.5,0.1,0.5-0.1S30.4,12,30.2,12.1z"/>
	<path class="st2" d="M28,12.2c-0.1,0.1-0.1,0.4,0,0.5c0.2,0.2,0.4,0.1,0.5-0.1s0-0.3-0.1-0.4H28z"/>
	<path class="st2" d="M36.9,12.1c-0.3,0.1-0.4,0.4-0.4,0.7c0.1,0.9,1.1,1.1,1.4,0.2c0.1-0.3,0-0.7-0.3-0.9H36.9z"/>
	<path class="st2" d="M41.1,12.2c0,0.1-0.1,0.2-0.1,0.3v0.2c0.1,0.2,0.5,0.1,0.5-0.3s0-0.3-0.2-0.3L41.1,12.2z"/>
	<path class="st2" d="M43.5,12.3c-0.1,0.1-0.2,0.2-0.2,0.4c0,0.1,0.3,0.1,0.5-0.1s0.1-0.2,0-0.4S43.6,12.1,43.5,12.3z"/>
	<path class="st2" d="M8.2,12.3c-0.1,0.1,0,0.3,0.1,0.4c0.1,0.1,0.2,0.1,0.3,0l0,0c0.1,0,0.1-0.1,0.1-0.2c0-0.2-0.2-0.3-0.3-0.3
		S8.2,12.3,8.2,12.3z"/>
	<path class="st2" d="M34.8,12.2l-0.2,0.3c-0.1,0.2,0,0.3,0.2,0.4c0.2,0.1,0.3,0,0.4-0.2c0.1-0.1,0.1-0.3,0-0.4h-0.4V12.2z"/>
	<path class="st2" d="M22,12.3c-0.1,0.1-0.2,0.1-0.2,0.3s0.3,0.5,0.6,0.3s0.2-0.3,0.1-0.5l0,0C22.4,12.3,22.2,12.2,22,12.3z"/>
	<path class="st2" d="M49.4,12.3c-0.1,0-0.2,0-0.3,0.2s0,0.2,0.2,0.2c0.1,0.1,0.2,0.1,0.4,0s0.1-0.3,0-0.4S49.5,12.2,49.4,12.3z"/>
	<path class="st2" d="M47.2,12.3c-0.1,0.1-0.1,0.2,0,0.3l0,0c0.1,0.2,0.3,0.2,0.3,0.1s0.1-0.4,0-0.4L47.2,12.3z"/>
	<path class="st2" d="M32.8,12.5c-0.2,0.1-0.2,0.2-0.1,0.3s0.7-0.1,0.5-0.3L33,12.3L32.8,12.5z"/>
	<path class="st2" d="M6.5,12.4c-0.1,0.1-0.1,0.3,0,0.4h0.4C7,12.8,7,12.7,7,12.6S6.6,12.3,6.5,12.4z"/>
	<path class="st2" d="M13.3,12.5c0,0.1,0,0.2,0.1,0.3c0.1,0.2,0.2,0.2,0.3,0.2s0.2-0.2,0.1-0.4h-0.5L13.3,12.5z"/>
	<path class="st2" d="M14.6,12.5c-0.1,0.1-0.2,0.2-0.2,0.3s0.3,0.3,0.5,0.2s0.2-0.2,0.2-0.3v-0.2H14.6z"/>
	<path class="st2" d="M48.1,12.5c-0.3,0.3,0.3,0.7,0.6,0.4h0.1c0-0.1-0.1-0.2-0.3-0.3L48.1,12.5z"/>
	<path class="st2" d="M4.1,12.6c-0.1,0,0,0.2,0.1,0.3s0.3,0.1,0.3-0.1v-0.2H4.1z"/>
	<path class="st2" d="M11.8,12.6c-0.3,0-0.5,0.3-0.4,0.6l0,0c0,0.2,0.2,0.3,0.4,0.3c0.3,0,0.6-0.3,0.6-0.6v-0.1
		C12.3,12.6,12,12.5,11.8,12.6z"/>
	<path class="st2" d="M39.1,12.6C39,12.7,39,12.8,39,13l0.4,0.2l0.3-0.3C39.7,12.7,39.4,12.5,39.1,12.6z"/>
	<path class="st2" d="M20.5,12.6c-0.1,0-0.2,0.1-0.2,0.2l0,0c-0.1,0-0.2,0-0.3,0.1s0,0.2,0.1,0.3l0,0c0.1,0.1,0.1,0.1,0.3,0
		S20.9,12.5,20.5,12.6z"/>
	<path class="st2" d="M16.5,12.8c-0.2,0.2-0.2,0.3-0.1,0.4s0.4,0.1,0.5-0.1l0,0C16.9,12.7,16.6,12.6,16.5,12.8z"/>
	<path class="st2" d="M7.8,12.8c-0.1,0.3,0.1,0.6,0.4,0.4c0.1,0,0.1,0,0.1-0.1s0-0.1-0.1-0.1C8.2,12.8,8,12.7,7.8,12.8L7.8,12.8z"/>
	<path class="st2" d="M35.6,12.8c-0.2,0.1-0.3,0.2-0.3,0.4s0,0.2,0.1,0.2c0.1,0.1,0.3,0.2,0.5,0.1C36.3,13.2,36,12.6,35.6,12.8z"/>
	<path class="st2" d="M46.4,12.8c-0.2,0.1-0.3,0.3-0.3,0.5l0.2,0.2h0.3c0.3,0,0.5-0.1,0.5-0.3S46.8,12.7,46.4,12.8z"/>
	<path class="st2" d="M29.4,12.9c-0.1,0.1-0.2,0.2-0.2,0.4c0,0.1,0,0.2,0.1,0.3c0.3,0.2,0.6,0.1,0.8-0.2c0.1-0.1,0-0.3-0.1-0.4
		C29.8,12.9,29.6,12.8,29.4,12.9z"/>
	<path class="st2" d="M1.3,12.8c-0.4,0.1-0.6,0.5-0.6,0.9c0,0.3,0.2,0.6,0.5,0.6s0.6-0.1,0.8-0.4c0.2-0.1,0.3-0.3,0.2-0.5
		c0.1-0.2,0-0.4-0.2-0.5L1.3,12.8z"/>
	<path class="st2" d="M5.8,13c-0.1,0-0.1,0.1-0.1,0.2s0.1,0.2,0.3,0.1s0.2-0.1,0.1-0.3H5.8z"/>
	<path class="st2" d="M26.9,13l-0.2,0.2c0,0.1,0.1,0.3,0.2,0.3H27c0.2-0.1,0.3-0.3,0.2-0.4L26.9,13z"/>
	<path class="st2" d="M41.9,12.9v0.3c0,0.1,0.1,0.3,0.2,0.4c0.2,0.1,0.4,0.1,0.6-0.1v-0.1c0.1-0.3-0.2-0.5-0.5-0.5
		C42.2,12.9,41.9,12.9,41.9,12.9z"/>
	<path class="st2" d="M18,13c-0.1,0-0.2,0.2-0.2,0.3c0,0.2,0.1,0.3,0.2,0.4c0.3,0.1,0.6,0,0.8-0.1c0.1-0.2,0-0.4-0.1-0.5
		c0,0-0.1,0-0.2-0.1L18,13z"/>
	<path class="st2" d="M31.7,13.2c-0.1,0-0.2,0-0.3,0.1s0,0.2,0.1,0.3l0,0h0.1c0.1,0,0.1,0.1,0.2,0s0.4-0.3,0.2-0.6
		c-0.1-0.1-0.2-0.2-0.3-0.1S31.6,13.1,31.7,13.2z"/>
	<path class="st2" d="M33.6,13.1l-0.3,0.4l0.2,0.2c0,0.1,0.1,0.1,0.3,0.1s0.4-0.1,0.5-0.2c0.1-0.1,0.1-0.4,0-0.5H33.6z"/>
	<path class="st2" d="M15.2,13.3c-0.2,0.2-0.2,0.3,0,0.3s0.3-0.1,0.3-0.3l0,0c0-0.1,0-0.2-0.1-0.2L15.2,13.3z"/>
	<path class="st2" d="M21.2,13.2c-0.1,0.1-0.1,0.3,0,0.4h0.3c0.2,0,0.3-0.1,0.2-0.2S21.3,13,21.2,13.2z"/>
	<path class="st2" d="M48.3,13.2c-0.1,0.1-0.1,0.3,0,0.4h0.4c0.1-0.1,0.1-0.2,0-0.4H48.3z"/>
	<path class="st2" d="M49.5,13.2c-0.2,0.2-0.1,0.5,0.1,0.5s0.4-0.1,0.4-0.3s-0.1-0.1-0.1-0.2H49.5z"/>
	<path class="st2" d="M40.2,13.1c-0.3,0.2-0.6,0.5-0.5,0.8c0.2,0.2,0.4,0.3,0.7,0.3c0.3-0.1,0.6-0.6,0.4-0.9
		C40.7,13.1,40.4,13,40.2,13.1z"/>
	<path class="st2" d="M23.1,13.1c-0.1,0-0.2,0.2-0.3,0.3l0.2,0.3c0.1,0.2,0.1,0.2,0,0.4v0.3c0.1,0.2,0.3,0.2,0.5,0.1h0.1
		c0-0.1,0.1-0.2,0-0.3s0-0.2,0.1-0.2c0.1-0.1,0.2-0.3,0.2-0.4c-0.1-0.2-0.3-0.3-0.5-0.4L23.1,13.1z"/>
	<path class="st2" d="M47.5,13.3c-0.2,0.1-0.3,0.3-0.1,0.5s0.3,0.1,0.5-0.1l0,0c0.1-0.2,0-0.3-0.1-0.4S47.7,13.2,47.5,13.3z"/>
	<path class="st2" d="M25.4,13.3c-0.1,0.2-0.1,0.4,0,0.6h0.4c0.1-0.1,0.1-0.3,0.1-0.4c-0.1-0.2-0.2-0.3-0.4-0.2L25.4,13.3z"/>
	<path class="st2" d="M6.8,13.4v0.3h0.3c0.2-0.1,0.2-0.2,0.1-0.3S6.9,13.3,6.8,13.4z"/>
	<path class="st2" d="M16.1,13.4c-0.1,0.1-0.2,0.3-0.1,0.4h0.5c0.1-0.1,0.1-0.3,0.1-0.4h-0.1c0-0.1-0.1-0.2-0.2-0.2
		C16.2,13.2,16.1,13.3,16.1,13.4z"/>
	<path class="st2" d="M10.6,13.6l-0.2,0.3c0,0.1,0.1,0.2,0.3,0.1s0.2-0.1,0.2-0.3c0-0.1-0.1-0.2-0.2-0.2L10.6,13.6z"/>
	<path class="st2" d="M13.7,13.5c-0.3,0-0.6,0.3-0.5,0.7v0.1c0.1,0.4,0.5,0.7,0.9,0.6h0.2c0.2-0.1,0.4-0.3,0.5-0.6
		c0-0.2-0.1-0.4-0.2-0.6C14.4,13.4,14,13.3,13.7,13.5z"/>
	<path class="st2" d="M19.5,13.5h-0.2c-0.1,0.1-0.1,0.1,0,0.3s0.3,0.3,0.5,0.2c0.1-0.1,0.1-0.4,0-0.5H19.5z"/>
	<path class="st2" d="M38.2,13.6c-0.1,0.2-0.1,0.3,0.1,0.4h0.4c0.2-0.2,0.1-0.4-0.2-0.4H38.2z"/>
	<path class="st2" d="M3.1,13.6C3,13.7,2.9,13.8,3,13.9v0.2c0.2,0.1,0.4,0,0.4-0.3S3.3,13.5,3.1,13.6z"/>
	<path class="st2" d="M4.7,13.7c-0.1,0.1-0.1,0.2,0,0.4h0.2c0.2,0,0.3-0.1,0.3-0.3s-0.1-0.3-0.3-0.3L4.7,13.7z"/>
	<path class="st2" d="M20.9,13.7c-0.1,0.1-0.2,0.2-0.1,0.3l0,0c0.2,0.2,0.4,0.2,0.6,0.1l0,0c0.1-0.1,0.2-0.3,0.1-0.5L20.9,13.7
		L20.9,13.7z"/>
	<path class="st2" d="M5.7,13.8c-0.2,0.1-0.2,0.4,0,0.4s0.5,0,0.4-0.2S5.8,13.7,5.7,13.8z"/>
	<path class="st2" d="M43.2,13.8C43,13.9,43,14,43,14.2s0.4,0.2,0.5-0.1v-0.2C43.6,13.8,43.4,13.7,43.2,13.8z"/>
	<path class="st2" d="M47.9,13.9c-0.1,0.1-0.1,0.2,0,0.3l0,0c0.2,0.2,0.4-0.1,0.3-0.3H47.9z"/>
	<path class="st2" d="M17.3,13.9c-0.1,0.1-0.2,0.3-0.2,0.4h0.2c0.2,0,0.4-0.1,0.4-0.3S17.5,13.8,17.3,13.9z"/>
	<path class="st2" d="M30.2,13.9c0,0.1,0,0.3,0.1,0.4l0.3-0.3L30.2,13.9L30.2,13.9z"/>
	<path class="st2" d="M26.8,13.9c-0.2,0.2-0.2,0.4-0.1,0.6h1.1c0.2-0.1,0.3-0.4,0.1-0.5h-0.5C27.2,13.9,27,13.8,26.8,13.9z"/>
	<path class="st2" d="M6.8,14c-0.2,0.1-0.3,0.4-0.2,0.5v0.2c0.3,0.2,0.6,0.1,0.8-0.1l0,0c0.1-0.2,0.1-0.5-0.1-0.6
		C7.3,14,6.8,14,6.8,14z"/>
	<path class="st2" d="M48.7,14.1c-0.2,0.1-0.1,0.2,0,0.3s0.3,0.2,0.4,0.1s0.2-0.3,0-0.5S48.7,13.9,48.7,14.1z"/>
	<path class="st2" d="M49.5,14v0.4c0.2,0.1,0.5,0,0.5-0.2L49.5,14L49.5,14z"/>
	<path class="st2" d="M46.6,14c-0.2,0.2-0.1,0.6,0.1,0.6c0.2,0,0.3-0.2,0.3-0.4C47,14.1,46.9,14,46.6,14L46.6,14z"/>
	<path class="st2" d="M28.7,14.1c-0.2,0.2-0.1,0.4,0.2,0.5h0.3c0-0.1,0.1-0.2,0-0.3l-0.3-0.2H28.7z"/>
	<path class="st2" d="M31.1,14.1v0.2c0,0.3,0.1,0.4,0.4,0.3s0.3-0.2,0.2-0.4S31.2,13.9,31.1,14.1z"/>
	<path class="st2" d="M41.3,14.1c-0.1,0-0.2,0-0.3,0.2s0,0.2,0.2,0.2h0.5c0-0.2,0-0.4-0.1-0.4C41.6,14.1,41.3,14.1,41.3,14.1z"/>
	<path class="st2" d="M11.7,14.2c-0.2,0.1-0.2,0.2-0.2,0.4c0,0,0,0.1,0.1,0.1c0.3,0.1,0.7,0,0.7-0.3c0-0.2-0.1-0.3-0.3-0.3l0,0
		C11.9,14,11.8,14.1,11.7,14.2z"/>
	<path class="st2" d="M24.9,14.1l-0.2,0.3c0,0.2,0.1,0.3,0.3,0.3l0,0c0.2,0,0.3-0.1,0.3-0.3c0-0.1,0-0.2-0.1-0.2S25,14,24.9,14.1z"
		/>
	<path class="st2" d="M36.1,14.2c-0.3,0.3-0.2,0.6,0.1,0.5c0.2,0,0.3-0.1,0.3-0.3C36.5,14,36.3,14,36.1,14.2z"/>
	<path class="st2" d="M37.3,14.1c-0.2,0.1-0.2,0.2-0.2,0.4s0.3,0.2,0.5,0.1s0.3-0.3,0.1-0.4S37.4,14,37.3,14.1z"/>
	<path class="st2" d="M34.5,14.2c0,0.1,0,0.1-0.1,0.2s0.1,0.3,0.3,0.4H35c0.2-0.1,0.3-0.2,0.2-0.4l-0.4-0.3L34.5,14.2z"/>
	<path class="st2" d="M38.9,14.2c-0.1,0.2-0.1,0.3-0.1,0.5c0,0.1,0.1,0.2,0.2,0.2s0.2-0.1,0.2-0.2C39.4,14.5,39.1,14,38.9,14.2z"/>
	<path class="st2" d="M8.1,14.3c-0.2,0.2-0.3,0.5-0.2,0.6h0.4c0.2-0.2,0.1-0.5-0.1-0.5L8.1,14.3z"/>
	<path class="st2" d="M19.8,14.4v0.2c0,0.1,0,0.2,0.2,0.3s0.3,0.1,0.4-0.1s0.1-0.4-0.2-0.4H19.8z"/>
	<path class="st2" d="M5.6,14.5c-0.4,0.3-0.4,0.6,0,0.6s0.5-0.1,0.5-0.3S5.8,14.3,5.6,14.5z"/>
	<path class="st2" d="M32.6,14.6v0.2h0.1c0.2,0.2,0.4,0,0.3-0.3S32.7,14.4,32.6,14.6z"/>
	<path class="st2" d="M23,14.6c-0.2,0-0.2,0.2-0.2,0.3v0.2c0.3,0.2,0.7,0,0.6-0.3C23.3,14.7,23.2,14.6,23,14.6z"/>
	<path class="st2" d="M15.7,14.6c-0.1,0.1-0.2,0.2-0.2,0.4s0.3,0.3,0.5,0.1c0.2-0.2,0.2-0.5-0.1-0.5H15.7z"/>
	<path class="st2" d="M17.7,14.7L17.4,15l0.3,0.2h0.2c0.1-0.1,0.2-0.3,0.1-0.4h-0.3V14.7z"/>
	<path class="st2" d="M43,14.6c-0.2,0.1-0.4,0.3-0.5,0.5s-0.1,0.4,0,0.6l0.6,0.2l0.5-0.2c0.3-0.2,0.4-0.7,0.1-1l-0.1-0.1H43z"/>
	<path class="st2" d="M14.5,14.7c-0.1,0.2,0,0.3,0.1,0.4h0.1l0.4-0.2l-0.3-0.3L14.5,14.7z"/>
	<path class="st2" d="M21.7,14.6c-0.2,0.1-0.3,0.2-0.3,0.4v0.3c0.2,0.3,0.8,0.1,0.8-0.2s-0.1-0.5-0.4-0.5H21.7z"/>
	<path class="st2" d="M48.3,14.7l-0.2,0.2c-0.2,0.2-0.1,0.4,0.1,0.6c0.2,0.1,0.5,0.1,0.7-0.1c0.1-0.2,0.2-0.3,0-0.5
		c0-0.2-0.3-0.4-0.5-0.3l0,0L48.3,14.7z"/>
	<path class="st2" d="M29.6,14.8c-0.2,0.1-0.2,0.4-0.1,0.6h0.6c0.2-0.1,0.3-0.3,0.2-0.5v-0.2h-0.6L29.6,14.8z"/>
	<path class="st2" d="M26.2,14.9c-0.1,0-0.1,0.1-0.1,0.2s0.2,0.5,0.4,0.2s0.2-0.4,0-0.5S26.3,14.7,26.2,14.9z"/>
	<path class="st2" d="M3,14.9v0.2c0,0.2,0.2,0.4,0.5,0.2s0.2-0.1,0.1-0.3S3.1,14.7,3,14.9z"/>
	<path class="st2" d="M37.5,14.8c-0.1,0.1-0.1,0.2-0.1,0.3c0,0.2,0.1,0.4,0.3,0.4s0.4-0.1,0.4-0.3c0-0.1,0-0.2-0.1-0.3
		C37.8,14.8,37.6,14.7,37.5,14.8z"/>
	<path class="st2" d="M40,14.9c-0.1,0.1-0.1,0.2-0.1,0.3c0.1,0,0.1,0,0.1,0.1c0.1,0.1,0.2,0,0.3-0.1s0.1-0.2,0.1-0.3H40z"/>
	<path class="st2" d="M49.2,14.9c-0.1,0.1-0.1,0.2,0,0.3l0,0c0.2,0.2,0.6,0,0.5-0.2S49.4,14.8,49.2,14.9L49.2,14.9z"/>
	<path class="st2" d="M19.1,14.9c-0.1,0-0.2,0.2-0.2,0.4h0.5c0.2-0.2,0.2-0.5,0.1-0.5L19.1,14.9z"/>
	<path class="st2" d="M13,15.1c-0.1,0.1-0.1,0.1-0.1,0.2h-0.1c0,0.1,0.3,0.2,0.5,0.1s0.1-0.2,0.1-0.4S13.2,14.9,13,15.1z"/>
	<path class="st2" d="M46.6,15.1c-0.1,0.1-0.1,0.2-0.1,0.4h0.2c0.2,0,0.4-0.2,0.4-0.4l0,0C47.1,15.1,46.6,15.1,46.6,15.1z"/>
	<path class="st2" d="M8,15.1c-0.1,0-0.2,0.2-0.2,0.3s0.5,0.4,0.7,0.1s0.1-0.3,0-0.4C8.5,15.1,8,15.1,8,15.1z"/>
	<path class="st2" d="M11.7,15.2h-0.2l0.2,0.2c0.2,0,0.4-0.1,0.4-0.3l0,0C12.1,15,11.9,14.9,11.7,15.2z"/>
	<path class="st2" d="M24.7,15.1v0.2c0,0.2,0,0.2,0.1,0.2H25c0.1,0,0.1-0.1,0-0.2C25,15.2,24.9,15.1,24.7,15.1L24.7,15.1L24.7,15.1z
		"/>
	<path class="st2" d="M31.2,15.1c-0.1,0.1-0.2,0.2-0.1,0.3l0,0c0,0.2,0.2,0.3,0.4,0.3s0.3-0.2,0.3-0.4L31.5,15L31.2,15.1z"/>
	<path class="st2" d="M38.9,15.2c-0.1,0.1-0.1,0.3,0,0.4H39c0.4,0.2,0.7-0.2,0.4-0.5L38.9,15.2z"/>
	<path class="st2" d="M41.3,15.2v0.2c0,0.2,0,0.2,0.2,0.1s0.2-0.1,0.1-0.2S41.4,15.1,41.3,15.2z"/>
	<path class="st2" d="M19.8,15.2c-0.1,0.1-0.2,0.3-0.1,0.5c0.1,0.3,0.7,0,0.7-0.3S20,15.1,19.8,15.2z"/>
	<path class="st2" d="M27.6,15.2c-0.1,0.1-0.2,0.2-0.1,0.3s0.1,0.3,0.2,0.2h0.1l0.2-0.2c0-0.2-0.1-0.3-0.3-0.3H27.6z"/>
	<path class="st2" d="M14.3,15.2c-0.1,0.1-0.2,0.3-0.1,0.4c0.1,0.2,0.3,0.3,0.5,0.2c0.3,0,0.4-0.4,0.1-0.6L14.3,15.2z"/>
	<path class="st2" d="M23.4,15.2c-0.3,0.1-0.4,0.4-0.3,0.7c0.1,0.4,0.5,0.4,0.8,0l0.2-0.3l-0.2-0.4H23.4z"/>
	<path class="st2" d="M34.4,15.2c-0.2,0.2-0.3,0.4-0.2,0.7c0.1,0.3,0.5,0.3,0.8,0.2s0.4-0.4,0.1-0.7S34.5,15.1,34.4,15.2z"/>
	<path class="st2" d="M6.8,15.4v0.2c0,0.2,0.1,0.3,0.3,0.3l0,0h0.2c0.1-0.1,0.1-0.1,0-0.3S6.9,15.3,6.8,15.4z"/>
	<path class="st2" d="M36.6,15.4c-0.2,0.2-0.2,0.4,0,0.5l0.2,0.2c0.2,0,0.4-0.2,0.4-0.4l0,0c0.1-0.1,0-0.2,0-0.3
		C37.2,15.4,36.6,15.4,36.6,15.4z"/>
	<path class="st2" d="M18.2,15.5c0,0.1-0.1,0.2-0.1,0.3s0.1,0.2,0.2,0.2c0.2,0,0.4-0.2,0.4-0.4l0,0C18.7,15.4,18.4,15.3,18.2,15.5z"
		/>
	<path class="st2" d="M25.6,15.4c-0.2,0.2-0.2,0.4-0.1,0.6l0,0c0.2,0.1,0.4,0.2,0.6,0.1c0.1-0.1,0.2-0.2,0.2-0.4s-0.2-0.4-0.5-0.5
		L25.6,15.4z"/>
	<path class="st2" d="M33,15.5c-0.1,0.2-0.1,0.3,0.1,0.5c0.2,0.2,0.1,0.1,0.2,0.1c0.2,0,0.3-0.1,0.4-0.2c0.1-0.1,0.1-0.1,0-0.2
		c0-0.2-0.2-0.4-0.5-0.3C33.1,15.4,33.1,15.4,33,15.5z"/>
	<path class="st2" d="M38.1,15.6c-0.1,0.1-0.1,0.2,0,0.4c0.1,0.1,0.3,0.1,0.4,0c0.1-0.2,0.1-0.4-0.1-0.5L38.1,15.6z"/>
	<path class="st2" d="M28.8,15.5v0.2c0,0.1,0.1,0.3,0.2,0.4l0,0c0,0.2,0.2,0.3,0.4,0.1s0.1-0.2,0.1-0.3h-0.1v-0.2
		c0-0.1,0-0.1-0.1-0.2S29,15.4,28.8,15.5z"/>
	<path class="st2" d="M16.7,15.6L16.5,16c0,0.1,0,0.2,0.1,0.2s0.4-0.1,0.4-0.4S16.9,15.5,16.7,15.6z"/>
	<path class="st2" d="M22.1,15.7c-0.2,0-0.2,0.2-0.2,0.4s0.1,0.3,0.3,0.3h0.3c0.1-0.1,0.1-0.4,0-0.5C22.4,15.7,22.2,15.6,22.1,15.7z
		"/>
	<path class="st2" d="M31.8,15.8c-0.1,0.1-0.2,0.2-0.2,0.4c0.1,0.1,0.2,0.1,0.4,0s0.1,0,0.1-0.2s-0.1-0.3-0.2-0.3
		C31.8,15.7,31.8,15.7,31.8,15.8z"/>
	<path class="st2" d="M49,15.7c-0.2,0.1-0.3,0.2-0.3,0.4h0.5C49.5,15.8,49.3,15.5,49,15.7z"/>
	<path class="st2" d="M40.6,15.7L40.3,16c-0.1,0.2,0,0.5,0.2,0.5c0,0.1,0,0.1,0.1,0.1c0.2,0,0.4,0,0.6-0.2c0.1-0.1,0.2-0.3,0.1-0.4
		l-0.2-0.3H40.6z"/>
	<path class="st2" d="M47.8,15.8V16c0,0.1,0.1,0.2,0.2,0.2l0,0c0.2,0,0.3-0.1,0.3-0.2S47.9,15.7,47.8,15.8z"/>
	<path class="st2" d="M11.6,15.8c-0.2,0.1-0.2,0.1-0.2,0.3v0.2c0.3,0.1,0.5,0,0.5-0.2c0-0.1,0-0.2-0.1-0.3H11.6z"/>
	<path class="st2" d="M30.3,15.9c-0.2,0.2-0.1,0.4,0.2,0.4h0.3c0.1-0.1,0-0.2-0.1-0.3l0,0L30.3,15.9z"/>
	<path class="st2" d="M4.2,15.8c-0.1,0.1-0.1,0.3-0.1,0.4c0.1,0.1,0.2,0.2,0.4,0.2c0.2-0.1,0.3-0.2,0.2-0.3
		C4.6,15.9,4.4,15.8,4.2,15.8z"/>
	<path class="st2" d="M27.4,15.9c-0.1,0-0.2,0.2-0.2,0.4s0,0.2,0.1,0.2c0.1,0.1,0.2,0.1,0.3,0l0,0c0.2-0.1,0.3-0.3,0.2-0.5h-0.4
		V15.9z"/>
	<path class="st2" d="M46.8,15.9c0,0.1-0.1,0.2,0,0.3s0.1,0.3,0.2,0.3l0.2-0.2v-0.2l-0.3-0.2L46.8,15.9z"/>
	<path class="st2" d="M6,16c-0.1,0.1-0.1,0.3-0.1,0.4c0.1,0.3,0.6,0.1,0.6-0.2c0-0.2-0.2-0.3-0.3-0.3C6.1,15.9,6,16,6,16z"/>
	<path class="st2" d="M43.4,16.1c-0.1,0.2-0.1,0.3,0,0.4s0.3,0,0.4-0.1h0.1c0-0.2,0-0.3-0.2-0.4C43.6,16,43.5,16,43.4,16.1z"/>
	<path class="st2" d="M19.4,16c-0.1,0-0.1,0.2-0.1,0.3s0.1,0.2,0.2,0.2h0.2v0.2c-0.1,0.2-0.1,0.2,0,0.3s0.2,0.1,0.5-0.1h0.4l0.2-0.2
		v-0.2c-0.1-0.1-0.4-0.1-0.8,0s-0.1,0-0.1-0.1c0.1-0.1,0.1-0.2,0-0.3l0,0L19.4,16z"/>
	<path class="st2" d="M15.3,16.1v0.5h0.2c0.2,0,0.2,0,0.2-0.2S15.4,16,15.3,16.1z"/>
	<path class="st2" d="M39.2,16.1c-0.1,0.1-0.1,0.4,0,0.5v0.3c0.1,0.2,0.1,0.2,0.2,0.2s0.2,0,0.2-0.1s0.2-0.5,0-0.5s-0.1-0.1-0.1-0.2
		c0-0.2-0.1-0.3-0.3-0.3l0,0C39.2,16,39.2,16.1,39.2,16.1z"/>
	<path class="st2" d="M42.1,16.4C42,16.5,42,16.5,42,16.6c-0.1,0.1,0,0.2,0.2,0.2s0.3-0.1,0.3-0.3C42.5,16.2,42.3,16.2,42.1,16.4z"
		/>
	<path class="st2" d="M28.1,16.4c-0.2,0.1-0.3,0.3-0.2,0.5l0,0c0.1,0.1,0.3,0.1,0.5-0.1S28.4,16.3,28.1,16.4z"/>
	<path class="st2" d="M49.2,16.4l-0.3,0.4l0.4,0.2c0.2-0.1,0.3-0.2,0.3-0.4l-0.2-0.2H49.2z"/>
	<path class="st2" d="M23.7,16.4l-0.3,0.3c-0.1,0.3,0.1,0.5,0.4,0.6c0.1,0,0.3,0,0.4-0.1s0.2-0.2,0.1-0.3s-0.1-0.5-0.4-0.5H23.7z"/>
	<path class="st2" d="M8.3,16.5v0.4c0.2,0.1,0.4,0,0.6-0.1c0-0.1-0.1-0.2-0.3-0.3C8.5,16.4,8.4,16.4,8.3,16.5L8.3,16.5z"/>
	<path class="st2" d="M18.2,16.4c-0.2,0.2-0.3,0.5-0.1,0.7l0,0h0.2c0.1-0.1,0.3-0.3,0.2-0.5v-0.2H18.2z"/>
	<path class="st2" d="M37.4,16.5c-0.2,0.1-0.1,0.4,0.2,0.4s0.1,0,0.2-0.2s0-0.2-0.1-0.2C37.6,16.4,37.5,16.4,37.4,16.5L37.4,16.5z"
		/>
	<path class="st2" d="M16.8,16.5l-0.3,0.4c0,0.2,0.3,0.3,0.5,0.2s0.3-0.5,0.1-0.6C17,16.4,16.9,16.4,16.8,16.5L16.8,16.5z"/>
	<path class="st2" d="M31.8,16.5c-0.2,0.1-0.3,0.5-0.2,0.6h0.6c0.1-0.1,0.1-0.1,0.1-0.2S32.1,16.4,31.8,16.5z"/>
	<path class="st2" d="M13.8,16.6c-0.3,0-0.4,0.3-0.3,0.4s0.2,0.2,0.4,0.1s0.2-0.2,0.2-0.3S13.9,16.5,13.8,16.6z"/>
	<path class="st2" d="M47.6,16.6c-0.1,0-0.2,0-0.3,0.1c0,0.1,0,0.2,0.2,0.3l0,0c0.2,0.1,0.4,0.1,0.6-0.1
		C48.1,16.7,47.8,16.5,47.6,16.6L47.6,16.6z"/>
	<path class="st2" d="M26.2,16.6c-0.1,0.1-0.2,0.1-0.2,0.2h-0.5c-0.2,0-0.4,0.2-0.4,0.4c0,0.3,0.5,0.4,0.7,0.1H26
		c0.2,0.1,0.3,0,0.4-0.2v-0.2c0-0.1-0.1-0.2-0.3-0.2L26.2,16.6z"/>
	<path class="st2" d="M34.3,16.7c-0.1,0-0.2,0.2-0.2,0.3s0,0.2,0.1,0.3h0.5c0.1,0,0.1-0.1,0.1-0.2v-0.3L34.3,16.7z"/>
	<path class="st2" d="M35.7,16.7c-0.2,0-0.3,0.1-0.3,0.3c0,0.5,0.9,0.6,1.1,0.2c0.1-0.1,0.1-0.3,0-0.4C36.3,16.6,36,16.5,35.7,16.7z
		"/>
	<path class="st2" d="M43.9,16.7c-0.1,0-0.2,0.2-0.2,0.3s0.1,0.5,0.3,0.5c0.2,0.1,0.5,0.1,0.7,0c0.1-0.1,0.1-0.1,0.1-0.3
		c0-0.2-0.1-0.4-0.3-0.5S44.1,16.5,43.9,16.7z"/>
	<path class="st2" d="M2.6,16.8H2.4c0.1,0.1,0.2,0.2,0.3,0.3c0.2,0,0.2-0.1,0.2-0.3S2.8,16.7,2.6,16.8z"/>
	<path class="st2" d="M30.2,16.6l-0.5,0.3c-0.1,0.1-0.1,0.4,0,0.5v0.2c0,0.1,0.2,0.3,0.4,0.4c0.3,0.1,0.6,0,0.8-0.2
		c0.2-0.2,0.2-0.4,0.2-0.6s-0.1-0.4-0.2-0.5L30.2,16.6z"/>
	<path class="st2" d="M32.9,16.8c-0.1,0.1-0.1,0.1-0.1,0.3s0,0.2,0.1,0.2s0.3,0.1,0.4-0.1c0-0.1,0-0.3-0.1-0.4H32.9z"/>
	<path class="st2" d="M41.1,17c-0.1,0.2-0.1,0.3,0.1,0.3s0.2-0.1,0.2-0.2S41.3,16.9,41.1,17z"/>
	<path class="st2" d="M7.2,16.9C7,17.1,6.9,17.3,7,17.6l0,0c0.3,0.5,0.8,0.4,0.8-0.2c0-0.3-0.2-0.5-0.5-0.5H7.2z"/>
	<path class="st2" d="M15.6,17.1c-0.2,0.1-0.1,0.2,0.2,0.2s0.1,0,0.1-0.1S15.7,16.9,15.6,17.1z"/>
	<path class="st2" d="M21.7,17c-0.1,0.1-0.2,0.3-0.1,0.4s0.1,0.2,0.4,0.2c0.2,0,0.3-0.1,0.3-0.3C22.3,17,22,16.9,21.7,17z"/>
	<path class="st2" d="M27.2,17.2c-0.1,0.1-0.1,0.2-0.1,0.3h0.3c0.1,0,0.1,0,0.1-0.1S27.4,17.1,27.2,17.2z"/>
	<path class="st2" d="M11.3,17.1c-0.4,0.2-0.6,0.5-0.6,0.9c0.1,0.4,0.5,0.6,0.9,0.5c0,0,0.1,0,0.1-0.1c0.3-0.1,0.6-0.4,0.6-0.5
		c-0.1-0.4-0.3-0.7-0.6-0.9L11.3,17.1z"/>
	<path class="st2" d="M19.2,17.2C19,17.3,19,17.4,19,17.6s0.3,0.3,0.5,0.1S19.5,17,19.2,17.2z"/>
	<path class="st2" d="M49,17.3c-0.2,0.1-0.2,0.2,0,0.3c0,0.1,0,0.2,0.2,0.3c0.1,0,0.2,0,0.3-0.1v-0.3H49V17.3z"/>
	<path class="st2" d="M47.6,17.4c-0.1,0.1-0.2,0.2-0.2,0.4h0.2c0.3,0,0.4-0.2,0.3-0.4H47.6z"/>
	<path class="st2" d="M42.4,17.4c0,0.1,0,0.2,0.1,0.3c0.1,0.2,0.3,0.1,0.3-0.2s0-0.1-0.1-0.1L42.4,17.4z"/>
	<path class="st2" d="M32.3,17.5c-0.1,0.1-0.3,0.2-0.3,0.4s0.1,0.3,0.4,0.2c0.2,0,0.3-0.1,0.3-0.3C32.7,17.5,32.5,17.4,32.3,17.5z"
		/>
	<path class="st2" d="M14.1,17.7l-0.2,0.2c-0.1,0.1-0.1,0.1,0,0.1c0.1,0.1,0.2,0.1,0.3,0l0,0c0.1-0.1,0.1-0.2,0.1-0.3
		C14.3,17.7,14.1,17.7,14.1,17.7z"/>
	<path class="st2" d="M40.5,17.7c-0.2,0.1-0.2,0.2,0,0.3c0.3,0.1,0.5,0,0.4-0.2c0-0.1,0-0.1-0.1-0.2L40.5,17.7z"/>
	<path class="st2" d="M20.4,17.7c-0.2,0.1-0.3,0.5-0.2,0.6c0.3,0.1,0.5,0,0.7-0.2c0.1-0.1,0-0.3-0.1-0.4H20.4z"/>
	<path class="st2" d="M25.8,17.8c-0.2,0.2-0.1,0.4,0.2,0.4s0.2,0,0.3-0.2s0-0.2-0.1-0.3h-0.4V17.8z"/>
	<path class="st2" d="M38.1,17.9c-0.3,0.3-0.2,0.6,0.2,0.5s0.5-0.3,0.3-0.6c-0.1-0.1-0.4-0.1-0.5,0V17.9z"/>
	<path class="st2" d="M42.2,17.8c-0.2,0.1-0.3,0.3-0.2,0.4s0.2,0.2,0.4,0.2s0.4-0.4,0.2-0.6S42.4,17.7,42.2,17.8z"/>
	<path class="st2" d="M16.8,17.8c-0.1,0.2,0,0.5,0.2,0.7c0,0,0,0,0.1,0c0.2,0,0.3-0.2,0.3-0.4c0-0.1,0-0.2-0.1-0.3
		C17.1,17.7,17,17.7,16.8,17.8z"/>
	<path class="st2" d="M28.3,17.9c-0.2,0.1-0.3,0.3-0.2,0.4s0.3,0.1,0.4-0.1s0.2-0.2,0.1-0.3H28.3z"/>
	<path class="st2" d="M48.1,17.8c-0.2,0.1-0.3,0.3-0.3,0.5v0.2c0.2,0.2,0.6,0.3,0.8,0.1c0,0,0,0,0.1-0.1
		C49,18.1,48.4,17.6,48.1,17.8z"/>
	<path class="st2" d="M23,18c-0.2,0.1-0.3,0.4-0.1,0.5s0.7,0,0.7-0.2s-0.1-0.2-0.1-0.3C23.3,17.9,23.2,17.9,23,18z"/>
	<path class="st2" d="M34.2,18v0.2c0,0.2,0,0.2,0.1,0.3l0.3,0.2c0.2,0,0.4-0.2,0.4-0.4l0,0c0.1,0,0-0.1,0-0.2
		C34.8,17.9,34.5,17.8,34.2,18z"/>
	<path class="st2" d="M18.4,17.9l-0.2,0.3c-0.1,0.3-0.1,0.6,0,0.9c0.1,0.2,0.2,0.3,0.4,0.3c0.4,0,0.7-0.3,0.8-0.6
		c0.2-0.2,0.2-0.5,0.1-0.7c-0.2-0.2-0.4-0.3-0.7-0.3L18.4,17.9z"/>
	<path class="st2" d="M35.7,18.1c-0.1,0.1-0.2,0.2-0.1,0.4l0,0c0.1,0.1,0.2,0.1,0.3-0.1s0.1-0.3,0-0.3H35.7z"/>
	<path class="st2" d="M46.4,18.1c-0.1,0.1-0.2,0.3-0.1,0.4s0.1,0.2,0.3,0.2s0.4-0.1,0.4-0.3v-0.2C46.9,18,46.6,17.9,46.4,18.1
		L46.4,18.1z"/>
	<path class="st2" d="M29.2,18.2c0,0.1,0,0.3,0.1,0.4h0.4c0.1,0,0.1-0.1,0.1-0.2S29.3,18,29.2,18.2z"/>
	<path class="st2" d="M49.5,18.3c-0.2,0.1-0.2,0.2-0.1,0.3h0.3c0.1,0,0.2,0,0.2-0.2S49.6,18.1,49.5,18.3z"/>
	<path class="st2" d="M15,18.3c-0.2,0.1-0.2,0.4-0.2,0.6c0.1,0.1,0.3,0.1,0.4,0l0.1-0.1c0.1,0,0.1-0.2,0.1-0.3s0-0.2-0.1-0.2
		C15.2,18.2,15.1,18.2,15,18.3L15,18.3z"/>
	<path class="st2" d="M24,18.3c-0.2,0.2-0.3,0.4,0,0.5h0.2c0.3-0.1,0.3-0.4,0.1-0.5S24.2,18.2,24,18.3z"/>
	<path class="st2" d="M27.3,18.4c-0.1,0-0.2,0.1-0.2,0.2l0,0c-0.1,0.2-0.1,0.3,0.2,0.3h0.3c0.1-0.1,0.1-0.3,0-0.4L27.3,18.4z"/>
	<path class="st2" d="M43.1,18.4c-0.1,0.2-0.1,0.3,0,0.4s0.5,0.1,0.5-0.1S43.2,18.3,43.1,18.4z"/>
	<path class="st2" d="M12.9,18.5c-0.2,0.2-0.3,0.4-0.3,0.6s0,0.3,0.3,0.3s0.3-0.1,0.5-0.3c0-0.2,0-0.4-0.1-0.5L12.9,18.5z"/>
	<path class="st2" d="M28.4,18.7c-0.2,0.1-0.4,0.4-0.2,0.5s0.7-0.3,0.5-0.5H28.4z"/>
	<path class="st2" d="M30.5,18.6c-0.2,0.1-0.3,0.4-0.2,0.5s0.4,0.1,0.5-0.1s0-0.3-0.1-0.4H30.5z"/>
	<path class="st2" d="M32,18.6c-0.3,0.2-0.4,0.5-0.2,0.7h0.4c0.4,0,0.5-0.1,0.5-0.5s0-0.2-0.1-0.2s-0.1-0.2-0.3-0.2L32,18.6z"/>
	<path class="st2" d="M22.3,18.9c-0.1,0.1-0.1,0.1-0.1,0.2s0.6,0.4,0.7,0.1c0.1-0.2,0-0.4-0.2-0.5h-0.1L22.3,18.9z"/>
	<path class="st2" d="M40.3,18.8c-0.2,0.1-0.3,0.3-0.3,0.5c0,0.1,0.1,0.2,0.2,0.1c0.2,0,0.4-0.2,0.4-0.4l0,0c0-0.2,0-0.3-0.1-0.3
		L40.3,18.8z"/>
	<path class="st2" d="M21.2,18.8C21,18.9,21,19.1,21,19.3s0.5-0.1,0.5-0.3c0-0.1,0-0.1-0.1-0.2H21.2z"/>
	<path class="st2" d="M25.7,18.9c-0.3,0.2-0.3,0.5,0.1,0.5s0.5-0.3,0.3-0.5H25.7z"/>
	<path class="st2" d="M36.7,18.8l-0.4,0.4v0.2h0.3c0.2,0,0.5-0.2,0.5-0.4l0,0C37.2,18.8,37,18.7,36.7,18.8z"/>
	<path class="st2" d="M29.5,19c-0.1,0.2,0,0.4,0.2,0.4s0.3-0.1,0.3-0.2S29.6,18.9,29.5,19z"/>
	<path class="st2" d="M26.7,18.5c-0.3,0.2-0.2,0.6,0.2,0.5s0.3-0.4,0.2-0.5C27,18.4,26.8,18.4,26.7,18.5z"/>
	<path class="st2" d="M41.7,18.4c-0.1,0.1-0.1,0.2-0.1,0.4s0,0.2,0.1,0.3s0.9,0.1,0.9-0.2c-0.1-0.2-0.3-0.4-0.5-0.4L41.7,18.4z"/>
	<path class="st2" d="M46.4,18.5c-0.2,0-0.3,0.1-0.3,0.3c0,0.2,0.3,0.4,0.5,0.4h0.1c0.3-0.1,0.5-0.5,0.3-0.7
		C46.8,18.4,46.6,18.4,46.4,18.5z"/>
	<path class="st2" d="M24.4,18.6c-0.2,0.1-0.2,0.2-0.2,0.4c0,0,0,0.1,0.1,0.1c0.2,0.1,0.4,0,0.5-0.1s0.2-0.3,0.1-0.4
		s-0.3-0.2-0.4-0.1C24.5,18.5,24.4,18.5,24.4,18.6z"/>
	<path class="st2" d="M34.6,18.8c-0.1,0-0.2,0.1-0.2,0.3l0.2,0.2h0.1c0.2,0,0.4-0.3,0.3-0.5l0,0H34.6z"/>
	<path class="st2" d="M38.1,18.7c-0.2,0.1-0.3,0.2-0.4,0.4c-0.1,0.3-0.1,0.7,0.1,1h0.3c0.2,0,0.5-0.1,0.6-0.3c0.3-0.3,0.3-0.7,0.1-1
		C38.6,18.6,38.3,18.6,38.1,18.7z"/>
	<path class="st2" d="M28.5,19c-0.1,0.1-0.1,0.2,0,0.3l0,0h0.1c0.2,0.1,0.4,0,0.4-0.2l-0.2-0.3L28.5,19z"/>
	<path class="st2" d="M30.3,19.1c-0.1,0.1-0.1,0.2,0,0.3l0,0c0,0.1,0.1,0.1,0.2,0s0.4-0.1,0.2-0.3C30.6,19,30.4,19,30.3,19.1z"/>
	<path class="st2" d="M48.9,19c-0.1,0.1-0.2,0.2-0.2,0.4c-0.1,0.2,0,0.2,0,0.3c0.2,0.1,0.4,0.2,0.6,0.1c0.4,0,0.4-0.4,0-0.7L48.9,19
		z"/>
	<path class="st2" d="M32.4,19.1c-0.1,0.1-0.1,0.2-0.1,0.4h0.3c0.1,0,0.1,0,0.1-0.1s0-0.3-0.1-0.4S32.5,19,32.4,19.1z"/>
	<path class="st2" d="M22.2,19c-0.1,0.1-0.1,0.2,0,0.4s0.4,0,0.4-0.3s0-0.1-0.2-0.1H22.2z"/>
	<path class="st2" d="M43,19.1c-0.1,0-0.2,0.1-0.2,0.2l0,0v0.2c0.2,0.1,0.4,0.1,0.6-0.1v-0.1c0-0.1-0.1-0.2-0.2-0.2l0,0H43z"/>
	<path class="st2" d="M47.5,16.9c0,0-0.1,0.3,0,0.4h0.2c0.3-0.1,0.4-0.3,0.1-0.5L47.5,16.9z"/>
	<path class="st2" d="M25.3,18.5c-0.3,0-0.5,0.3-0.5,0.6c0,0.2,0.1,0.4,0.3,0.6c0.1,0,0.1,0.1,0.4,0c0.3,0.1,0.5-0.1,0.6-0.4l0,0
		c0.1-0.2,0.1-0.5,0-0.7C25.9,18.4,25.6,18.4,25.3,18.5z"/>
	<path class="st2" d="M27.7,18.5c-0.2,0.1-0.1,0.5,0.1,0.5H28c0.1,0,0.1-0.1,0.1-0.2v-0.2C27.9,18.4,27.7,18.5,27.7,18.5z"/>
	<path class="st2" d="M19.2,18.7c0,0.1-0.1,0.2-0.1,0.3s0,0.1,0.1,0.2s0.4-0.1,0.4-0.3s0.1-0.1,0-0.1s-0.1-0.3-0.2-0.3l0,0
		L19.2,18.7z"/>
	<path class="st2" d="M11.7,18.6c-0.1,0.1-0.2,0.3-0.2,0.4c0,0.2,0.2,0.4,0.4,0.4c0.4,0,0.6-0.2,0.5-0.5
		C12.2,18.7,12,18.6,11.7,18.6z"/>
	<path class="st2" d="M29.3,18.7c-0.3,0.2-0.2,0.5,0.1,0.5c0.2,0,0.3-0.1,0.3-0.3C29.7,18.6,29.5,18.5,29.3,18.7z"/>
	<path class="st2" d="M30.4,18.8c-0.1,0.1-0.2,0.2-0.2,0.4c0,0.1,0,0.1,0.1,0.1c0.1,0.1,0.2,0,0.3-0.1l0,0c0.1-0.2,0.1-0.3,0-0.4
		S30.5,18.7,30.4,18.8z"/>
	<path class="st2" d="M17.1,18.8c-0.1,0.1-0.2,0.3-0.2,0.5s0,0.2,0.1,0.3h0.4C17.7,19.4,17.5,18.7,17.1,18.8z"/>
	<path class="st2" d="M14.1,18.9v0.2h0.1c0.1,0,0.3-0.1,0.3-0.2S14.2,18.8,14.1,18.9z"/>
	<path class="st2" d="M43.5,18.5c-0.2,0.1-0.3,0.2-0.3,0.4s0.6,0.5,0.8,0.2s0.1-0.1,0.1-0.3s0-0.2-0.1-0.3
		C43.9,18.4,43.6,18.4,43.5,18.5z"/>
	<path class="st2" d="M33.9,18.5c-0.1,0.1-0.1,0.3,0,0.3s0.3,0,0.3-0.2l0,0c0-0.1,0-0.1-0.1-0.1L33.9,18.5z"/>
	<path class="st2" d="M31.7,18.9c-0.1,0.1-0.1,0.4,0,0.5l0.5,0.2c0.4-0.1,0.5-0.2,0.3-0.5S31.9,18.7,31.7,18.9z"/>
	<path class="st2" d="M35.8,19c-0.2,0.1-0.3,0.2-0.3,0.4s0.1,0.3,0.3,0.4h0.4c0.2-0.1,0.3-0.3,0.2-0.5c0-0.2-0.1-0.3-0.3-0.3H35.8z"
		/>
	<path class="st2" d="M47.1,19c-0.1,0.1-0.1,0.3,0,0.4l0.1,0.1l0.3-0.2c0.1-0.2,0.1-0.2,0-0.3C47.4,18.9,47.2,18.9,47.1,19z"/>
	<path class="st2" d="M41.2,19.1c-0.1,0-0.1,0.2,0,0.3s0.2,0.2,0.4,0.1s0.2-0.2,0.2-0.3h-0.1C41.6,19.1,41.4,19,41.2,19.1z"/>
	<path class="st2" d="M28.9,19c-0.1,0.1-0.1,0.2-0.1,0.4s0,0.3,0.2,0.4s0.4,0,0.5-0.1c0.3-0.1,0.2-0.4-0.1-0.6L28.9,19z"/>
	<path class="st2" d="M49.4,19.2c-0.2,0-0.4,0.3-0.4,0.4h0.2c0.2,0,0.5-0.2,0.4-0.4S49.5,19.1,49.4,19.2z"/>
	<path class="st2" d="M25.7,19.2c-0.2,0.1,0.1,0.4,0.3,0.2s0-0.2-0.1-0.2H25.7z"/>
	<path class="st2" d="M39.2,20.7L39,20.9c-0.1,0.1-0.1,0.1-0.1,0.2c0.1,0.1,0.1,0.1,0.1,0.2c-0.1,0.1-0.1,0.2,0,0.2h0.2
		c0.1,0.1,0.3,0.1,0.5-0.1s0.1-0.1,0.1-0.3s0-0.3-0.1-0.4S39.3,20.5,39.2,20.7z"/>
	<path class="st2" d="M33.7,21.1c-0.1,0.2-0.1,0.3,0,0.3H34c0.1-0.1,0.1-0.3-0.1-0.3S33.7,21,33.7,21.1z"/>
	<path class="st2" d="M41.6,21.1v0.3c0.1,0.2,0.3,0.1,0.5-0.1S42.2,21,42,21L41.6,21.1z"/>
	<path class="st2" d="M43.7,21.1c-0.1,0.1-0.1,0.1,0,0.2s0.4,0.3,0.4,0v-0.2H43.7z"/>
	<path class="st2" d="M47.5,21.4c-0.2,0.2-0.1,0.3,0,0.4s0.7-0.2,0.5-0.4H47.5z"/>
	<path class="st2" d="M37.8,22.1c-0.1,0.1-0.2,0.3-0.2,0.4h0.5C38.3,22.1,38,21.9,37.8,22.1z"/>
	<path class="st2" d="M43.7,22.2c-0.1,0-0.1,0.1-0.1,0.2l0,0v0.2h-0.1c0,0.1,0.1,0.1,0.1,0.2h0.7c0.1-0.1,0.2-0.1,0.2-0.3
		c-0.1-0.3-0.3-0.4-0.6-0.4C43.8,22.1,43.8,22.2,43.7,22.2z"/>
	<path class="st2" d="M35.3,22.5c-0.1,0.1-0.1,0.2,0,0.3l0,0l0,0c0.1,0.1,0.3,0.2,0.4,0.1v-0.2c0-0.2-0.1-0.3-0.3-0.3L35.3,22.5z"/>
	<path class="st2" d="M41.8,22.8c-0.1,0.2-0.1,0.3,0.1,0.3s0.3-0.2,0.1-0.3S41.9,22.7,41.8,22.8z"/>
	<path class="st2" d="M40,22.9c-0.2,0.1-0.4,0.3-0.4,0.5c0,0.3,0.4,0.3,0.7,0.1c0.1-0.2,0.1-0.3,0.1-0.5L40,22.9z"/>
</g>
</svg>
