<svg id="Layer_1" data-name="Layer 1" xmlns="http://www.w3.org/2000/svg" viewBox="0 0 50 25">
  <defs>
    <style>
      .cls-1 {
        fill: #3a3a3c;
      }

      .cls-2 {
        opacity: 0.04;
      }

      .cls-3 {
        fill: #181818;
      }

      .cls-4 {
        fill: #3e3e3e;
      }
    </style>
  </defs>
  <title>dark-shape</title>
  <path class="cls-1" d="M0,0H50V25L0,17.5Z"/>
  <g class="cls-2">
    <path class="cls-3" d="M42.7.3c-.2.2-.2.4,0,.5H43a.3.3,0,0,0,0-.5Z"/>
    <path class="cls-3" d="M30,.5a.8.8,0,0,0-.4.4.9.9,0,0,0,0,.7.5.5,0,0,0,.5.3,1.8,1.8,0,0,0,.9-.6V1c0-.2,0-.3-.1-.4A.9.9,0,0,0,30,.5Z"/>
    <path class="cls-3" d="M33.2,1.1c-.1.1-.1.2,0,.4s.1.2.2.2.3-.1.3-.2S33.4,1,33.2,1.1Z"/>
    <path class="cls-3" d="M38.7,1.8a.3.3,0,0,0,0,.4.3.3,0,0,0,.5,0h0c.1-.1.1-.2-.1-.3S38.8,1.7,38.7,1.8Z"/>
    <path class="cls-3" d="M47.3,1.9h-.2c-.1.2-.2.4-.1.5a.6.6,0,0,0,.8.2h0c.1,0,.1-.1.1-.2a.6.6,0,0,0-.6-.5Z"/>
    <path class="cls-3" d="M42.5,2.2a.5.5,0,0,0-.3.5c.1.1.3.2.4.1s.4-.2.4-.5h0C42.9,2.1,42.7,2.1,42.5,2.2Z"/>
    <path class="cls-3" d="M22,2.4c-.1.1-.2.3-.1.4s.7.1.7-.2A.4.4,0,0,0,22,2.4Z"/>
    <path class="cls-3" d="M33,2.8c-.1.1-.1.1-.1.2s0,.1.2.1.3,0,.2-.3,0-.2-.1-.2S33.1,2.6,33,2.8Z"/>
    <path class="cls-3" d="M25.6,3c0,.1,0,.2-.1.2a.4.4,0,0,0-.1.3c0,.3.4.3.7,0s.2-.3.1-.4h-.6Z"/>
    <path class="cls-3" d="M39.1,3.2a.7.7,0,0,0-.6.7.7.7,0,0,0,.9.6c.2-.1.5-.3.5-.6s.1-.5-.2-.6Z"/>
    <path class="cls-3" d="M18.7,3.7l-.5.5a.8.8,0,0,0,.2.9.9.9,0,0,0,1.1-.3,1.1,1.1,0,0,0-.1-1.1A.9.9,0,0,0,18.7,3.7Z"/>
    <path class="cls-3" d="M30.9,4a.4.4,0,0,0-.4.4c0,.3.4.5.7.5l.3-.4C31.6,4.1,31.3,3.9,30.9,4Z"/>
    <path class="cls-3" d="M35.2,3.8H35c-.1.2.3.5.5.3a.3.3,0,0,0,0-.4Z"/>
    <path class="cls-3" d="M48.5,3.9c-.1.1-.2.2-.1.3h0a.3.3,0,0,0,.4,0h0c.1-.1.1-.1.1-.2S48.7,3.8,48.5,3.9Z"/>
    <path class="cls-3" d="M21.8,4.5a.5.5,0,0,0-.2.4h.1c.3,0,.4-.1.4-.3a1,1,0,0,0-.1-.3Z"/>
    <path class="cls-3" d="M43.6,4.5c-.3,0-.4.2-.3.5s.1.2.3.2.2,0,.3-.2a.3.3,0,0,0,0-.4A.2.2,0,0,0,43.6,4.5Z"/>
    <path class="cls-3" d="M41,4.7c-.2,0-.3.4-.2.5a.4.4,0,0,0,.5-.2.2.2,0,0,0,0-.3C41.2,4.6,41.2,4.6,41,4.7Z"/>
    <path class="cls-3" d="M46.9,4.7c-.1.1.2.4.4.3s.1-.1.1-.2V4.6h-.5Z"/>
    <path class="cls-3" d="M24.9,5.1c-.1.2-.2.3-.2.5h.2c.2,0,.3-.1.3-.2s0-.5-.1-.5Z"/>
    <path class="cls-3" d="M36.7,5.2c-.1.2.1.4.2.3s.2-.3.1-.3S36.7,5.1,36.7,5.2Z"/>
    <path class="cls-3" d="M14.3,5.5c-.1.1-.1.1-.1.2v.2a.5.5,0,0,0,.7-.1V5.5h-.6Z"/>
    <path class="cls-3" d="M41.9,5.7a.3.3,0,0,0,0,.4c.2.1.4,0,.4-.2S42.1,5.5,41.9,5.7Z"/>
    <path class="cls-3" d="M38.3,7.3a.5.5,0,0,0-.3.5c0,.2.4.2.6-.1s.1-.2,0-.4Z"/>
    <path class="cls-3" d="M48.6,7.4c-.1.1-.2.3-.1.4s.3.1.4-.1.2-.2.1-.4S48.8,7.2,48.6,7.4Z"/>
    <path class="cls-3" d="M30.4,4.5c0,.1-.1.1-.1.2a.3.3,0,0,0,.5.2c.1-.2.1-.2,0-.4Z"/>
    <path class="cls-3" d="M27.8,4.5a1,1,0,0,0-.5.8.4.4,0,0,0,.2.5.6.6,0,0,0,.9-.1.9.9,0,0,0,.3-.7c.1-.2-.1-.5-.4-.5h-.5Z"/>
    <path class="cls-3" d="M46.8,4.6a.4.4,0,0,0-.1.3.4.4,0,0,0,.6.4h.2c.1-.2.2-.4,0-.5h0C47.3,4.5,47,4.4,46.8,4.6Z"/>
    <path class="cls-3" d="M32.6,4.7c-.1,0-.2.2-.2.3a.6.6,0,0,0,.7.2c.1-.1.2-.3.1-.4l-.3-.2C32.7,4.6,32.6,4.6,32.6,4.7Z"/>
    <path class="cls-3" d="M34.8,4.8V5c-.1.2.1.3.4.2s.1,0,.1-.2S35,4.6,34.8,4.8Z"/>
    <path class="cls-3" d="M40.2,4.7c-.2.1-.3.2-.3.4s0,.2.1.2.1.2.3.2l.5-.3C40.9,4.8,40.6,4.6,40.2,4.7Z"/>
    <path class="cls-3" d="M43.4,4.8c-.1,0-.1.1-.1.2v.2h.4a.4.4,0,0,0,0-.5Z"/>
    <path class="cls-3" d="M18.5,4.9a.9.9,0,0,0-.3.5h.5a.5.5,0,0,0,0-.5C18.6,4.8,18.6,4.8,18.5,4.9Z"/>
    <path class="cls-3" d="M36.6,4.9c-.1.1-.2.2-.2.3l.2.2s.2,0,.2-.1h.1V4.9Z"/>
    <path class="cls-3" d="M22.8,5a.5.5,0,0,0-.2.6h.2a.6.6,0,0,0,.7-.1c.1-.1.2-.3.1-.4A.7.7,0,0,0,22.8,5Z"/>
    <path class="cls-3" d="M25.1,5.4c-.1.1-.1.2,0,.4s.2.1.4,0h0a.4.4,0,0,0,0-.5Z"/>
    <path class="cls-3" d="M29.8,5.4a.8.8,0,0,0-.2.5h.3c.2,0,.3-.2.3-.4h-.1Q30.1,5.3,29.8,5.4Z"/>
    <path class="cls-3" d="M41.7,5.4c-.2,0-.3.1-.2.3s0,.2.1.2a.4.4,0,0,0,.5-.2h0C42.1,5.4,41.9,5.3,41.7,5.4Z"/>
    <path class="cls-3" d="M32.1,5.6c-.3.2-.2.5,0,.4h.4c.1-.2.1-.3,0-.4S32.3,5.4,32.1,5.6Z"/>
    <path class="cls-3" d="M19.6,5.5a.3.3,0,0,0,0,.4h0a.3.3,0,1,0,.4-.4Z"/>
    <path class="cls-3" d="M4,5.6a.4.4,0,0,0-.1.3c0,.1,0,.2.1.2s.1.1.2.1.6-.1.5-.3S4.1,5.4,4,5.6Z"/>
    <path class="cls-3" d="M48.6,5.6a.5.5,0,0,0,.1.8.7.7,0,0,0,.6-.4h0c0-.3-.2-.4-.5-.4Z"/>
    <path class="cls-3" d="M43.8,5.6a.9.9,0,0,0-.6.7c0,.2,0,.3.1.3a1.1,1.1,0,0,0,.7.3c.3-.1.5-.3.5-.8s0-.2-.1-.3-.2-.2-.4-.2Z"/>
    <path class="cls-3" d="M16.8,5.8c-.3.1-.2.4.2.4s.1,0,.1-.1a1,1,0,0,0-.1-.4Z"/>
    <path class="cls-3" d="M12.1,5.8a.6.6,0,0,0-.3,1.1.8.8,0,0,0,1-.2c.2-.2.2-.2.2-.4l-.2-.5h-.7Z"/>
    <path class="cls-3" d="M21.5,5.9c-.2.3-.2.4.1.4s.3-.1.3-.2S21.7,5.7,21.5,5.9Z"/>
    <path class="cls-3" d="M38.7,5.8a.8.8,0,0,0-.4.7.6.6,0,0,0,.1.4h.3a.7.7,0,0,0,.5-.4c.2-.4.1-.7-.2-.8Z"/>
    <path class="cls-3" d="M34.6,6c-.2.1-.2.2-.1.4a.5.5,0,0,0,.8.2.5.5,0,0,0,0-.5.4.4,0,0,0-.4-.2Z"/>
    <path class="cls-3" d="M36.6,6a.3.3,0,0,0-.1.2c.1.2.3.3.4.2s.2,0,.2-.1a.2.2,0,0,0,0-.3Z"/>
    <path class="cls-3" d="M18.5,6.1a.3.3,0,0,1-.1.2.4.4,0,0,0,.1.3c.1.1.2.1.4,0s.1-.1.1-.2h0C18.9,6.1,18.6,6,18.5,6.1Z"/>
    <path class="cls-3" d="M23.2,6.2c-.1.1-.2.3-.1.4h.2c.5,0,.6-.5.2-.6Z"/>
    <path class="cls-3" d="M40.2,6.1l-.3.4h0c0,.2.2.3.5.2s.2-.3.1-.4h-.3Z"/>
    <path class="cls-3" d="M32.8,6.3c-.2.1-.3.3-.1.5s.5-.1.5-.4a.1.1,0,0,0-.1-.1Z"/>
    <path class="cls-3" d="M26.7,6.5a.3.3,0,0,0,0,.4.2.2,0,0,0,.4-.1h0c.1-.2.1-.3,0-.4Z"/>
    <path class="cls-3" d="M7,6.6a1,1,0,0,0-.4.5c0,.1.2.2.4.2a.5.5,0,0,0,.5-.5H7.4C7.4,6.4,7.2,6.4,7,6.6Z"/>
    <path class="cls-3" d="M47.1,6.5c-.2.1-.3.2-.3.4a.7.7,0,0,0,.4.6h.3c.4-.1.5-.4.4-.6A.6.6,0,0,0,47.1,6.5Z"/>
    <path class="cls-3" d="M28.5,6.7c-.1.1-.1.1-.1.3s0,.3.1.4h.6c.2-.1.2-.2.2-.3A.7.7,0,0,0,28.5,6.7Z"/>
    <path class="cls-3" d="M41.2,6.7c-.2.1-.3.2-.3.4s-.1.3.1.3.3,0,.4-.2,0-.3,0-.4Z"/>
    <path class="cls-3" d="M36.5,6.9a.2.2,0,0,0-.1.3c0,.1.1.1.1.2s.7-.2.4-.5A.3.3,0,0,0,36.5,6.9Z"/>
    <path class="cls-3" d="M15.7,6.8a.6.6,0,0,0-.1.4c0,.1,0,.2.1.2l.3.2a.3.3,0,0,0,.3-.3c.1,0,0-.2-.1-.4Z"/>
    <path class="cls-3" d="M34.4,6.9h-.1c-.2.2,0,.4.3.4s.3-.1.3-.2a.4.4,0,0,0-.4-.4A.1.1,0,0,1,34.4,6.9Z"/>
    <path class="cls-3" d="M49,6.9a.3.3,0,0,0-.3.3c0,.2.2.3.4.2l.3-.3C49.4,6.9,49.2,6.8,49,6.9Z"/>
    <path class="cls-3" d="M20.7,6.9c0,.1-.1.2-.1.3l.2.3h.1l.3-.4c0-.1-.1-.2-.3-.2Z"/>
    <path class="cls-3" d="M25.6,6.9v.2c0,.2,0,.2.2.2s.3-.2.1-.4Z"/>
    <path class="cls-3" d="M18.4,7c-.2.1-.2.2-.1.3h0c.2.3.5,0,.4-.3Z"/>
    <path class="cls-3" d="M31.2,7q-.1.3,0,.3c.1.1.1,0,.3,0s.3-.3,0-.4Z"/>
    <path class="cls-3" d="M42.9,7c-.2.1-.2.3-.2.6h.5a.5.5,0,0,0,.2-.4l-.3-.2Z"/>
    <path class="cls-3" d="M13.8,7.1a.3.3,0,0,0,.2.4l.2-.3c0-.1,0-.1-.1-.2Z"/>
    <path class="cls-3" d="M22.8,7.1c-.2.1-.3.4-.1.4a.2.2,0,0,0,.4-.1h0C23.1,7.1,23,7,22.8,7.1Z"/>
    <path class="cls-3" d="M19.7,7.3l-.3.3a.1.1,0,0,0,.1.1.3.3,0,0,0,.5.1C20.3,7.6,20,7.2,19.7,7.3Z"/>
    <path class="cls-3" d="M21.8,7.3v.2a.3.3,0,0,0,.3.3h0a.2.2,0,0,0,.2-.2L22,7.3Z"/>
    <path class="cls-3" d="M10.8,7.4a.2.2,0,0,0,0,.3h.4c.1-.1.1-.1,0-.3a.3.3,0,0,0-.4,0Z"/>
    <path class="cls-3" d="M3.3,7.4a1.2,1.2,0,0,0-.5.5.5.5,0,0,0,.1.7c.3.4.7.3,1,0s.5-.9.1-1.2A.9.9,0,0,0,3.3,7.4Z"/>
    <path class="cls-3" d="M29.3,7.4c-.2.1-.3.6-.1.6h.3a.3.3,0,0,0,.1-.5h-.3Z"/>
    <path class="cls-3" d="M37.8,7.5a.5.5,0,0,0-.3.4v.3h.9c0-.1.1-.2,0-.3s-.1-.3-.3-.4Z"/>
    <path class="cls-3" d="M27.7,7.6v.2h.3V7.7c0-.1,0-.2-.1-.2Z"/>
    <path class="cls-3" d="M5.4,7.6a.3.3,0,0,0,0,.4h.4a.3.3,0,0,0,0-.4.1.1,0,0,0-.1-.1Z"/>
    <path class="cls-3" d="M32.2,7.7c-.1,0-.1.1-.1.2v.2a.2.2,0,0,0,.4.1V8C32.7,7.7,32.3,7.5,32.2,7.7Z"/>
    <path class="cls-3" d="M33.4,7.6c-.1.1-.2.1-.2.3a.4.4,0,0,0,.5.3V8A.4.4,0,0,0,33.4,7.6Z"/>
    <path class="cls-3" d="M24.5,7.7c-.1,0-.2.2-.2.3s.2.4.5.2h.1a.2.2,0,0,0,0-.3A.2.2,0,0,0,24.5,7.7Z"/>
    <path class="cls-3" d="M17.4,7.8c0,.1.1.2.2.3h.2c.1-.1.1-.1,0-.2S17.5,7.6,17.4,7.8Z"/>
    <path class="cls-3" d="M35.9,7.8V8c.1.2.2.2.4.1s.1-.1.1-.2-.2-.2-.3-.2Z"/>
    <path class="cls-3" d="M15.9,7.8a.4.4,0,0,0-.1.3v.2h.4c.1,0,.1-.1.1-.3a.3.3,0,0,0-.3-.3Z"/>
    <path class="cls-3" d="M18.8,7.9c-.1.3,0,.5.3.3a.2.2,0,0,0,.1-.4C18.9,7.7,18.9,7.7,18.8,7.9Z"/>
    <path class="cls-3" d="M39.8,7.8a.4.4,0,0,0-.1.3c0,.2.1.4.3.4h.3l.3-.2C40.8,8,40.1,7.5,39.8,7.8Z"/>
    <path class="cls-3" d="M12.8,7.9c-.2.1,0,.5.3.5s.2-.2.2-.3A.3.3,0,0,0,12.8,7.9Z"/>
    <path class="cls-3" d="M14.3,7.9v.3h.3c.1-.1.1-.2,0-.2A.2.2,0,0,0,14.3,7.9Z"/>
    <path class="cls-3" d="M25.8,8a.4.4,0,0,0-.1.3c0,.1,0,.2.2.2s.4-.1.4-.3h0L26,7.9Z"/>
    <path class="cls-3" d="M46.8,8.1c-.2.1-.1.3,0,.4h.5c.1-.1.2-.2.1-.4S46.9,7.9,46.8,8.1Z"/>
    <path class="cls-3" d="M48.3,8.1a.4.4,0,0,0-.1.3h.2c.1.1.2,0,.3-.1a.1.1,0,0,0,.1-.1L48.4,8Z"/>
    <path class="cls-3" d="M22.1,8a1.2,1.2,0,0,0-.5.5.4.4,0,0,0-.1.3c0,.4.3.6.7.6s.3-.1.6-.3S23.1,8,22.5,8Z"/>
    <path class="cls-3" d="M35,8.1l-.2.2v.2c.2.1.5.1.5-.1s0-.2,0-.3Z"/>
    <path class="cls-3" d="M41.9,8.1c-.2.2-.2.5-.1.5a.4.4,0,0,0,.5-.3C42.2,8.1,42.1,8,41.9,8.1Z"/>
    <path class="cls-3" d="M27.2,8.2c-.2.1-.2.3-.1.5s.5,0,.5-.3-.1-.3-.2-.3Z"/>
    <path class="cls-3" d="M43.7,8.2a.3.3,0,0,0,.2.5c.2,0,.2-.1.3-.2s0-.2-.1-.3Z"/>
    <path class="cls-3" d="M20.3,8.4c-.1.1,0,.5.2.5s.2-.2.2-.4,0-.2-.2-.2S20.3,8.3,20.3,8.4Z"/>
    <path class="cls-3" d="M15,8.4c-.1,0-.2.1-.2.3s0,.1.1.2h.2a.3.3,0,0,0,.3-.3.3.3,0,0,0-.3-.3Z"/>
    <path class="cls-3" d="M18,8.4v.4c.2.2.6,0,.5-.1A.3.3,0,0,0,18,8.4Z"/>
    <path class="cls-3" d="M31.7,8.4v.2a.2.2,0,0,0,0,.3c.1.3.8.4.9.1a.4.4,0,0,0-.2-.6h-.6Z"/>
    <path class="cls-3" d="M30.6,8.4l-.3.4q0,.1.3.3l.3-.2a.3.3,0,0,0,0-.4Z"/>
    <path class="cls-3" d="M10.5,8.4c-.2.1-.3.5-.2.6h.4V8.9A.3.3,0,0,0,10.5,8.4Z"/>
    <path class="cls-3" d="M25.2,8.6a.3.3,0,0,0,0,.4h.2l.2-.2h0c0-.1,0-.2-.2-.2Z"/>
    <path class="cls-3" d="M33.9,8.6c-.2.2-.3.5-.2.6h.5c0-.1.1-.2,0-.2S34.1,8.4,33.9,8.6Z"/>
    <path class="cls-3" d="M23.6,8.7a.1.1,0,0,0,0,.2h.1c.3,0,.4-.1.2-.3S23.7,8.5,23.6,8.7Z"/>
    <path class="cls-3" d="M16.6,8.6a.5.5,0,0,0-.2.4h0c.2.2.4.2.5,0h0c.1-.1.2-.3.1-.4h-.4Z"/>
    <path class="cls-3" d="M12.3,8.7c-.6.2-.2.9.3.8s.4-.3.4-.4a.5.5,0,0,0-.2-.4Z"/>
    <path class="cls-3" d="M19.3,8.7c-.1,0-.1.1-.1.2s0,.2.1.2h.1a.3.3,0,0,0,.2-.4c0-.1-.1-.2-.2-.1Z"/>
    <path class="cls-3" d="M28.2,8.7a.3.3,0,0,1-.1.2.4.4,0,0,0,.1.3.5.5,0,0,0,.9,0c.1-.1,0-.3-.2-.4A.8.8,0,0,0,28.2,8.7Z"/>
    <path class="cls-3" d="M36.1,8.9c-.3.3,0,.7.3.4a.6.6,0,0,0,.1-.4h-.4Z"/>
    <path class="cls-3" d="M26.7,8.9c-.1.1-.2.2-.1.4h0c.1.2.1.2.3.2s.3-.2.3-.4S27,8.7,26.7,8.9Z"/>
    <path class="cls-3" d="M47.4,9c-.1.2-.1.5.1.6h.1c.2.1.6-.1.6-.3S47.6,8.8,47.4,9Z"/>
    <path class="cls-3" d="M40.2,9.1l-.2.2v.3h.3c.3,0,.3-.1.3-.4S40.4,8.9,40.2,9.1Z"/>
    <path class="cls-3" d="M6.9,9.1c-.2.1-.2.3-.1.5h0c.2.1.4.1.5-.1V9.4c0-.1,0-.3-.2-.3Z"/>
    <path class="cls-3" d="M37.9,9.1a.8.8,0,0,0-.2.5.5.5,0,0,0,.4.5h.4a.8.8,0,0,0,.2-.6.3.3,0,0,0-.3-.3Z"/>
    <path class="cls-3" d="M48.9,9.2h0l.2.2c.1,0,.1-.1.1-.2s0-.2-.1-.2Z"/>
    <path class="cls-3" d="M34.8,9.3c-.2.3-.2.5.1.5h.3c.1-.1.1-.2,0-.4S35,9.2,34.8,9.3Z"/>
    <path class="cls-3" d="M16.2,9.2a.8.8,0,0,0-.6,1.1c.2.2.4.3.6.2l.7-.2a1.4,1.4,0,0,0,.2-.7A.8.8,0,0,0,16.2,9.2Z"/>
    <path class="cls-3" d="M24.2,9.3a.7.7,0,0,0-.1.5c.1.2.6,0,.6-.3s-.2-.3-.3-.3Z"/>
    <path class="cls-3" d="M25.7,9.3a.5.5,0,0,0-.2.6h.8c.4-.3.2-.8-.3-.8Z"/>
    <path class="cls-3" d="M46.3,9.4l-.2.3c0,.2.4.2.5,0a.4.4,0,0,0,.1-.3h-.4Z"/>
    <path class="cls-3" d="M18.1,9.4a.4.4,0,0,0-.1.3.1.1,0,0,0,.1.1c.2.1.4,0,.3-.3S18.2,9.3,18.1,9.4Z"/>
    <path class="cls-3" d="M5.4,9.4a.4.4,0,0,0,0,.5h.2c.4,0,.5-.4.3-.5Z"/>
    <path class="cls-3" d="M32.9,9.4a.5.5,0,0,0-.5.3.8.8,0,0,0,.1.8c.2.2.4.2.8.1a.9.9,0,0,0,.6-.6.6.6,0,0,0-.5-.6h-.5Z"/>
    <path class="cls-3" d="M42.6,9.4a.8.8,0,0,0-.2.4c0,.2,0,.3.2.4a.6.6,0,0,0,.6,0c.2,0,.3-.2.3-.4h0C43.4,9.4,42.9,9.3,42.6,9.4Z"/>
    <path class="cls-3" d="M14.4,9.6c-.1.1-.1.1-.1.2l.2.2h.3c.2-.1.1-.4-.2-.4Z"/>
    <path class="cls-3" d="M30.5,9.5l-.6.7c.1.2.1.3.3.4h.7c.4-.2.4-.5,0-1s-.2-.2-.4-.1Z"/>
    <path class="cls-3" d="M20.7,9.6a.6.6,0,0,0,0,.6h.2a.3.3,0,0,0,.1-.6Z"/>
    <path class="cls-3" d="M13.1,9.6c-.2.1-.2.3,0,.5s.3.2.4.1a.4.4,0,0,0,.1-.5V9.5h-.4Z"/>
    <path class="cls-3" d="M19.3,9.6c-.1.2-.1.3.1.4h.2l.2-.2V9.7C19.5,9.5,19.4,9.5,19.3,9.6Z"/>
    <path class="cls-3" d="M22.7,9.7a.3.3,0,0,0,0,.4c.2.2.6-.3.4-.5S22.9,9.5,22.7,9.7Z"/>
    <path class="cls-3" d="M28.4,9.6q-.3.2-.3.3a.3.3,0,0,0,.3.3l.3-.2h.1c0-.1-.1-.3-.2-.3Z"/>
    <path class="cls-3" d="M35.7,9.8a.3.3,0,0,0,0,.4.5.5,0,0,0,.5,0c.1,0,.2-.1.1-.3S35.8,9.6,35.7,9.8Z"/>
    <path class="cls-3" d="M11.3,9.8c-.1.2.1.5.3.4s.4-.2.2-.4A.4.4,0,0,0,11.3,9.8Z"/>
    <path class="cls-3" d="M7.9,9.9c-.3.1-.4.3-.2.4h.4V10C8.1,9.9,8.1,9.8,7.9,9.9Z"/>
    <path class="cls-3" d="M3.8,10.1a.4.4,0,0,0-.2.5h.1a.5.5,0,0,0,.7.1l.2-.4L4.4,10Z"/>
    <path class="cls-3" d="M21.9,10.2c-.1,0-.1.1-.1.2l.3.2c.2,0,.3,0,.3-.2s.1-.2,0-.2h-.5Z"/>
    <path class="cls-3" d="M37.9,10.1a.4.4,0,0,0-.1.3c0,.2,0,.3.2.3l.3-.2a.2.2,0,0,0,0-.3A.2.2,0,0,0,37.9,10.1Z"/>
    <path class="cls-3" d="M27.3,10.2c-.2.2-.1.5.1.4a.3.3,0,0,0,.3-.3c0-.1-.1-.1-.1-.2Z"/>
    <path class="cls-3" d="M23,10.2a.2.2,0,0,0,0,.3h.4c.1,0,.2-.1.1-.3H23Z"/>
    <path class="cls-3" d="M10.5,10.2a.3.3,0,0,0,.2.5h.2a.2.2,0,0,0,0-.3h0C10.8,10.2,10.6,10.1,10.5,10.2Z"/>
    <path class="cls-3" d="M18.9,10.3a.2.2,0,0,0-.1.3c.1.3.5.3.5,0s-.1-.4-.3-.4Z"/>
    <path class="cls-3" d="M6.6,10.4c-.2.2,0,.5.3.3v-.2C6.9,10.3,6.8,10.2,6.6,10.4Z"/>
    <path class="cls-3" d="M47,10.4h.1a.2.2,0,0,0,.3,0,.5.5,0,0,0-.1-.3C47.2,10.2,47.1,10.3,47,10.4Z"/>
    <path class="cls-3" d="M31.6,10.4c-.2,0-.2.2-.2.4h.5c.2-.1.3-.3.1-.5Z"/>
    <path class="cls-3" d="M39.2,10.5a.2.2,0,0,0,0,.3h.3a.3.3,0,0,0,0-.6C39.3,10.3,39.3,10.3,39.2,10.5Z"/>
    <path class="cls-3" d="M25.1,10.4a.7.7,0,0,0-.1.5h.1a.4.4,0,0,0,.4-.4h0C25.5,10.3,25.3,10.3,25.1,10.4Z"/>
    <path class="cls-3" d="M12,10.4v.3c0,.1.1.1.1.2h.5c.1-.1.1-.1,0-.2A.4.4,0,0,0,12,10.4Z"/>
    <path class="cls-3" d="M15,10.4c-.2.1-.3.2-.3.4s0,.2.2.2a.3.3,0,0,0,.3-.3c.1,0,0-.1,0-.2Z"/>
    <path class="cls-3" d="M36.5,10.5c-.1.2.1.4.3.4s.2-.2.2-.3,0-.2-.2-.2Z"/>
    <path class="cls-3" d="M41.1,10.4a.7.7,0,0,0-.1.5h.2c.2,0,.3-.1.4-.3s0-.3-.2-.3Z"/>
    <path class="cls-3" d="M48.2,10.4l-.2.3c0,.3.2.4.4.2s.1-.1.1-.2,0-.2-.1-.3Z"/>
    <path class="cls-3" d="M34.9,10.5a.5.5,0,0,0-.3.4H35c.1-.1.1-.1.1-.2S35.1,10.4,34.9,10.5Z"/>
    <path class="cls-3" d="M5.3,10.5c-.1.1,0,.3,0,.4h.4a.2.2,0,0,0,0-.3A.2.2,0,0,0,5.3,10.5Z"/>
    <path class="cls-3" d="M43.1,10.5a.4.4,0,0,0,.1.5h.5c0-.1.1-.1,0-.2S43.2,10.4,43.1,10.5Z"/>
    <path class="cls-3" d="M16.4,10.6c-.2.1-.1.3.1.4h.2c0-.1.1-.2,0-.4Z"/>
    <path class="cls-3" d="M33.7,10.8a.2.2,0,1,0,.2.4c.2,0,.3-.2.2-.4A.3.3,0,0,0,33.7,10.8Z"/>
    <path class="cls-3" d="M21,10.8c-.4.1-.3.8.1.9l.4-.2c.2-.1.2-.3.1-.5A.5.5,0,0,0,21,10.8Z"/>
    <path class="cls-3" d="M27,10.9a.2.2,0,0,0-.2.2c-.1.1-.1.2,0,.2h.4a.6.6,0,0,0,.1-.4Z"/>
    <path class="cls-3" d="M35.8,10.9c-.2.1-.3.4-.1.4h.4a.3.3,0,0,0,0-.4Z"/>
    <path class="cls-3" d="M7.5,10.8a.8.8,0,0,0-.4.9.7.7,0,0,0,.4.5c.2.1.4,0,.7-.1a.9.9,0,0,0,.3-.9C8.5,10.9,8,10.7,7.5,10.8Z"/>
    <path class="cls-3" d="M11.6,11c-.2.2-.2.5.1.4s.2-.1.2-.3h-.3Z"/>
    <path class="cls-3" d="M17.7,11c-.5.2-.4.9.2.8s.5-.1.5-.4h.1v-.3l-.4-.2Z"/>
    <path class="cls-3" d="M32.9,11a.4.4,0,0,0,0,.5H33c.2,0,.3-.2.3-.4V11Z"/>
    <path class="cls-3" d="M28.5,11c-.2.1-.3.2-.3.4v.2c.1.1.3.1.5-.1a.2.2,0,0,0,.1-.4C28.8,11,28.6,10.9,28.5,11Z"/>
    <path class="cls-3" d="M23.5,11.1a.5.5,0,0,0-.2.4c-.1.1,0,.1,0,.2a.3.3,0,0,0,.4,0,.8.8,0,0,0,.2-.4C23.9,11,23.7,11,23.5,11.1Z"/>
    <path class="cls-3" d="M37.9,11.1c-.1.1-.1.2-.1.4s0,.2,0,.3h.3l.3-.2a.4.4,0,0,0,.1-.5c0-.1-.1-.2-.3-.2Z"/>
    <path class="cls-3" d="M30.2,11.1c-.1.1-.1.1-.1.3s0,.2.1.2.5,0,.5-.3,0-.1-.1-.2Z"/>
    <path class="cls-3" d="M.2,11.1l-.2.3q0,.4.6.3a.3.3,0,0,0,.3-.3.2.2,0,0,0-.2-.2Z"/>
    <path class="cls-3" d="M19.3,11.3l-.2.3h.1a.4.4,0,0,0,.5-.1v-.2C19.8,11,19.6,11,19.3,11.3Z"/>
    <path class="cls-3" d="M42.6,11.1c-.4.2-.4.7-.1.8a.6.6,0,0,0,.8-.3c0-.2,0-.3-.1-.4h-.6Z"/>
    <path class="cls-3" d="M13.3,11.2a.2.2,0,0,0-.1.4c.1.2.3.2.5.1a.2.2,0,0,0,.1-.4c0-.1-.1-.1-.2-.2Z"/>
    <path class="cls-3" d="M25.3,11.2c-.2.1-.2.3-.2.5a.1.1,0,0,0,.1.1h.2c.3,0,.5-.4.3-.6Z"/>
    <path class="cls-3" d="M46.2,11.3a.2.2,0,0,0,0,.3h.2c.3,0,.4-.2.2-.4S46.3,11.2,46.2,11.3Z"/>
    <path class="cls-3" d="M49.4,11.3a.2.2,0,0,0-.2.2.3.3,0,0,0,.3.3h0a.5.5,0,0,0,.3-.3.3.3,0,0,0-.3-.3A.1.1,0,0,1,49.4,11.3Z"/>
    <path class="cls-3" d="M6.1,11.4a.2.2,0,1,0,.3.3.3.3,0,0,0,0-.4H6.1Z"/>
    <path class="cls-3" d="M40,11.4c-.1,0-.1.1-.1.2s.1.2.3.2.3-.1.3-.2A.3.3,0,0,0,40,11.4Z"/>
    <path class="cls-3" d="M22.4,11.4c-.2.1-.2.2-.2.3s.2.3.3.2.4-.4.3-.5Z"/>
    <path class="cls-3" d="M31.6,11.4a.2.2,0,0,0-.1.4h0c.1.1.6.1.6-.1S31.8,11.3,31.6,11.4Z"/>
    <path class="cls-3" d="M34.9,11.4a.2.2,0,0,0,0,.3c.2.2.5.1.5-.1S35.1,11.3,34.9,11.4Z"/>
    <path class="cls-3" d="M15.5,11.6c-.1,0-.2.1-.2.3a.3.3,0,0,0,.3.3c.2-.1.4-.2.4-.5s0-.1,0-.2S15.6,11.4,15.5,11.6Z"/>
    <path class="cls-3" d="M4.6,11.6c-.2.2-.3.4-.1.5h.4a.5.5,0,0,0,0-.5C4.9,11.4,4.7,11.4,4.6,11.6Z"/>
    <path class="cls-3" d="M35.8,11.5c-.1.1-.2.3-.1.4s.5.2.6.1a.4.4,0,0,0,0-.5Z"/>
    <path class="cls-3" d="M47.9,11.5c-.1,0-.1.1-.2.2a.5.5,0,0,0,0,.5c.2.2.9.2,1,0a.6.6,0,0,0-.2-.7Z"/>
    <path class="cls-3" d="M2.8,11.5a.3.3,0,0,0,0,.4h0l.4-.2c0-.1-.2-.3-.2-.3H2.8Z"/>
    <path class="cls-3" d="M14.5,11.5a.4.4,0,0,0-.1.3c0,.1,0,.2.1.2s.6-.1.4-.4Z"/>
    <path class="cls-3" d="M26.7,11.7l-.6.4c-.2.2.1.4.6.4h.4c.1,0,.1-.1.1-.3s0-.4-.1-.4Z"/>
    <path class="cls-3" d="M12.4,11.8v.3h.4a.4.4,0,0,0,.1-.3c0-.1-.1-.2-.3-.2Z"/>
    <path class="cls-3" d="M39.1,11.8c-.2.2-.3.4-.1.4a.4.4,0,0,0,.5-.1.2.2,0,0,0,0-.3A.3.3,0,0,0,39.1,11.8Z"/>
    <path class="cls-3" d="M33.8,11.8h0l.2.3a.3.3,0,0,0,.2-.4Z"/>
    <path class="cls-3" d="M20.3,11.9a.6.6,0,0,0-.1.4.3.3,0,0,0,.6-.2.3.3,0,0,0-.3-.3Z"/>
    <path class="cls-3" d="M24.1,11.7a1.1,1.1,0,0,0-.5.9.7.7,0,0,0,.4.6h.4a1.5,1.5,0,0,0,.7-1C25.1,11.9,24.5,11.6,24.1,11.7Z"/>
    <path class="cls-3" d="M16.8,12c-.1,0-.1.1-.1.2s0,.3.2.3a.4.4,0,0,0,.4-.6.3.3,0,0,0-.5.1Z"/>
    <path class="cls-3" d="M5.2,11.9a.5.5,0,0,0,0,.5h.5a.2.2,0,0,0,0-.3A.6.6,0,0,0,5.2,11.9Z"/>
    <path class="cls-3" d="M11.4,12a.6.6,0,0,0-.1.4c.2.2.6-.1.6-.3s-.1-.2-.3-.2Z"/>
    <path class="cls-3" d="M31.4,12c-.2.2-.2.5,0,.6a.4.4,0,0,0,.4-.2C31.9,12.1,31.7,11.8,31.4,12Z"/>
    <path class="cls-3" d="M18.5,12.1c-.1,0-.2.1-.2.3v.2h.2l.3-.3c.1-.1.1-.1,0-.2s0-.2-.2-.2Z"/>
    <path class="cls-3" d="M30.2,12.1c-.2,0-.3.2-.3.4s0,.2.1.2.5.1.5-.1S30.4,12,30.2,12.1Z"/>
    <path class="cls-3" d="M28,12.2a.4.4,0,0,0,0,.5c.2.2.4.1.5-.1s0-.3-.1-.4Z"/>
    <path class="cls-3" d="M36.9,12.1a.7.7,0,0,0-.4.7c.1.9,1.1,1.1,1.4.2a.7.7,0,0,0-.3-.9h-.7Z"/>
    <path class="cls-3" d="M41.1,12.2c0,.1-.1.2-.1.3v.2c.1.2.5.1.5-.3s0-.3-.2-.3Z"/>
    <path class="cls-3" d="M43.5,12.3a.4.4,0,0,0-.2.4c0,.1.3.1.5-.1s.1-.2,0-.4S43.6,12.1,43.5,12.3Z"/>
    <path class="cls-3" d="M8.2,12.3c-.1.1,0,.3.1.4a.2.2,0,0,0,.3,0c.1,0,.1-.1.1-.2A.3.3,0,0,0,8.2,12.3Z"/>
    <path class="cls-3" d="M34.8,12.2l-.2.3a.3.3,0,0,0,.6.2.3.3,0,0,0,0-.4h-.4Z"/>
    <path class="cls-3" d="M22,12.3c-.1.1-.2.1-.2.3s.3.5.6.3.2-.3.1-.5h0A.5.5,0,0,0,22,12.3Z"/>
    <path class="cls-3" d="M49.4,12.3a.2.2,0,0,0-.1.4c.1.1.2.1.4,0s.1-.3,0-.4S49.5,12.2,49.4,12.3Z"/>
    <path class="cls-3" d="M47.2,12.3a.2.2,0,0,0,0,.3c.1.2.3.2.3.1s.1-.4,0-.4Z"/>
    <path class="cls-3" d="M32.8,12.5c-.2.1-.2.2-.1.3s.7-.1.5-.3l-.2-.2Z"/>
    <path class="cls-3" d="M6.5,12.4a.3.3,0,0,0,0,.4h.4c.1,0,.1-.1.1-.2S6.6,12.3,6.5,12.4Z"/>
    <path class="cls-3" d="M13.3,12.5a.4.4,0,0,0,.1.3c.1.2.2.2.3.2s.2-.2.1-.4h-.5Z"/>
    <path class="cls-3" d="M14.6,12.5c-.1.1-.2.2-.2.3s.3.3.5.2.2-.2.2-.3v-.2Z"/>
    <path class="cls-3" d="M48.1,12.5c-.3.3.3.7.6.4h.1q0-.2-.3-.3Z"/>
    <path class="cls-3" d="M4.1,12.6c-.1,0,0,.2.1.3s.3.1.3-.1v-.2H4.1Z"/>
    <path class="cls-3" d="M11.8,12.6a.5.5,0,0,0-.4.6c0,.2.2.3.4.3a.6.6,0,0,0,.6-.7A.5.5,0,0,0,11.8,12.6Z"/>
    <path class="cls-3" d="M39.1,12.6c-.1.1-.1.2-.1.4l.4.2.3-.3C39.7,12.7,39.4,12.5,39.1,12.6Z"/>
    <path class="cls-3" d="M20.5,12.6a.2.2,0,0,0-.2.2.2.2,0,0,0-.1.4c.1.1.1.1.3,0S20.9,12.5,20.5,12.6Z"/>
    <path class="cls-3" d="M16.5,12.8c-.2.2-.2.3-.1.4s.4.1.5-.1h0C16.9,12.7,16.6,12.6,16.5,12.8Z"/>
    <path class="cls-3" d="M7.8,12.8c-.1.3.1.6.4.4a.1.1,0,0,0,0-.2A.3.3,0,0,0,7.8,12.8Z"/>
    <path class="cls-3" d="M35.6,12.8c-.2.1-.3.2-.3.4s0,.2.1.2a.4.4,0,0,0,.5.1C36.3,13.2,36,12.6,35.6,12.8Z"/>
    <path class="cls-3" d="M46.4,12.8a.5.5,0,0,0-.3.5l.2.2h.3c.3,0,.5-.1.5-.3S46.8,12.7,46.4,12.8Z"/>
    <path class="cls-3" d="M29.4,12.9a.5.5,0,0,0-.2.4.4.4,0,0,0,.1.3.6.6,0,0,0,.8-.2c.1-.1,0-.3-.1-.4A.7.7,0,0,0,29.4,12.9Z"/>
    <path class="cls-3" d="M1.3,12.8a.9.9,0,0,0-.6.9.6.6,0,0,0,.5.6.9.9,0,0,0,.8-.4.4.4,0,0,0,.2-.5.4.4,0,0,0-.2-.5Z"/>
    <path class="cls-3" d="M5.8,13c-.1,0-.1.1-.1.2s.1.2.3.1.2-.1.1-.3H5.8Z"/>
    <path class="cls-3" d="M26.9,13l-.2.2c0,.1.1.3.2.3H27c.2-.1.3-.3.2-.4Z"/>
    <path class="cls-3" d="M41.9,12.9v.3a.8.8,0,0,0,.2.4.4.4,0,0,0,.6-.2c.1-.3-.2-.5-.5-.5Z"/>
    <path class="cls-3" d="M18,13c-.1,0-.2.2-.2.3a.5.5,0,0,0,.2.4,1.1,1.1,0,0,0,.8-.1.4.4,0,0,0-.3-.6Z"/>
    <path class="cls-3" d="M31.7,13.2a.2.2,0,0,0-.1.4h.1c.1,0,.1.1.2,0s.4-.3.2-.6A.2.2,0,0,0,31.7,13.2Z"/>
    <path class="cls-3" d="M33.6,13.1l-.3.4.2.2c0,.1.1.1.3.1a.6.6,0,0,0,.5-.2.4.4,0,0,0,0-.5Z"/>
    <path class="cls-3" d="M15.2,13.3q-.3.3,0,.3a.3.3,0,0,0,.3-.3c0-.1,0-.2-.1-.2Z"/>
    <path class="cls-3" d="M21.2,13.2a.3.3,0,0,0,0,.4h.3c.2,0,.3-.1.2-.2S21.3,13,21.2,13.2Z"/>
    <path class="cls-3" d="M48.3,13.2a.3.3,0,0,0,0,.4h.4c.1-.1.1-.2,0-.4Z"/>
    <path class="cls-3" d="M49.5,13.2c-.2.2-.1.5.1.5s.4-.1.4-.3-.1-.1-.1-.2Z"/>
    <path class="cls-3" d="M40.2,13.1c-.3.2-.6.5-.5.8a1.1,1.1,0,0,0,.7.3c.3-.1.6-.6.4-.9A.5.5,0,0,0,40.2,13.1Z"/>
    <path class="cls-3" d="M23.1,13.1c-.1,0-.2.2-.3.3l.2.3c.1.2.1.2,0,.4v.3c.1.2.3.2.5.1h.1c0-.1.1-.2,0-.3s0-.2.1-.2a.8.8,0,0,0,.2-.4,1,1,0,0,0-.5-.4Z"/>
    <path class="cls-3" d="M47.5,13.3c-.2.1-.3.3-.1.5s.3.1.5-.1h0c.1-.2,0-.3-.1-.4S47.7,13.2,47.5,13.3Z"/>
    <path class="cls-3" d="M25.4,13.3a.6.6,0,0,0,0,.6h.4a.6.6,0,0,0,.1-.4c-.1-.2-.2-.3-.4-.2Z"/>
    <path class="cls-3" d="M6.8,13.4v.3h.3c.2-.1.2-.2.1-.3S6.9,13.3,6.8,13.4Z"/>
    <path class="cls-3" d="M16.1,13.4c-.1.1-.2.3-.1.4h.5a.6.6,0,0,0,.1-.4h-.1A.2.2,0,0,0,16.1,13.4Z"/>
    <path class="cls-3" d="M10.6,13.6l-.2.3c0,.1.1.2.3.1s.2-.1.2-.3a.2.2,0,0,0-.2-.2Z"/>
    <path class="cls-3" d="M13.7,13.5a.6.6,0,0,0-.5.8.8.8,0,0,0,.9.6h.2a1,1,0,0,0,.5-.6,1.4,1.4,0,0,0-.2-.6A.7.7,0,0,0,13.7,13.5Z"/>
    <path class="cls-3" d="M19.5,13.5h-.2c-.1.1-.1.1,0,.3s.3.3.5.2a.4.4,0,0,0,0-.5h-.3Z"/>
    <path class="cls-3" d="M38.2,13.6c-.1.2-.1.3.1.4h.4c.2-.2.1-.4-.2-.4Z"/>
    <path class="cls-3" d="M3.1,13.6c-.1.1-.2.2-.1.3v.2c.2.1.4,0,.4-.3S3.3,13.5,3.1,13.6Z"/>
    <path class="cls-3" d="M4.7,13.7c-.1.1-.1.2,0,.4h.2a.3.3,0,0,0,0-.6Z"/>
    <path class="cls-3" d="M20.9,13.7c-.1.1-.2.2-.1.3h0a.5.5,0,0,0,.6.1h0a.4.4,0,0,0,.1-.5h-.6Z"/>
    <path class="cls-3" d="M5.7,13.8c-.2.1-.2.4,0,.4s.5,0,.4-.2S5.8,13.7,5.7,13.8Z"/>
    <path class="cls-3" d="M43.2,13.8c-.2.1-.2.2-.2.4s.4.2.5-.1v-.2C43.6,13.8,43.4,13.7,43.2,13.8Z"/>
    <path class="cls-3" d="M47.9,13.9a.2.2,0,0,0,0,.3c.2.2.4-.1.3-.3Z"/>
    <path class="cls-3" d="M17.3,13.9a.8.8,0,0,0-.2.4h.2c.2,0,.4-.1.4-.3S17.5,13.8,17.3,13.9Z"/>
    <path class="cls-3" d="M30.2,13.9a.6.6,0,0,0,.1.4l.3-.3h-.4Z"/>
    <path class="cls-3" d="M26.8,13.9a.5.5,0,0,0-.1.6h1.1c.2-.1.3-.4.1-.5h-.5A.7.7,0,0,0,26.8,13.9Z"/>
    <path class="cls-3" d="M6.8,14c-.2.1-.3.4-.2.5v.2a.6.6,0,0,0,.8-.1h0c.1-.2.1-.5-.1-.6H6.8Z"/>
    <path class="cls-3" d="M48.7,14.1c-.2.1-.1.2,0,.3s.3.2.4.1.2-.3,0-.5S48.7,13.9,48.7,14.1Z"/>
    <path class="cls-3" d="M49.5,14v.4c.2.1.5,0,.5-.2l-.4-.2Z"/>
    <path class="cls-3" d="M46.6,14c-.2.2-.1.6.1.6a.4.4,0,0,0,.3-.4c0-.1-.1-.2-.3-.2Z"/>
    <path class="cls-3" d="M28.7,14.1c-.2.2-.1.4.2.5h.3c0-.1.1-.2,0-.3l-.3-.2Z"/>
    <path class="cls-3" d="M31.1,14.1v.2c0,.3.1.4.4.3s.3-.2.2-.4S31.2,13.9,31.1,14.1Z"/>
    <path class="cls-3" d="M41.3,14.1a.2.2,0,0,0-.1.4h.5c0-.2,0-.4-.1-.4h-.3Z"/>
    <path class="cls-3" d="M11.7,14.2a.3.3,0,0,0-.1.5c.3.1.7,0,.7-.3a.3.3,0,0,0-.3-.3C11.9,14,11.8,14.1,11.7,14.2Z"/>
    <path class="cls-3" d="M24.9,14.1l-.2.3a.3.3,0,0,0,.3.3h0a.3.3,0,0,0,.3-.3c0-.1,0-.2-.1-.2S25,14,24.9,14.1Z"/>
    <path class="cls-3" d="M36.1,14.2c-.3.3-.2.6.1.5a.3.3,0,0,0,.3-.3C36.5,14,36.3,14,36.1,14.2Z"/>
    <path class="cls-3" d="M37.3,14.1c-.2.1-.2.2-.2.4s.3.2.5.1.3-.3.1-.4S37.4,14,37.3,14.1Z"/>
    <path class="cls-3" d="M34.5,14.2c0,.1,0,.1-.1.2s.1.3.3.4H35c.2-.1.3-.2.2-.4l-.4-.3Z"/>
    <path class="cls-3" d="M38.9,14.2a.9.9,0,0,0-.1.5.2.2,0,0,0,.4,0C39.4,14.5,39.1,14,38.9,14.2Z"/>
    <path class="cls-3" d="M8.1,14.3c-.2.2-.3.5-.2.6h.4c.2-.2.1-.5-.1-.5Z"/>
    <path class="cls-3" d="M19.8,14.4v.2c0,.1,0,.2.2.3s.3.1.4-.1.1-.4-.2-.4Z"/>
    <path class="cls-3" d="M5.6,14.5c-.4.3-.4.6,0,.6s.5-.1.5-.3S5.8,14.3,5.6,14.5Z"/>
    <path class="cls-3" d="M32.6,14.6v.2h.1c.2.2.4,0,.3-.3S32.7,14.4,32.6,14.6Z"/>
    <path class="cls-3" d="M23,14.6c-.2,0-.2.2-.2.3v.2c.3.2.7,0,.6-.3A.4.4,0,0,0,23,14.6Z"/>
    <path class="cls-3" d="M15.7,14.6a.5.5,0,0,0-.2.4c0,.2.3.3.5.1s.2-.5-.1-.5Z"/>
    <path class="cls-3" d="M17.7,14.7l-.3.3.3.2h.2c.1-.1.2-.3.1-.4h-.3Z"/>
    <path class="cls-3" d="M43,14.6a1.2,1.2,0,0,0-.5.5.6.6,0,0,0,0,.6l.6.2.5-.2a.7.7,0,0,0,0-1.1Z"/>
    <path class="cls-3" d="M14.5,14.7c-.1.2,0,.3.1.4h.1l.4-.2-.3-.3Z"/>
    <path class="cls-3" d="M21.7,14.6c-.2.1-.3.2-.3.4v.3c.2.3.8.1.8-.2s-.1-.5-.4-.5Z"/>
    <path class="cls-3" d="M48.3,14.7l-.2.2c-.2.2-.1.4.1.6a.6.6,0,0,0,.7-.1c.1-.2.2-.3,0-.5a.4.4,0,0,0-.5-.3Z"/>
    <path class="cls-3" d="M29.6,14.8c-.2.1-.2.4-.1.6h.6a.4.4,0,0,0,.2-.5v-.2h-.6Z"/>
    <path class="cls-3" d="M26.2,14.9c-.1,0-.1.1-.1.2s.2.5.4.2.2-.4,0-.5S26.3,14.7,26.2,14.9Z"/>
    <path class="cls-3" d="M3,14.9v.2c0,.2.2.4.5.2s.2-.1.1-.3S3.1,14.7,3,14.9Z"/>
    <path class="cls-3" d="M37.5,14.8a.4.4,0,0,0-.1.3c0,.2.1.4.3.4s.4-.1.4-.3a.4.4,0,0,0-.1-.3C37.8,14.8,37.6,14.7,37.5,14.8Z"/>
    <path class="cls-3" d="M40,14.9a.4.4,0,0,0-.1.3.1.1,0,0,1,.1.1c.1.1.2,0,.3-.1a.4.4,0,0,0,.1-.3Z"/>
    <path class="cls-3" d="M49.2,14.9a.2.2,0,0,0,0,.3c.2.2.6,0,.5-.2s-.3-.2-.5-.2Z"/>
    <path class="cls-3" d="M19.1,14.9c-.1,0-.2.2-.2.4h.5c.2-.2.2-.5.1-.5Z"/>
    <path class="cls-3" d="M13,15.1c-.1.1-.1.1-.1.2h-.1c0,.1.3.2.5.1s.1-.2.1-.4S13.2,14.9,13,15.1Z"/>
    <path class="cls-3" d="M46.6,15.1c-.1.1-.1.2-.1.4h.2a.4.4,0,0,0,.4-.4h-.5Z"/>
    <path class="cls-3" d="M8,15.1c-.1,0-.2.2-.2.3s.5.4.7.1.1-.3,0-.4H8Z"/>
    <path class="cls-3" d="M11.7,15.2h-.2l.2.2c.2,0,.4-.1.4-.3h0C12.1,15,11.9,14.9,11.7,15.2Z"/>
    <path class="cls-3" d="M24.7,15.1v.2c0,.2,0,.2.1.2H25c.1,0,.1-.1,0-.2a.2.2,0,0,0-.2-.2Z"/>
    <path class="cls-3" d="M31.2,15.1c-.1.1-.2.2-.1.3h0a.3.3,0,0,0,.6-.1l-.2-.3Z"/>
    <path class="cls-3" d="M38.9,15.2a.3.3,0,0,0,0,.4H39c.4.2.7-.2.4-.5Z"/>
    <path class="cls-3" d="M41.3,15.2v.2c0,.2,0,.2.2.1s.2-.1.1-.2S41.4,15.1,41.3,15.2Z"/>
    <path class="cls-3" d="M19.8,15.2a.4.4,0,0,0-.1.5c.1.3.7,0,.7-.3S20,15.1,19.8,15.2Z"/>
    <path class="cls-3" d="M27.6,15.2c-.1.1-.2.2-.1.3s.1.3.2.2h.1l.2-.2a.3.3,0,0,0-.3-.3Z"/>
    <path class="cls-3" d="M14.3,15.2c-.1.1-.2.3-.1.4a.4.4,0,0,0,.5.2c.3,0,.4-.4.1-.6Z"/>
    <path class="cls-3" d="M23.4,15.2a.6.6,0,0,0-.3.7c.1.4.5.4.8,0l.2-.3-.2-.4Z"/>
    <path class="cls-3" d="M34.4,15.2a.7.7,0,0,0-.2.7c.1.3.5.3.8.2s.4-.4.1-.7S34.5,15.1,34.4,15.2Z"/>
    <path class="cls-3" d="M6.8,15.4v.2a.3.3,0,0,0,.3.3h.2c.1-.1.1-.1,0-.3S6.9,15.3,6.8,15.4Z"/>
    <path class="cls-3" d="M36.6,15.4c-.2.2-.2.4,0,.5l.2.2a.4.4,0,0,0,.4-.4c.1-.1,0-.2,0-.3h-.6Z"/>
    <path class="cls-3" d="M18.2,15.5c0,.1-.1.2-.1.3s.1.2.2.2a.4.4,0,0,0,.4-.4h0C18.7,15.4,18.4,15.3,18.2,15.5Z"/>
    <path class="cls-3" d="M25.6,15.4a.5.5,0,0,0-.1.6h0a.7.7,0,0,0,.6.1.5.5,0,0,0,.2-.4c0-.2-.2-.4-.5-.5Z"/>
    <path class="cls-3" d="M33,15.5c-.1.2-.1.3.1.5s.1.1.2.1a.5.5,0,0,0,.4-.2c.1-.1.1-.1,0-.2A.4.4,0,0,0,33,15.5Z"/>
    <path class="cls-3" d="M38.1,15.6c-.1.1-.1.2,0,.4a.3.3,0,0,0,.4,0c.1-.2.1-.4-.1-.5Z"/>
    <path class="cls-3" d="M28.8,15.5v.2a1.5,1.5,0,0,0,.2.4H29c0,.2.2.3.4.1s.1-.2.1-.3h-.1v-.2c0-.1,0-.1-.1-.2S29,15.4,28.8,15.5Z"/>
    <path class="cls-3" d="M16.7,15.6l-.2.4c0,.1,0,.2.1.2s.4-.1.4-.4S16.9,15.5,16.7,15.6Z"/>
    <path class="cls-3" d="M22.1,15.7c-.2,0-.2.2-.2.4a.3.3,0,0,0,.3.3h.3a.4.4,0,0,0,0-.5C22.4,15.7,22.2,15.6,22.1,15.7Z"/>
    <path class="cls-3" d="M31.8,15.8a.4.4,0,0,0-.2.4c.1.1.2.1.4,0s.1,0,.1-.2-.1-.3-.2-.3A.1.1,0,0,0,31.8,15.8Z"/>
    <path class="cls-3" d="M49,15.7c-.2.1-.3.2-.3.4h.5C49.5,15.8,49.3,15.5,49,15.7Z"/>
    <path class="cls-3" d="M40.6,15.7l-.3.3c-.1.2,0,.5.2.5a.1.1,0,0,0,.1.1.7.7,0,0,0,.6-.2c.1-.1.2-.3.1-.4l-.2-.3Z"/>
    <path class="cls-3" d="M47.8,15.8V16a.2.2,0,0,0,.2.2c.2,0,.3-.1.3-.2S47.9,15.7,47.8,15.8Z"/>
    <path class="cls-3" d="M11.6,15.8c-.2.1-.2.1-.2.3v.2c.3.1.5,0,.5-.2a.4.4,0,0,0-.1-.3Z"/>
    <path class="cls-3" d="M30.3,15.9c-.2.2-.1.4.2.4h.3a.2.2,0,0,0-.1-.3Z"/>
    <path class="cls-3" d="M4.2,15.8a.6.6,0,0,0-.1.4.5.5,0,0,0,.4.2c.2-.1.3-.2.2-.3A.5.5,0,0,0,4.2,15.8Z"/>
    <path class="cls-3" d="M27.4,15.9c-.1,0-.2.2-.2.4s0,.2.1.2a.2.2,0,0,0,.3,0,.4.4,0,0,0,.2-.5h-.4Z"/>
    <path class="cls-3" d="M46.8,15.9c0,.1-.1.2,0,.3s.1.3.2.3l.2-.2v-.2l-.3-.2Z"/>
    <path class="cls-3" d="M6,16a.6.6,0,0,0-.1.4c.1.3.6.1.6-.2A.3.3,0,0,0,6,16Z"/>
    <path class="cls-3" d="M43.4,16.1c-.1.2-.1.3,0,.4s.3,0,.4-.1h.1A.3.3,0,0,0,43.4,16.1Z"/>
    <path class="cls-3" d="M19.4,16c-.1,0-.1.2-.1.3s.1.2.2.2h.2v.2c-.1.2-.1.2,0,.3s.2.1.5-.1h.4l.2-.2v-.2c-.1-.1-.4-.1-.8,0s-.1,0-.1-.1a.2.2,0,0,0,0-.3Z"/>
    <path class="cls-3" d="M15.3,16.1v.5h.2c.2,0,.2,0,.2-.2S15.4,16,15.3,16.1Z"/>
    <path class="cls-3" d="M39.2,16.1a.4.4,0,0,0,0,.5v.3c.1.2.1.2.2.2s.2,0,.2-.1.2-.5,0-.5-.1-.1-.1-.2a.3.3,0,0,0-.3-.3h0A.1.1,0,0,0,39.2,16.1Z"/>
    <path class="cls-3" d="M42.1,16.4a.3.3,0,0,0-.1.2c-.1.1,0,.2.2.2a.3.3,0,0,0,.3-.3C42.5,16.2,42.3,16.2,42.1,16.4Z"/>
    <path class="cls-3" d="M28.1,16.4a.4.4,0,0,0-.2.5h0c.1.1.3.1.5-.1S28.4,16.3,28.1,16.4Z"/>
    <path class="cls-3" d="M49.2,16.4l-.3.4.4.2c.2-.1.3-.2.3-.4l-.2-.2Z"/>
    <path class="cls-3" d="M23.7,16.4l-.3.3a.5.5,0,0,0,.8.5c.1-.1.2-.2.1-.3s-.1-.5-.4-.5Z"/>
    <path class="cls-3" d="M8.3,16.5v.4a.6.6,0,0,0,.6-.1q0-.2-.3-.3A.2.2,0,0,0,8.3,16.5Z"/>
    <path class="cls-3" d="M18.2,16.4a.5.5,0,0,0-.1.7h.2c.1-.1.3-.3.2-.5v-.2Z"/>
    <path class="cls-3" d="M37.4,16.5c-.2.1-.1.4.2.4s.1,0,.2-.2,0-.2-.1-.2A.2.2,0,0,0,37.4,16.5Z"/>
    <path class="cls-3" d="M16.8,16.5l-.3.4c0,.2.3.3.5.2s.3-.5.1-.6A.2.2,0,0,0,16.8,16.5Z"/>
    <path class="cls-3" d="M31.8,16.5c-.2.1-.3.5-.2.6h.6c.1-.1.1-.1.1-.2S32.1,16.4,31.8,16.5Z"/>
    <path class="cls-3" d="M13.8,16.6c-.3,0-.4.3-.3.4s.2.2.4.1.2-.2.2-.3S13.9,16.5,13.8,16.6Z"/>
    <path class="cls-3" d="M47.6,16.6a.2.2,0,0,0-.1.4.5.5,0,0,0,.6-.1A.4.4,0,0,0,47.6,16.6Z"/>
    <path class="cls-3" d="M26.2,16.6c-.1.1-.2.1-.2.2h-.5a.4.4,0,0,0-.4.4c0,.3.5.4.7.1H26c.2.1.3,0,.4-.2v-.2c0-.1-.1-.2-.3-.2Z"/>
    <path class="cls-3" d="M34.3,16.7c-.1,0-.2.2-.2.3s0,.2.1.3h.5c.1,0,.1-.1.1-.2v-.3Z"/>
    <path class="cls-3" d="M35.7,16.7a.3.3,0,0,0-.3.3c0,.5.9.6,1.1.2a.3.3,0,0,0,0-.4A.6.6,0,0,0,35.7,16.7Z"/>
    <path class="cls-3" d="M43.9,16.7c-.1,0-.2.2-.2.3s.1.5.3.5a.8.8,0,0,0,.7,0c.1-.1.1-.1.1-.3a.5.5,0,0,0-.3-.5C44.3,16.6,44.1,16.5,43.9,16.7Z"/>
    <path class="cls-3" d="M2.6,16.8H2.4a.5.5,0,0,0,.3.3c.2,0,.2-.1.2-.3S2.8,16.7,2.6,16.8Z"/>
    <path class="cls-3" d="M30.2,16.6l-.5.3a.4.4,0,0,0,0,.5v.2c0,.1.2.3.4.4a.8.8,0,0,0,.8-.2.7.7,0,0,0,.2-.6.8.8,0,0,0-.2-.5Z"/>
    <path class="cls-3" d="M32.9,16.8c-.1.1-.1.1-.1.3s0,.2.1.2.3.1.4-.1a.6.6,0,0,0-.1-.4Z"/>
    <path class="cls-3" d="M41.1,17c-.1.2-.1.3.1.3s.2-.1.2-.2S41.3,16.9,41.1,17Z"/>
    <path class="cls-3" d="M7.2,16.9a.6.6,0,0,0-.2.7H7c.3.5.8.4.8-.2A.5.5,0,0,0,7.2,16.9Z"/>
    <path class="cls-3" d="M15.6,17.1c-.2.1-.1.2.2.2s.1,0,.1-.1S15.7,16.9,15.6,17.1Z"/>
    <path class="cls-3" d="M21.7,17c-.1.1-.2.3-.1.4s.1.2.4.2a.3.3,0,0,0,.3-.3C22.3,17,22,16.9,21.7,17Z"/>
    <path class="cls-3" d="M27.2,17.2a.4.4,0,0,0-.1.3h.3c.1,0,.1,0,.1-.1S27.4,17.1,27.2,17.2Z"/>
    <path class="cls-3" d="M11.3,17.1a1,1,0,0,0-.6.9.7.7,0,0,0,1,.4c.3-.1.6-.4.6-.5a1.5,1.5,0,0,0-.6-.9Z"/>
    <path class="cls-3" d="M19.2,17.2c-.2.1-.2.2-.2.4s.3.3.5.1S19.5,17,19.2,17.2Z"/>
    <path class="cls-3" d="M49,17.3q-.3.1,0,.3a.2.2,0,0,0,.4.1v-.3H49Z"/>
    <path class="cls-3" d="M47.6,17.4a.5.5,0,0,0-.2.4h.2c.3,0,.4-.2.3-.4Z"/>
    <path class="cls-3" d="M42.4,17.4a.4.4,0,0,0,.1.3c.1.2.3.1.3-.2s0-.1-.1-.1Z"/>
    <path class="cls-3" d="M32.3,17.5c-.1.1-.3.2-.3.4s.1.3.4.2a.3.3,0,0,0,.3-.3C32.7,17.5,32.5,17.4,32.3,17.5Z"/>
    <path class="cls-3" d="M14.1,17.7l-.2.2c-.1.1-.1.1,0,.1a.2.2,0,0,0,.3,0,.4.4,0,0,0,.1-.3h-.2Z"/>
    <path class="cls-3" d="M40.5,17.7q-.3.2,0,.3c.3.1.5,0,.4-.2a.3.3,0,0,0-.1-.2Z"/>
    <path class="cls-3" d="M20.4,17.7c-.2.1-.3.5-.2.6a.7.7,0,0,0,.7-.2c.1-.1,0-.3-.1-.4Z"/>
    <path class="cls-3" d="M25.8,17.8c-.2.2-.1.4.2.4s.2,0,.3-.2,0-.2-.1-.3h-.4Z"/>
    <path class="cls-3" d="M38.1,17.9c-.3.3-.2.6.2.5s.5-.3.3-.6a.4.4,0,0,0-.5,0Z"/>
    <path class="cls-3" d="M42.2,17.8c-.2.1-.3.3-.2.4s.2.2.4.2.4-.4.2-.6S42.4,17.7,42.2,17.8Z"/>
    <path class="cls-3" d="M16.8,17.8a.5.5,0,0,0,.3.7.4.4,0,0,0,.3-.4.4.4,0,0,0-.1-.3A.5.5,0,0,0,16.8,17.8Z"/>
    <path class="cls-3" d="M28.3,17.9c-.2.1-.3.3-.2.4s.3.1.4-.1.2-.2.1-.3Z"/>
    <path class="cls-3" d="M48.1,17.8a.5.5,0,0,0-.3.5v.2a.6.6,0,0,0,.9,0C49,18.1,48.4,17.6,48.1,17.8Z"/>
    <path class="cls-3" d="M23,18c-.2.1-.3.4-.1.5s.7,0,.7-.2-.1-.2-.1-.3A.5.5,0,0,0,23,18Z"/>
    <path class="cls-3" d="M34.2,18v.2c0,.2,0,.2.1.3l.3.2a.4.4,0,0,0,.4-.4c.1,0,0-.1,0-.2A.6.6,0,0,0,34.2,18Z"/>
    <path class="cls-3" d="M18.4,17.9l-.2.3a1.4,1.4,0,0,0,0,.9.5.5,0,0,0,.4.3.9.9,0,0,0,.8-.6.6.6,0,0,0,.1-.7.9.9,0,0,0-.7-.3Z"/>
    <path class="cls-3" d="M35.7,18.1c-.1.1-.2.2-.1.4h0c.1.1.2.1.3-.1s.1-.3,0-.3h-.2Z"/>
    <path class="cls-3" d="M46.4,18.1c-.1.1-.2.3-.1.4s.1.2.3.2.4-.1.4-.3v-.2A.4.4,0,0,0,46.4,18.1Z"/>
    <path class="cls-3" d="M29.2,18.2a.6.6,0,0,0,.1.4h.4c.1,0,.1-.1.1-.2S29.3,18,29.2,18.2Z"/>
    <path class="cls-3" d="M49.5,18.3c-.2.1-.2.2-.1.3h.3c.1,0,.2,0,.2-.2S49.6,18.1,49.5,18.3Z"/>
    <path class="cls-3" d="M15,18.3c-.2.1-.2.4-.2.6a.3.3,0,0,0,.5-.1c.1,0,.1-.2.1-.3s0-.2-.1-.2A.2.2,0,0,0,15,18.3Z"/>
    <path class="cls-3" d="M24,18.3c-.2.2-.3.4,0,.5h.2c.3-.1.3-.4.1-.5S24.2,18.2,24,18.3Z"/>
    <path class="cls-3" d="M27.3,18.4a.2.2,0,0,0-.2.2c-.1.2-.1.3.2.3h.3a.3.3,0,0,0,0-.4Z"/>
    <path class="cls-3" d="M43.1,18.4c-.1.2-.1.3,0,.4s.5.1.5-.1S43.2,18.3,43.1,18.4Z"/>
    <path class="cls-3" d="M12.9,18.5a.9.9,0,0,0-.3.6c0,.2,0,.3.3.3s.3-.1.5-.3a.7.7,0,0,0-.1-.5Z"/>
    <path class="cls-3" d="M28.4,18.7c-.2.1-.4.4-.2.5s.7-.3.5-.5Z"/>
    <path class="cls-3" d="M30.5,18.6c-.2.1-.3.4-.2.5s.4.1.5-.1,0-.3-.1-.4Z"/>
    <path class="cls-3" d="M32,18.6c-.3.2-.4.5-.2.7h.4c.4,0,.5-.1.5-.5s0-.2-.1-.2-.1-.2-.3-.2Z"/>
    <path class="cls-3" d="M22.3,18.9c-.1.1-.1.1-.1.2s.6.4.7.1a.4.4,0,0,0-.2-.5h-.1Z"/>
    <path class="cls-3" d="M40.3,18.8a.5.5,0,0,0-.3.5c0,.1.1.2.2.1a.4.4,0,0,0,.4-.4c0-.2,0-.3-.1-.3Z"/>
    <path class="cls-3" d="M21.2,18.8c-.2.1-.2.3-.2.5s.5-.1.5-.3a.3.3,0,0,0-.1-.2Z"/>
    <path class="cls-3" d="M25.7,18.9c-.3.2-.3.5.1.5s.5-.3.3-.5Z"/>
    <path class="cls-3" d="M36.7,18.8l-.4.4v.2h.3a.5.5,0,0,0,.5-.4h0C37.2,18.8,37,18.7,36.7,18.8Z"/>
    <path class="cls-3" d="M29.5,19c-.1.2,0,.4.2.4s.3-.1.3-.2S29.6,18.9,29.5,19Z"/>
    <path class="cls-3" d="M26.7,18.5c-.3.2-.2.6.2.5s.3-.4.2-.5A.3.3,0,0,0,26.7,18.5Z"/>
    <path class="cls-3" d="M41.7,18.4c-.1.1-.1.2-.1.4s0,.2.1.3.9.1.9-.2a.7.7,0,0,0-.5-.4Z"/>
    <path class="cls-3" d="M46.4,18.5a.3.3,0,0,0-.3.3.5.5,0,0,0,.5.4h.1c.3-.1.5-.5.3-.7A.6.6,0,0,0,46.4,18.5Z"/>
    <path class="cls-3" d="M24.4,18.6a.3.3,0,0,0-.1.5.4.4,0,0,0,.5-.1.3.3,0,1,0-.4-.4Z"/>
    <path class="cls-3" d="M34.6,18.8c-.1,0-.2.1-.2.3l.2.2h.1a.4.4,0,0,0,.3-.5Z"/>
    <path class="cls-3" d="M38.1,18.7a.8.8,0,0,0-.4.4,1.2,1.2,0,0,0,.1,1h.3a.6.6,0,0,0,.6-.3.8.8,0,0,0,.1-1A.7.7,0,0,0,38.1,18.7Z"/>
    <path class="cls-3" d="M28.5,19a.2.2,0,0,0,0,.3h.1c.2.1.4,0,.4-.2l-.2-.3Z"/>
    <path class="cls-3" d="M30.3,19.1a.2.2,0,0,0,0,.3c0,.1.1.1.2,0s.4-.1.2-.3A.3.3,0,0,0,30.3,19.1Z"/>
    <path class="cls-3" d="M48.9,19a.5.5,0,0,0-.2.4c-.1.2,0,.2,0,.3a.7.7,0,0,0,.6.1c.4,0,.4-.4,0-.7Z"/>
    <path class="cls-3" d="M32.4,19.1c-.1.1-.1.2-.1.4h.3c.1,0,.1,0,.1-.1s0-.3-.1-.4S32.5,19,32.4,19.1Z"/>
    <path class="cls-3" d="M22.2,19c-.1.1-.1.2,0,.4s.4,0,.4-.3,0-.1-.2-.1Z"/>
    <path class="cls-3" d="M43,19.1a.2.2,0,0,0-.2.2v.2a.4.4,0,0,0,.6-.2.2.2,0,0,0-.2-.2H43Z"/>
    <path class="cls-3" d="M47.5,16.9s-.1.3,0,.4h.2c.3-.1.4-.3.1-.5Z"/>
    <path class="cls-3" d="M25.3,18.5a.6.6,0,0,0-.5.6.9.9,0,0,0,.3.6c.1,0,.1.1.4,0a.5.5,0,0,0,.6-.4.9.9,0,0,0,0-.7A.8.8,0,0,0,25.3,18.5Z"/>
    <path class="cls-3" d="M27.7,18.5c-.2.1-.1.5.1.5H28c.1,0,.1-.1.1-.2v-.2C27.9,18.4,27.7,18.5,27.7,18.5Z"/>
    <path class="cls-3" d="M19.2,18.7c0,.1-.1.2-.1.3s0,.1.1.2.4-.1.4-.3.1-.1,0-.1-.1-.3-.2-.3h0Z"/>
    <path class="cls-3" d="M11.7,18.6a.8.8,0,0,0-.2.4.4.4,0,0,0,.4.4c.4,0,.6-.2.5-.5A.9.9,0,0,0,11.7,18.6Z"/>
    <path class="cls-3" d="M29.3,18.7c-.3.2-.2.5.1.5a.3.3,0,0,0,.3-.3C29.7,18.6,29.5,18.5,29.3,18.7Z"/>
    <path class="cls-3" d="M30.4,18.8a.5.5,0,0,0-.2.4c0,.1,0,.1.1.1a.2.2,0,0,0,.3-.1c.1-.2.1-.3,0-.4S30.5,18.7,30.4,18.8Z"/>
    <path class="cls-3" d="M17.1,18.8a.8.8,0,0,0-.2.5c0,.2,0,.2.1.3h.4C17.7,19.4,17.5,18.7,17.1,18.8Z"/>
    <path class="cls-3" d="M14.1,18.9v.2h.1c.1,0,.3-.1.3-.2S14.2,18.8,14.1,18.9Z"/>
    <path class="cls-3" d="M43.5,18.5c-.2.1-.3.2-.3.4s.6.5.8.2.1-.1.1-.3,0-.2-.1-.3A.4.4,0,0,0,43.5,18.5Z"/>
    <path class="cls-3" d="M33.9,18.5c-.1.1-.1.3,0,.3s.3,0,.3-.2h0c0-.1,0-.1-.1-.1Z"/>
    <path class="cls-3" d="M31.7,18.9a.4.4,0,0,0,0,.5l.5.2c.4-.1.5-.2.3-.5S31.9,18.7,31.7,18.9Z"/>
    <path class="cls-3" d="M35.8,19c-.2.1-.3.2-.3.4s.1.3.3.4h.4a.4.4,0,0,0,.2-.5.3.3,0,0,0-.3-.3Z"/>
    <path class="cls-3" d="M47.1,19a.3.3,0,0,0,.1.5l.3-.2c.1-.2.1-.2,0-.3A.3.3,0,0,0,47.1,19Z"/>
    <path class="cls-3" d="M41.2,19.1c-.1,0-.1.2,0,.3s.2.2.4.1.2-.2.2-.3h-.1A.4.4,0,0,0,41.2,19.1Z"/>
    <path class="cls-3" d="M28.9,19c-.1.1-.1.2-.1.4s0,.3.2.4a.4.4,0,0,0,.5-.1c.3-.1.2-.4-.1-.6Z"/>
    <path class="cls-3" d="M49.4,19.2c-.2,0-.4.3-.4.4h.2c.2,0,.5-.2.4-.4S49.5,19.1,49.4,19.2Z"/>
    <path class="cls-3" d="M25.7,19.2c-.2.1.1.4.3.2s0-.2-.1-.2Z"/>
    <path class="cls-3" d="M39.2,20.7l-.2.2a.3.3,0,0,0-.1.2.3.3,0,0,1,.1.2c-.1.1-.1.2,0,.2h.2c.1.1.3.1.5-.1s.1-.1.1-.3,0-.3-.1-.4S39.3,20.5,39.2,20.7Z"/>
    <path class="cls-3" d="M33.7,21.1q-.2.3,0,.3H34c.1-.1.1-.3-.1-.3S33.7,21,33.7,21.1Z"/>
    <path class="cls-3" d="M41.6,21.1v.3c.1.2.3.1.5-.1s.1-.3-.1-.3Z"/>
    <path class="cls-3" d="M43.7,21.1c-.1.1-.1.1,0,.2s.4.3.4,0v-.2h-.4Z"/>
    <path class="cls-3" d="M47.5,21.4c-.2.2-.1.3,0,.4s.7-.2.5-.4Z"/>
    <path class="cls-3" d="M37.8,22.1a.8.8,0,0,0-.2.4h.5C38.3,22.1,38,21.9,37.8,22.1Z"/>
    <path class="cls-3" d="M43.7,22.2c-.1,0-.1.1-.1.2h0v.2h-.1c0,.1.1.1.1.2h.7c.1-.1.2-.1.2-.3A.5.5,0,0,0,43.7,22.2Z"/>
    <path class="cls-3" d="M35.3,22.5a.2.2,0,0,0,0,.3h0c.1.1.3.2.4.1v-.2a.3.3,0,0,0-.3-.3Z"/>
    <path class="cls-3" d="M48.2,22.5l-.4.4c-.2.5,0,1.1.4,1.1s.5-.1.7-.3.4-1-.2-1.2A.4.4,0,0,0,48.2,22.5Z"/>
    <path class="cls-3" d="M41.8,22.8c-.1.2-.1.3.1.3s.3-.2.1-.3S41.9,22.7,41.8,22.8Z"/>
    <path class="cls-3" d="M40,22.9a.7.7,0,0,0-.4.5c0,.3.4.3.7.1a.9.9,0,0,0,.1-.5Z"/>
  </g>
  <path class="cls-4" d="M31.9,0,27.7,4.7,19.8,7.2,16.7,0Z"/>
</svg>
