<svg xmlns="http://www.w3.org/2000/svg" viewBox="0 0 32 32">
  <defs>
    <style>
      .cls-1 {
        fill: #322f35;
      }

      .cls-2 {
        fill: #fd0032;
      }

      .cls-3 {
        fill: #be1e2d;
      }
    </style>
  </defs>
  <g id="Layer_2" data-name="Layer 2">
    <g id="Layer_1-2" data-name="Layer 1">
      <g>
        <path class="cls-1" d="M30.4,10.6V21.4a8.1,8.1,0,0,1-1.1,4.1,9,9,0,0,1-7.7,4.2H10.4a8.5,8.5,0,0,1-8.8-8.3V10.6a8.5,8.5,0,0,1,8.8-8.3H21.6A8.5,8.5,0,0,1,30.4,10.6Z"/>
        <path class="cls-2" d="M30.6,8.8,20.2.8a3.8,3.8,0,0,0-5.2.5L.8,18.3a3.3,3.3,0,0,0,.6,4.9l10.4,8a3.8,3.8,0,0,0,5.2-.5l14.2-17A3.3,3.3,0,0,0,30.6,8.8ZM10.7,27.1a2,2,0,0,1-2-.2L6.5,25.2a2.1,2.1,0,0,1-.7-1.8.2.2,0,0,1,.3-.1l4.7,3.6C10.9,26.9,10.8,27.1,10.7,27.1ZM26.2,8.5a.2.2,0,0,1-.2.2L21.3,5c-.1,0,0-.2.1-.2a2.1,2.1,0,0,1,1.9.2l2.3,1.7A1.9,1.9,0,0,1,26.2,8.5Z"/>
        <path class="cls-3" d="M25.6,6.7a1.9,1.9,0,0,1,.6,1.8.2.2,0,0,1-.2.2L21.3,5c-.1,0,0-.2.1-.2a2.1,2.1,0,0,1,1.9.2Z"/>
        <path class="cls-3" d="M8.7,26.9a2,2,0,0,0,2,.2c.1,0,.2-.2.1-.2L6.1,23.3a.2.2,0,0,0-.3.1,2.1,2.1,0,0,0,.7,1.8Z"/>
        <g>
          <polygon class="cls-3" points="19.8 11.8 16.1 16.1 15.9 16.4 12.2 20.2 15.6 16.2 15.9 15.9 19.8 11.8"/>
          <polygon class="cls-3" points="25.1 15.1 20.9 20 20.6 20.3 16.4 24.8 20.4 20.1 20.7 19.8 25.1 15.1"/>
          <polygon class="cls-3" points="15.6 7.2 11.3 12.2 11 12.5 6.9 16.9 10.8 12.3 11.1 12 15.6 7.2"/>
        </g>
      </g>
    </g>
  </g>
</svg>
